<svg width="128" height="128" viewBox="0 0 128 128" fill="none" xmlns="http://www.w3.org/2000/svg">
<rect width="128" height="128" fill="white"/>
<path d="M60.5508 89C59.9288 89 57.9531 89 56.548 89C55.5608 89 54.5698 88.808 53.7712 88.2276C52.7664 87.4972 51.4696 86.2418 51.0508 84.431V68.7825C51.0508 67.4001 51.4338 66.0263 52.2953 64.9451C55.0052 61.5443 57.4925 60.7169 61.0508 61.078L83.0508 61.5855" stroke="#9E7F61" stroke-width="3"/>
<path d="M71.456 19.1942C71.4 18.011 72.3143 17.0014 73.4988 17C81.7225 16.9908 89.8158 19.1634 96.945 23.3136C104.693 27.8242 110.972 34.4784 115.026 42.475C119.079 50.4716 120.735 59.4696 119.793 68.3853C118.851 77.3011 115.352 85.7545 109.717 92.7275C104.082 99.7005 96.5508 104.896 88.0312 107.688C79.5117 110.48 70.3666 110.749 61.6974 108.464C53.0282 106.179 45.2045 101.436 39.1684 94.807C33.1323 88.178 29.1412 79.9454 27.6758 71.1006L31.9076 70.3995C33.2378 78.4284 36.8607 85.9015 42.34 91.919C47.8193 97.9365 54.9213 102.242 62.7908 104.316C70.6603 106.391 78.9618 106.146 86.6954 103.612C94.4291 101.077 101.265 96.3611 106.381 90.0313C111.496 83.7016 114.672 76.028 115.527 67.9347C116.382 59.8414 114.879 51.6735 111.2 44.4145C107.52 37.1556 101.82 31.1152 94.7869 27.0207C88.3725 23.2866 81.0984 21.3161 73.7013 21.2898C72.5168 21.2855 71.5119 20.3774 71.456 19.1942V19.1942Z" fill="#9E7F61"/>
<path d="M49.5504 49.5C33.0508 52.5 25.355 57.8405 29.5487 72.5C29.5487 72.5 32.5435 71.5 39.0435 71C45.5435 70.5 45.5504 57 49.5504 49.5Z" stroke="#9E7F61" stroke-width="3"/>
<path d="M23.0508 64C11.5508 64 15.9377 50.5281 10.6074 40.0001C20.4302 41.9073 24.2548 44.5394 29.0492 50.9999" stroke="#9E7F61" stroke-width="3"/>
<path d="M40.3185 61.7677C40.9043 61.1819 40.9043 60.2322 40.3185 59.6464C39.7327 59.0606 38.7829 59.0606 38.1972 59.6464L39.2578 60.707L40.3185 61.7677ZM39.2578 60.707L38.1972 59.6464L28.1972 69.6464L29.2578 70.707L30.3185 71.7677L40.3185 61.7677L39.2578 60.707Z" fill="#9E7F61"/>
<line x1="19.6721" y1="52" x2="24.5508" y2="56.8787" stroke="#9E7F61" stroke-width="3" stroke-linecap="round"/>
<circle cx="68.5508" cy="47" r="9.5" stroke="#9E7F61" stroke-width="3"/>
<path d="M58.7254 72C56.0747 81.9 62.0469 83 62.0469 83" stroke="#9E7F61" stroke-width="3"/>
<path d="M65.5508 89.5767C65.5508 88.5767 68.8841 74.91 70.0508 68.0767H107.051L102.051 88.0767C101.095 90.5849 100.175 91.537 97.5508 92.0767H46.5508" stroke="#9E7F61" stroke-width="3"/>
<circle cx="86.0508" cy="81.0767" r="4" stroke="#9E7F61" stroke-width="3"/>
</svg>
