<svg width="128" height="128" viewBox="0 0 128 128" fill="none" xmlns="http://www.w3.org/2000/svg">
<rect width="128" height="128" fill="white"/>
<circle cx="39" cy="32" r="21.5" stroke="#9E7F61" stroke-width="3"/>
<path d="M30.5811 64.2168C34.0144 62.7557 37.7691 62.213 41.4756 62.6426C45.1821 63.0722 48.7136 64.4592 51.7217 66.667C54.7298 68.8748 57.1107 71.8281 58.6318 75.2354C60.153 78.6426 60.762 82.3871 60.3975 86.1006C60.0827 89.3072 59.0506 92.3949 57.3877 95.1396C57.3738 95.1413 57.3488 95.1403 57.3203 95.1201C57.2972 95.1037 57.2741 95.0759 57.2637 95.0195C57.2524 94.9576 57.2626 94.8811 57.3037 94.8115C58.8764 92.1489 59.8527 89.1686 60.1562 86.0771C60.5167 82.4055 59.9151 78.7028 58.4111 75.334C56.9071 71.9651 54.5524 69.0453 51.5781 66.8623C48.604 64.6795 45.1129 63.3087 41.4482 62.8838C37.7834 62.459 34.0706 62.9948 30.6758 64.4395C27.2811 65.8841 24.3208 68.1876 22.0859 71.123C19.8512 74.0585 18.4188 77.5249 17.9297 81.1816C17.5178 84.2608 17.787 87.3859 18.709 90.3379C18.733 90.4151 18.7255 90.4922 18.7002 90.5498C18.677 90.6026 18.6475 90.6241 18.6211 90.6348C18.5875 90.6483 18.5625 90.6428 18.5498 90.6377C17.5591 87.5853 17.2623 84.343 17.6895 81.1494C18.1842 77.4511 19.6334 73.9454 21.8936 70.9766C24.1538 68.0077 27.1477 65.6779 30.5811 64.2168Z" stroke="#9E7F61" stroke-width="3"/>
<circle cx="90" cy="83" r="21.5" stroke="#9E7F61" stroke-width="3"/>
<circle cx="90" cy="83" r="15" fill="#9E7F61"/>
<circle cx="90" cy="32" r="21.5" stroke="#9E7F61" stroke-width="3"/>
<rect x="83" y="21" width="15" height="22" stroke="#9E7F61" stroke-width="2"/>
<rect x="83" y="40" width="15" height="4" fill="#9E7F61"/>
<circle cx="90.75" cy="41.75" r="0.75" fill="white"/>
<rect x="27" y="24" width="24" height="4" fill="#9E7F61"/>
<rect x="27" y="30" width="24" height="10" fill="#9E7F61"/>
<rect x="30" y="35" width="14" height="2" fill="white"/>
<rect x="45" y="32" width="4" height="2" fill="white"/>
<path d="M20 99.8821V115C20.5987 117.126 21.0732 117.666 22 118C29.9539 118.981 34.3857 118.914 42 118L50.0953 101.333C50.3628 100.782 50.5354 100.184 50.5614 99.5724C50.6609 97.2336 50.1788 96.7931 49.2947 96.9992C48.4095 97.2055 47.7246 97.8935 47.2033 98.6381L44.5 102.5C44.2472 102.664 44.0234 102.773 43.8145 102.829C42.5175 103.178 42 101.243 42 99.9003V82C41.5 78 37 79 36.5 81V93.5C33.5263 90.8013 31.5 91.9999 30.5 97C28 92.9999 26 94 25 98.5C23.3629 96.4536 22.0609 96.0823 20.8196 97.3859C20.1947 98.0422 20 98.9759 20 99.8821Z" fill="#9E7F61"/>
<path d="M89.1242 88.2114C89.6658 87.1326 89.8385 86.0156 89.8398 85.0686C89.8391 84.8872 89.8324 84.7122 89.8209 84.5446H93.0193V82.6509H89.6388C89.6388 81.848 89.6388 80.6838 89.6388 79.7551C89.6395 79.0732 89.9113 78.4661 90.3578 78.0183C90.8063 77.5718 91.4127 77.2993 92.0946 77.2993C93.0375 77.2979 93.8522 77.8274 94.2671 78.6064L96.2979 77.5286C95.5014 76.0255 93.9157 75.0007 92.0946 75C89.4681 75.0007 87.3409 77.1286 87.3402 79.7551C87.3402 80.6838 87.3402 81.8479 87.3402 82.6509H85.0247V84.5445H87.5108C87.529 84.7057 87.5425 84.8798 87.5412 85.0686C87.5426 85.7296 87.4097 86.512 87.0718 87.176C86.7284 87.8441 86.2233 88.4066 85.3323 88.7951C84.8311 89.0096 84.5499 89.5492 84.6592 90.0823C84.7691 90.6159 85.2405 91 85.7848 91C90.9682 91 94.4829 91 94.4829 91V88.7028C94.4829 88.7028 92.2996 88.7021 88.8442 88.7021C88.9461 88.5402 89.0419 88.3769 89.1242 88.2114Z" fill="white"/>
</svg>
