<?xml version="1.0" encoding="UTF-8" standalone="no"?><!DOCTYPE svg PUBLIC "-//W3C//DTD SVG 1.1//EN" "http://www.w3.org/Graphics/SVG/1.1/DTD/svg11.dtd"><svg width="100%" height="100%" viewBox="0 0 557 840" version="1.1" xmlns="http://www.w3.org/2000/svg" xmlns:xlink="http://www.w3.org/1999/xlink" xml:space="preserve" xmlns:serif="http://www.serif.com/" style="fill-rule:evenodd;clip-rule:evenodd;stroke-linecap:round;stroke-linejoin:round;stroke-miterlimit:1.5;"><g><path d="M278.08,13.542l69.745,63.498l93.748,-10.376l19.102,92.366l81.943,46.71l-38.838,85.954l38.838,85.953l-81.943,46.71l-19.102,92.366l-93.748,-10.376l-69.745,63.498l-69.745,-63.498l-93.749,10.376l-19.101,-92.366l-81.943,-46.71l38.838,-85.953l-38.838,-85.954l81.943,-46.71l19.101,-92.366l93.749,10.376l69.745,-63.498Z" style="fill:none;stroke:#fff;stroke-width:27.08px;"/><circle cx="278.08" cy="291.694" r="164.587" style="fill:none;stroke:#fff;stroke-width:27.08px;"/><path d="M233.201,528.987l-15.644,296.493l-159.863,-26.904l82.078,-284.64" style="fill:none;stroke:#fff;stroke-width:27.08px;"/><path d="M325.421,526.745l15.763,298.735l159.863,-26.904l-81.993,-284.345" style="fill:none;stroke:#fff;stroke-width:27.08px;"/><path d="M327.135,385.627c-14.671,7.684 -31.359,12.031 -49.055,12.031c-58.483,-0 -105.964,-47.481 -105.964,-105.964" style="fill:none;stroke:#fff;stroke-width:27.08px;"/></g></svg>