<?xml version="1.0" encoding="UTF-8" standalone="no"?><!DOCTYPE svg PUBLIC "-//W3C//DTD SVG 1.1//EN" "http://www.w3.org/Graphics/SVG/1.1/DTD/svg11.dtd"><svg width="100%" height="100%" viewBox="0 0 969 871" version="1.1" xmlns="http://www.w3.org/2000/svg" xmlns:xlink="http://www.w3.org/1999/xlink" xml:space="preserve" xmlns:serif="http://www.serif.com/" style="fill-rule:evenodd;clip-rule:evenodd;stroke-linecap:round;stroke-linejoin:round;stroke-miterlimit:1.5;"><g><path d="M68.185,857.335c-30.158,-0 -54.642,-24.484 -54.642,-54.643" style="fill:none;stroke:#000;stroke-width:27.08px;"/><path d="M480.524,548.676c-43.781,-36.034 -71.719,-90.635 -71.719,-151.709c0,-24.81 4.61,-48.551 13.02,-70.414c18.672,-48.541 56.073,-87.82 103.332,-108.963c24.454,-10.941 51.548,-17.026 80.051,-17.026c108.398,-0 196.403,88.005 196.403,196.403c-0,66.908 -33.53,126.047 -84.689,161.516" style="fill:none;stroke:#fff;stroke-width:27.08px;"/><path d="M421.825,326.553c-16.162,5.468 -33.474,8.433 -51.472,8.433c-88.705,-0 -160.722,-72.017 -160.722,-160.722c-0,-88.705 72.017,-160.722 160.722,-160.722c88.705,-0 160.722,72.017 160.722,160.722c-0,15.009 -2.062,29.54 -5.918,43.326" style="fill:none;stroke:#fff;stroke-width:27.08px;"/><g transform="matrix(266.667,0,0,266.667,689.208,490.167)"></g><text x="518.008px" y="490.167px" style="font-family:'Metropolis-SemiBold', 'Metropolis';font-weight:600;font-size:266.667px;fill:#fff;">£</text><g transform="matrix(218.221,0,0,218.221,439.092,250.532)"></g><text x="298.994px" y="250.532px" style="font-family:'Metropolis-SemiBold', 'Metropolis';font-weight:600;font-size:218.221px;fill:#fff;">£</text><path d="M484.862,646.743l203.448,0m22.981,113.611c-0.18,0.001 -0.36,0.002 -0.541,0.002l-225.888,0" style="fill:none;stroke:#fff;stroke-width:27.08px;"/><path d="M229.438,563.68c0.414,-0.426 0.834,-0.846 1.26,-1.26c8.821,-8.509 20.819,-13.744 34.03,-13.744l422.783,-0c27.062,-0 49.034,21.971 49.034,49.034c-0,0.269 -0.003,0.537 -0.007,0.805c-0.427,26.424 -21.798,47.795 -48.221,48.222c-0.269,0.004 -0.537,0.006 -0.806,0.006l-202.649,0" style="fill:none;stroke:#fff;stroke-width:27.08px;"/><path d="M229.438,563.68l-199.802,199.802c-10.813,10.813 -16.178,25.025 -16.093,39.21c0.083,13.965 5.447,27.904 16.093,38.55c10.645,10.645 24.584,16.01 38.549,16.093c0.22,0.001 0.44,0.001 0.66,-0l192.402,0c13.374,0 25.632,-4.814 35.134,-12.804c3.456,-2.194 6.725,-4.799 9.739,-7.813l76.363,-76.362l102.379,0" style="fill:none;stroke:#fff;stroke-width:27.08px;"/><path d="M688.31,646.743l0.007,-0.006m48.221,-48.222l121.61,-121.609c22.169,-22.17 58.167,-22.17 80.336,-0c22.17,22.169 22.17,58.167 0,80.336l-186.487,186.487c-11.221,11.221 -25.985,16.763 -40.706,16.625" style="fill:none;stroke:#fff;stroke-width:27.08px;"/><path d="M229.438,563.68c0.414,-0.426 0.834,-0.846 1.26,-1.26" style="fill:none;stroke:#fff;stroke-width:27.08px;"/></g></svg>