<svg xmlns="http://www.w3.org/2000/svg" xmlns:xlink="http://www.w3.org/1999/xlink" xmlns:serif="http://www.serif.com/" width="100%" height="100%" viewBox="0 0 1599 1599" version="1.1" xml:space="preserve" style="fill-rule:evenodd;clip-rule:evenodd;stroke-linejoin:round;stroke-miterlimit:2;"><g><path d="M833.75,0c35.833,8.333 71.667,15.417 107.083,25c164.584,44.583 304.584,130.417 421.667,254.167c107.083,113.333 179.583,245.833 220,396.25c5.833,22.5 10.833,45 16.25,67.916l0,6.25c-40.417,7.084 -80.417,14.584 -120,21.667c-84.167,-360.417 -306.667,-576.25 -670.417,-650.417c5,-38.75 10.417,-79.583 15.834,-120.833l9.583,-0Z" style="fill:#fff;fill-rule:nonzero;"></path><path d="M0,458.75c-1.25,-55.417 20.417,-112.083 70.833,-157.917c36.667,-33.333 70.417,-69.583 105.417,-104.166c18.75,-18.75 39.583,-33.75 65.833,-39.584c32.917,-7.5 62.917,0.834 89.584,20.417c8.333,6.25 16.25,12.917 23.75,20.417c59.166,59.166 118.75,117.916 177.5,177.916c14.583,15 28.333,32.5 37.083,51.25c18.75,40.834 10,80.417 -19.583,112.917c-38.334,41.667 -79.167,81.25 -119.167,121.25c-22.083,22.5 -22.5,25 -9.167,54.167c40.417,88.333 101.25,162.083 166.25,232.5c65.417,70.833 137.5,134.583 219.584,186.25c28.333,17.916 59.166,32.5 88.75,48.333c13.75,7.5 23.75,1.25 33.333,-8.333c37.083,-37.5 74.167,-74.584 111.25,-111.667c21.25,-21.25 45,-38.333 76.25,-42.083c30,-3.75 56.25,5 80.417,22.5c8.333,6.25 16.25,13.333 23.333,20.416c59.583,59.584 120,118.75 178.75,178.75c14.167,14.584 27.5,31.667 36.25,50c18.333,39.584 11.25,79.167 -17.5,110.417c-46.25,50.833 -94.167,100 -144.167,146.667c-46.666,43.333 -105.833,52.5 -167.5,47.916c-103.333,-7.5 -198.333,-42.916 -290.416,-87.916c-146.667,-72.5 -279.584,-164.584 -396.667,-278.334c-162.083,-157.916 -293.333,-337.083 -374.167,-550c-26.25,-67.5 -45.833,-137.083 -45.833,-222.083Z" style="fill:#fff;fill-rule:nonzero;"></path><path d="M1273.75,771.667c-40.417,7.083 -79.583,13.75 -120.417,20.416c-45,-193.75 -165,-310.833 -362.083,-350.833c5.417,-39.583 11.25,-79.583 16.667,-119.167c200.416,17.5 423.333,190.417 465.833,449.584Z" style="fill:#fff;fill-rule:nonzero;"></path></g></svg>