<svg width="100%" height="3rem" viewBox="0 0 163 147" fill="none" xmlns="http://www.w3.org/2000/svg">
<path d="M104.7 146.2C104.35 146.2 104 146.18 103.64 146.15C94.7596 145.28 93.2896 138.07 92.3196 133.3C92.2396 132.9 92.1597 132.5 92.0797 132.12C91.8797 131.2 91.6896 129.4 91.4196 126.9C90.4396 117.74 87.4597 89.88 78.8297 89.72C78.7697 89.72 78.7097 89.72 78.6597 89.71C78.6097 89.71 78.5496 89.72 78.4896 89.72C69.8596 89.88 66.8797 117.74 65.8997 126.89C65.6297 129.39 65.4396 131.2 65.2396 132.12C65.1596 132.5 65.0796 132.89 64.9996 133.3C64.0296 138.07 62.5597 145.28 53.6897 146.15C53.3297 146.18 52.9797 146.2 52.6297 146.2C46.3097 146.2 41.1297 140.58 38.0597 130.37C37.2997 127.85 36.0597 124 34.4797 119.13L34.4197 118.96C28.1297 99.52 17.7297 67.4 15.0197 48.67C14.9897 48.69 14.9497 48.71 14.9197 48.73C14.1797 49.11 13.3497 49.31 12.5297 49.31C11.4197 49.31 10.3597 48.97 9.45965 48.31C7.84965 47.15 7.03965 45.22 7.32965 43.26L7.35965 43.09L10.0397 31.46C10.0597 31.3 9.97965 31.05 9.82965 30.85L1.70965 24.45C1.63965 24.39 1.56965 24.33 1.50965 24.27C0.149652 22.88 -0.330348 20.86 0.249652 19C0.829652 17.15 2.38965 15.77 4.29965 15.41C4.39965 15.39 4.49965 15.38 4.59965 15.37L15.0297 14.85C15.2397 14.79 15.4097 14.66 15.5297 14.48L19.2297 4.07999C19.2697 3.97999 19.2997 3.89999 19.3397 3.81999C20.2497 2.04999 22.0497 0.96999 24.0197 0.96999C25.9897 0.96999 27.7897 2.05999 28.6897 3.80999L28.7397 3.91999L29.0497 4.62999C31.8497 2.66999 34.9997 1.31999 38.4197 0.59999C40.3697 0.18999 42.4497 -0.0100098 44.6097 -0.0100098C45.8597 -0.0100098 47.1497 0.0599902 48.4497 0.19999C54.0697 0.78999 58.0697 2.98999 61.9297 5.10999C66.4397 7.58999 70.6497 9.89999 77.4797 9.89999C77.6797 9.89999 77.8797 9.89999 78.0797 9.89999C78.1497 9.89999 78.2097 9.89999 78.2597 9.90999C78.3097 9.90999 78.3697 9.89999 78.4397 9.89999C78.6797 9.89999 78.8696 9.89999 79.0596 9.89999C85.9696 9.89999 90.5997 7.45999 95.0797 5.09999C99.1497 2.95999 103.28 0.77999 108.87 0.18999C110.15 0.0599902 111.41 -0.0100098 112.63 -0.0100098C126.17 -0.0100098 136.07 8.25999 140.55 23.3C141.78 23.75 142.8 24.64 143.4 25.81L143.46 25.94L148.05 36.48C148.14 36.63 148.33 36.79 148.57 36.86L158.36 37.41C158.45 37.41 158.54 37.43 158.63 37.44C160.55 37.8 162.05 39.12 162.66 40.96C163.27 42.81 162.85 44.76 161.53 46.19L161.42 46.31L152.61 54.52C152.48 54.67 152.4 54.97 152.46 55.26L154.97 64.74C155.39 66.74 154.65 68.76 153.02 70.01C152.09 70.72 150.98 71.1 149.83 71.1C149.01 71.1 148.18 70.9 147.43 70.52C147.3 70.45 147.18 70.37 147.07 70.29L139.21 64.07C134.83 82.18 127.66 104.31 122.92 118.97C121.32 123.9 120.06 127.8 119.29 130.37C116.22 140.58 111.04 146.2 104.72 146.2H104.7ZM78.8896 85.4C91.3496 85.63 94.1997 112.18 95.7197 126.44C95.9497 128.63 96.1596 130.52 96.3096 131.2C96.3896 131.59 96.4796 131.99 96.5596 132.4C97.4896 136.99 98.3696 141.29 104.07 141.84C104.28 141.86 104.5 141.87 104.7 141.87C110.44 141.87 113.71 133.88 115.14 129.11C115.92 126.52 117.19 122.61 118.79 117.65C123.11 104.3 129.51 84.53 133.9 67.44L129.97 70.49C129.87 70.57 129.75 70.64 129.63 70.71C128.88 71.09 128.05 71.29 127.23 71.29C126.12 71.29 125.06 70.95 124.16 70.29C122.55 69.13 121.74 67.2 122.03 65.24L122.06 65.07L124.74 53.44C124.76 53.28 124.68 53.03 124.53 52.83L116.43 46.44C116.35 46.38 116.28 46.32 116.22 46.25C114.87 44.87 114.39 42.85 114.97 41C115.55 39.15 117.11 37.77 119.02 37.41C119.13 37.39 119.23 37.38 119.32 37.38L129.75 36.86C129.96 36.8 130.13 36.67 130.25 36.49L133.95 26.09C133.98 26 134.02 25.91 134.06 25.83C134.54 24.91 135.26 24.17 136.14 23.67C133.26 14.65 126.87 4.31999 112.73 4.31999C111.63 4.31999 110.49 4.37999 109.32 4.49999C104.56 4.99999 100.97 6.89999 97.1597 8.89999C92.1897 11.52 87.0397 14.23 78.9397 14.23H78.2696H78.2597C78.2297 14.23 78.1897 14.23 78.1497 14.23C77.9597 14.23 77.7396 14.23 77.5296 14.23C69.5396 14.23 64.6097 11.52 59.8497 8.89999C56.1997 6.88999 52.7597 4.99999 47.9997 4.49999C46.8497 4.37999 45.6997 4.31999 44.6097 4.31999C42.7497 4.31999 40.9697 4.48999 39.3097 4.83999C36.1697 5.48999 33.3297 6.78999 30.8297 8.70999L33.3497 14.49C33.4397 14.64 33.6297 14.8 33.8697 14.87L43.6597 15.42C43.7697 15.42 43.8497 15.44 43.9297 15.45C45.8497 15.81 47.3497 17.13 47.9597 18.97C48.5697 20.82 48.1497 22.77 46.8297 24.2L46.7297 24.31L37.9197 32.53C37.7897 32.68 37.7097 32.98 37.7697 33.27L40.2497 42.64C40.6897 44.73 39.9497 46.77 38.3297 48.01C37.3997 48.72 36.2897 49.1 35.1397 49.1C34.3197 49.1 33.4897 48.9 32.7397 48.52C32.6097 48.45 32.4897 48.38 32.3797 48.29L24.3297 41.93C24.2397 41.9 24.1397 41.89 24.0397 41.89C23.9397 41.89 23.8397 41.91 23.7497 41.94L18.9997 45.63C21.0097 63.45 32.3997 98.64 38.5497 117.64C40.1697 122.65 41.4397 126.55 42.2097 129.14C43.6397 133.9 46.9097 141.89 52.6597 141.89C52.8597 141.89 53.0697 141.89 53.2797 141.86C58.9797 141.3 59.8497 137.01 60.7797 132.45C60.7797 132.45 60.9597 131.55 61.0397 131.22C61.1897 130.54 61.3897 128.68 61.6197 126.53C63.1497 112.2 65.9897 85.65 78.4397 85.41C78.5397 85.41 78.6197 85.41 78.6897 85.43C78.7497 85.43 78.8197 85.41 78.8997 85.41H78.9196L78.8896 85.4ZM127.35 49.57C127.43 49.63 127.5 49.7 127.56 49.76C128.7 50.93 129.24 52.59 128.99 54.22L128.96 54.39L126.28 66.02C126.25 66.28 126.39 66.6 126.68 66.81C126.85 66.93 127.03 66.99 127.22 66.99C127.32 66.99 127.42 66.97 127.51 66.94L135.99 60.35C136.1 60.26 136.22 60.19 136.34 60.13C137.07 59.76 137.9 59.56 138.73 59.56C139.56 59.56 140.39 59.76 141.12 60.13C141.24 60.19 141.37 60.27 141.48 60.37L149.53 66.74C149.63 66.77 149.72 66.79 149.82 66.79C150.02 66.79 150.21 66.72 150.38 66.59C150.68 66.36 150.81 66.03 150.73 65.66L148.22 56.18C147.87 54.51 148.35 52.77 149.5 51.52L149.62 51.41L158.43 43.2C158.59 43.01 158.66 42.68 158.55 42.35C158.45 42.05 158.23 41.83 157.93 41.75L148.14 41.2C148.05 41.2 147.96 41.18 147.87 41.17C146.26 40.87 144.91 39.87 144.16 38.42L144.1 38.29L139.51 27.75C139.38 27.51 139.08 27.33 138.72 27.33C138.39 27.33 138.12 27.48 137.94 27.74L134.24 38.14C134.21 38.23 134.17 38.32 134.12 38.41C133.37 39.86 132.02 40.86 130.42 41.16C130.33 41.18 130.23 41.19 130.14 41.19L119.69 41.71C119.39 41.8 119.17 42.02 119.07 42.32C118.97 42.63 119.03 42.94 119.23 43.18L127.33 49.58L127.35 49.57ZM12.6297 27.56C12.7097 27.62 12.7697 27.68 12.8397 27.75C13.9897 28.92 14.5197 30.59 14.2797 32.21L14.2497 32.38L11.5697 44.01C11.5397 44.27 11.6797 44.59 11.9697 44.8C12.1397 44.92 12.3197 44.98 12.5097 44.98C12.6097 44.98 12.7097 44.96 12.7997 44.93L21.2797 38.34C21.3897 38.26 21.5097 38.18 21.6297 38.12C22.3597 37.75 23.1897 37.55 24.0097 37.55C24.8297 37.55 25.6597 37.75 26.3997 38.12C26.5297 38.19 26.6497 38.27 26.7597 38.35L34.8097 44.72C34.9097 44.75 34.9997 44.77 35.0997 44.77C35.2997 44.77 35.4897 44.7 35.6597 44.57C35.9597 44.34 36.0897 44 36.0097 43.63L33.5197 34.24L33.4997 34.15C33.1497 32.49 33.6297 30.75 34.7897 29.5L34.8997 29.39L43.7097 21.18C43.8697 20.99 43.9397 20.66 43.8297 20.33C43.7297 20.03 43.5097 19.81 43.2097 19.73L33.4197 19.18C33.3297 19.18 33.2397 19.16 33.1497 19.15C31.5397 18.85 30.1897 17.85 29.4397 16.4L29.3797 16.27L24.7897 5.72999C24.6597 5.48999 24.3597 5.30999 23.9997 5.30999C23.6697 5.30999 23.3997 5.45999 23.2197 5.71999L19.5197 16.12C19.4897 16.22 19.4497 16.3 19.4097 16.38C18.6597 17.83 17.3097 18.84 15.6997 19.14C15.5997 19.16 15.4997 19.17 15.3997 19.17L4.96965 19.69C4.66965 19.78 4.44965 20 4.34965 20.3C4.24965 20.61 4.30965 20.92 4.50965 21.16L12.6097 27.55L12.6297 27.56Z" fill="currentColor"></path>
</svg>