<svg id="Layer_1" enable-background="new 0 0 512 512" height="512" viewBox="0 0 512 512" width="512" xmlns="http://www.w3.org/2000/svg"><path d="m444.068 0h-376.136c-37.458 0-67.932 30.474-67.932 67.932v376.136c0 37.458 30.474 67.932 67.932 67.932h376.136c37.459 0 67.932-30.474 67.932-67.932v-376.136c0-37.458-30.473-67.932-67.932-67.932zm-63.443 367.151c0 7.441-6.033 13.474-13.474 13.474h-157.193c-7.441 0-13.474-6.033-13.474-13.474s6.033-13.474 13.474-13.474h124.667l-199.302-199.304c-5.263-5.261-5.263-13.792 0-19.052 5.261-5.266 13.796-5.261 19.053 0l199.302 199.305v-124.666c0-7.441 6.033-13.474 13.474-13.474s13.474 6.033 13.474 13.474v157.191z"/></svg>