<svg id="Layer_1" viewBox="0 0 512 512" xmlns="http://www.w3.org/2000/svg" data-name="Layer 1"><path d="m256 21a44.79 44.79 0 0 1 44.74 44.74v236.3a15 15 0 0 0 25.607 10.606l85.853-85.846a44.737 44.737 0 1 1 63.266 63.268l-187.833 187.837c-.347.347-.751.734-1.3 1.25q-.526.48-1.076.961c-.233.2-.467.4-.712.6-.314.256-.629.511-.957.77-.248.195-.5.385-.743.567-.068.05-.135.1-.2.152-.263.2-.534.392-.809.589s-.544.384-.822.571c-.305.206-.611.4-.943.62-.59.379-1.193.747-1.794 1.095-.315.179-.632.353-.964.534-.625.338-1.265.665-1.9.974-.343.163-.677.318-.995.463s-.648.284-.989.43l-.117.051c-.264.116-.589.247-1.023.411l-.251.1c-.192.077-.384.147-.581.218l-.105.038c-.369.137-.739.264-1.115.4-.272.095-.55.182-.823.265l-.2.062c-.283.091-.567.175-.85.253l-.114.032c-.267.077-.54.153-.808.225-.175.04-.35.083-.523.128s-.353.094-.533.136h-.021c-.483.108-.965.218-1.448.32l-.306.057-.5.094c-.088.015-.177.032-.267.049h-.027c-.279.048-.564.1-.842.14l-.151.023h-.02c-.117.017-.233.033-.349.051s-.257.039-.385.054-.252.03-.378.048l-.145.02c-.7.083-1.392.153-2.077.209-1.2.085-2.327.127-3.457.127s-2.262-.042-3.458-.127c-.684-.056-1.38-.126-2.075-.208l-.134-.02c-.13-.018-.257-.034-.388-.049s-.258-.036-.388-.055l-.348-.05h-.02l-.15-.023c-.279-.042-.564-.092-.842-.14h-.018c-.095-.019-.19-.036-.284-.052l-.5-.093-.308-.057c-.488-.1-.975-.214-1.454-.322-.183-.042-.365-.09-.542-.137-.194-.052-.388-.1-.584-.142-.248-.068-.5-.14-.751-.213l-.115-.032q-.423-.117-.846-.252l-.2-.063c-.273-.083-.552-.171-.83-.268-.368-.127-.736-.254-1.1-.39l-.115-.042c-.2-.071-.389-.141-.58-.217-.083-.033-.165-.066-.249-.1-.432-.164-.758-.3-1.022-.411l-.112-.049-.057-.024c-.312-.134-.625-.267-.91-.4-.345-.157-.683-.315-1.029-.479-.64-.31-1.277-.636-1.894-.969-.322-.176-.644-.352-.966-.535-.6-.347-1.2-.714-1.789-1.092-.317-.206-.634-.412-.946-.622-.279-.188-.552-.376-.828-.575s-.542-.386-.8-.586c-.067-.051-.134-.1-.2-.152-.25-.184-.5-.375-.747-.57-.327-.257-.644-.515-.965-.776-.236-.191-.464-.389-.7-.6q-.548-.48-1.073-.959c-.55-.513-.954-.9-1.305-1.252l-187.863-187.826a44.74 44.74 0 0 1 63.277-63.263l85.85 85.85a15 15 0 0 0 25.606-10.606v-236.304a44.791 44.791 0 0 1 44.739-44.74m0-15a59.744 59.744 0 0 0 -59.74 59.74v236.3l-85.85-85.85a59.74 59.74 0 0 0 -84.49 84.48l187.84 187.84c.57.57 1.15 1.12 1.74 1.67q.69.63 1.41 1.26c.36.31.72.62 1.09.92s.74.6 1.12.9.76.59 1.14.87.77.57 1.16.85.78.55 1.18.82.8.53 1.2.79q1.215.78 2.46 1.5c.42.24.84.47 1.26.7q1.275.69 2.58 1.32c.441.21.87.41 1.31.61.42.19.84.37 1.26.55.57.25 1.15.48 1.73.7.35.14.7.27 1.06.4.46.17.92.33 1.38.49s.93.31 1.39.45.94.29 1.41.42c.42.12.84.24 1.26.35.12.03.23.06.35.08.34.09.69.18 1.041.26.619.14 1.239.28 1.859.41.36.07.71.13 1.07.2.13.02.26.05.39.07.4.07.81.14 1.21.2.04.01.08.01.12.02.44.06.87.13 1.31.18l.2.03c.98.12 1.96.22 2.95.3 1.52.11 3.05.17 4.6.17s3.08-.06 4.6-.17c.99-.08 1.97-.18 2.95-.3l.2-.03c.44-.05.87-.12 1.31-.18.04-.01.08-.01.12-.02.4-.06.81-.13 1.21-.2.13-.02.26-.05.39-.07.36-.07.71-.13 1.07-.2.62-.13 1.24-.27 1.86-.41.35-.08.7-.17 1.04-.26.11-.02.23-.05.34-.08.42-.11.85-.23 1.27-.35q.705-.195 1.41-.42c.46-.14.93-.29 1.39-.45s.92-.32 1.381-.49c.359-.13.709-.26 1.059-.4.58-.22 1.16-.45 1.73-.7.42-.18.84-.36 1.26-.55.44-.2.87-.4 1.31-.61q1.305-.63 2.58-1.32c.42-.23.84-.46 1.26-.7q1.245-.72 2.46-1.5c.4-.26.8-.52 1.2-.79s.79-.54 1.18-.82.78-.56 1.16-.85.76-.57 1.14-.87.75-.6 1.12-.9.73-.61 1.09-.92q.72-.63 1.41-1.26c.59-.55 1.17-1.1 1.74-1.67l187.83-187.84a59.736 59.736 0 1 0 -84.48-84.48l-85.85 85.85v-236.3a59.744 59.744 0 0 0 -59.74-59.74z"/></svg>