<svg width="auto" height="1rem" viewBox="0 0 200 170" fill="#877663" xmlns="http://www.w3.org/2000/svg">
<g clip-path="url(#clip0_40_380)">
<path d="M105.71 148.2C105.33 148.2 104.94 148.18 104.55 148.14C94.94 147.2 93.32 139.25 92.36 134.5C92.27 134.07 92.2 133.7 92.12 133.33C91.91 132.37 91.73 130.65 91.45 128.05C88.25 98.14 83.36 91.79 79.83 91.72C79.78 91.72 79.73 91.72 79.68 91.72C79.64 91.72 79.59 91.72 79.54 91.72C75.98 91.79 71.1 98.13 67.9 128C67.62 130.63 67.43 132.36 67.22 133.33C67.14 133.69 67.06 134.07 66.99 134.45C66.02 139.24 64.4 147.2 54.78 148.13C54.39 148.17 54 148.19 53.62 148.19C46.82 148.19 41.3 142.31 38.09 131.64C37.33 129.1 36.07 125.21 34.47 120.29C28.29 101.21 18.2 70.02 15.21 51.06C14.66 51.22 14.09 51.3 13.52 51.3C12.2 51.3 10.94 50.89 9.86003 50.12C7.95003 48.74 6.98003 46.44 7.33003 44.11V44.03L7.38003 43.86L10 32.47L2.10003 26.23C1.99003 26.14 1.89003 26.06 1.80003 25.96C0.180027 24.3 -0.399972 21.9 0.300027 19.69C1.00003 17.48 2.84003 15.85 5.12003 15.42C5.27003 15.39 5.42003 15.38 5.57003 15.37L15.69 14.87L19.29 4.75C19.35 4.6 19.4 4.48 19.46 4.37C20.55 2.27 22.68 0.98 25.03 0.98C27.38 0.98 29.37 2.19 30.48 4.16C33.14 2.48 36.07 1.29 39.23 0.63C41.25 0.21 43.4 0 45.62 0C46.9 0 48.23 0.07 49.57 0.21C55.39 0.82 59.66 3.17 63.43 5.24C68.01 7.76 71.93 9.91 78.5 9.91C78.69 9.91 78.89 9.91 79.08 9.91C79.15 9.91 79.21 9.91 79.27 9.91C79.33 9.91 79.39 9.91 79.46 9.91C79.71 9.91 79.9 9.91 80.08 9.91C86.74 9.91 91.06 7.64 95.63 5.23C99.78 3.04 104.01 0.82 109.78 0.21C111.09 0.07 112.39 0 113.65 0C127.53 0 137.71 8.36 142.39 23.57C143.64 24.15 144.67 25.12 145.31 26.36L145.4 26.54L149.9 36.87L159.44 37.41C159.55 37.41 159.68 37.43 159.82 37.45C162.11 37.88 163.9 39.45 164.63 41.64C165.36 43.84 164.85 46.16 163.28 47.86L163.11 48.03L154.46 56.09L156.93 65.41L156.95 65.52C157.45 67.9 156.57 70.3 154.63 71.79C153.52 72.64 152.21 73.09 150.83 73.09C149.85 73.09 148.86 72.85 147.98 72.4C147.78 72.3 147.61 72.19 147.45 72.06L140.81 66.81C136.39 84.67 129.49 106 124.87 120.27C123.27 125.2 122.01 129.09 121.24 131.65C118.03 142.32 112.51 148.19 105.71 148.19V148.2ZM79.89 85.4C93.26 85.65 96.16 112.77 97.72 127.34C97.94 129.41 98.15 131.36 98.29 132C98.37 132.39 98.46 132.79 98.54 133.2C99.58 138.3 100.53 141.41 105.16 141.86C105.34 141.88 105.52 141.89 105.7 141.89C110.99 141.89 114.09 133.47 115.18 129.85C115.96 127.25 117.23 123.33 118.84 118.37C122.92 105.78 128.85 87.45 133.19 71.07L131.59 72.32C131.44 72.44 131.28 72.54 131.1 72.63C130.2 73.09 129.22 73.32 128.24 73.32C126.92 73.32 125.66 72.91 124.58 72.14C122.67 70.76 121.7 68.46 122.05 66.13V66.04L124.72 54.5L116.82 48.26C116.7 48.17 116.6 48.07 116.51 47.97C114.91 46.33 114.33 43.93 115.03 41.72C115.73 39.51 117.57 37.88 119.85 37.45C120 37.42 120.15 37.41 120.3 37.4L130.42 36.9L134.02 26.78C134.07 26.65 134.12 26.53 134.18 26.41C134.62 25.56 135.23 24.83 135.97 24.28C131.97 12.38 124.5 6.35 113.75 6.35C112.69 6.35 111.58 6.41 110.45 6.53C105.89 7.01 102.54 8.77 98.66 10.82C93.81 13.37 88.33 16.26 79.97 16.26H79.27C79.27 16.26 78.77 16.26 78.55 16.26C70.3 16.26 65.03 13.37 60.39 10.81C56.68 8.77 53.47 7.01 48.92 6.53C47.8 6.41 46.69 6.35 45.63 6.35C43.84 6.35 42.13 6.52 40.53 6.85C37.8 7.42 35.3 8.5 33.08 10.07L35.19 14.91L44.73 15.45C44.88 15.45 45.02 15.48 45.16 15.5C47.41 15.92 49.2 17.49 49.93 19.68C50.66 21.88 50.15 24.2 48.58 25.9L48.43 26.05L39.77 34.13L42.22 43.4C42.76 45.92 41.87 48.34 39.94 49.82C38.83 50.67 37.52 51.12 36.14 51.12C35.16 51.12 34.17 50.88 33.29 50.43C33.1 50.33 32.92 50.22 32.76 50.09L25.05 43.99L21.07 47.08C23.23 64.96 34.44 99.57 40.51 118.34C42.13 123.36 43.4 127.26 44.18 129.86C45.27 133.48 48.38 141.9 53.68 141.9C53.85 141.9 54.03 141.9 54.21 141.87C58.84 141.42 59.79 138.32 60.82 133.26C60.82 133.26 61.01 132.35 61.08 132.01C61.22 131.38 61.42 129.46 61.64 127.42C63.21 112.78 66.11 85.66 79.44 85.41C79.53 85.41 79.62 85.41 79.69 85.42C79.76 85.42 79.83 85.41 79.92 85.41H79.94L79.89 85.4ZM128.97 49.78C129.08 49.87 129.18 49.96 129.28 50.06C130.64 51.45 131.28 53.44 130.99 55.37V55.45L130.94 55.62L128.37 66.8L136.39 60.56C136.55 60.44 136.72 60.33 136.9 60.24C137.77 59.8 138.75 59.56 139.74 59.56C140.73 59.56 141.71 59.8 142.58 60.24C142.75 60.32 142.93 60.44 143.1 60.57L150.68 66.57L148.28 57.48L148.26 57.37C147.84 55.39 148.41 53.31 149.79 51.82L149.91 51.7L158.5 43.69L149.11 43.16C148.98 43.16 148.85 43.14 148.72 43.11C146.8 42.75 145.19 41.55 144.3 39.83L144.21 39.65L139.77 29.44L136.22 39.43C136.17 39.56 136.11 39.71 136.04 39.84C135.16 41.54 133.55 42.74 131.64 43.1C131.49 43.13 131.34 43.14 131.19 43.15L121.24 43.65L128.98 49.76L128.97 49.78ZM14.25 27.78C14.36 27.87 14.46 27.96 14.56 28.06C15.92 29.45 16.56 31.44 16.27 33.37L16.22 33.61L13.65 44.79L21.67 38.55C21.83 38.43 22 38.32 22.18 38.23C23.05 37.79 24.04 37.55 25.02 37.55C26 37.55 26.99 37.79 27.86 38.23C28.05 38.33 28.22 38.44 28.38 38.56L35.97 44.56L33.56 35.46L33.53 35.34C33.11 33.38 33.69 31.3 35.06 29.81L35.23 29.64L43.77 21.68L34.38 21.15C34.27 21.15 34.13 21.13 33.99 21.1C32.07 20.74 30.46 19.55 29.57 17.82L29.48 17.64L25.03 7.44L21.48 17.43C21.43 17.56 21.38 17.69 21.31 17.81C20.41 19.55 18.81 20.74 16.9 21.1C16.75 21.13 16.6 21.14 16.45 21.15L6.50003 21.65L14.24 27.76L14.25 27.78Z" fill="#877663"></path>
</g>
<defs>
<clipPath id="clip0_40_380">
<rect width="164.94" height="148.2" fill="#877663"></rect>
</clipPath>
</defs>
</svg>