<svg id="Line" height="512" viewBox="0 0 128 128" width="512" xmlns="http://www.w3.org/2000/svg"><path d="m92.3 128a7.327 7.327 0 0 1 -4.849-1.52 30.147 30.147 0 0 1 -6.57-10.595 47.876 47.876 0 0 1 -3-13.01c-.472-4.737-2.109-16.265-7.12-20.981a3.049 3.049 0 0 0 -4.036 0c-4.791 4.518-6.507 15.083-7.1 20.978a47.943 47.943 0 0 1 -3.005 13.008 30.484 30.484 0 0 1 -6.547 10.591c-1.838 1.774-6.669 2.058-8.622.515-9.466-7.5-11.189-29.085-11.258-30a53.613 53.613 0 0 0 -4.573-18.686 82.8 82.8 0 0 0 -7.72-14.649c-5.581-8.207-5.547-18.123-5.517-26.872v-1.859c0-1.07.037-2.012.113-2.878a1 1 0 0 1 1.992.176c-.071.806-.105 1.69-.105 2.7v1.866c-.029 8.458-.062 18.046 5.171 25.74a84.829 84.829 0 0 1 7.914 15 55.314 55.314 0 0 1 4.724 19.3c.018.233 1.727 21.646 10.5 28.6 1.178.93 4.87.7 5.985-.376a28.52 28.52 0 0 0 6.085-9.9 45.929 45.929 0 0 0 2.874-12.47c.625-6.172 2.459-17.269 7.728-22.238a5.045 5.045 0 0 1 6.772 0c5.306 5 7.127 16.079 7.74 22.242a45.869 45.869 0 0 0 2.865 12.47 28.178 28.178 0 0 0 6.109 9.9c1.1 1.077 4.792 1.3 5.983.368 8.771-6.954 10.474-28.393 10.49-28.609l.02-.2c.124-1.264.242-2.459.4-3.634a1 1 0 0 1 1.983.26c-.152 1.155-.267 2.327-.389 3.57l-.018.177c-.066.894-1.789 22.51-11.244 30.006a6.333 6.333 0 0 1 -3.775 1.01z"/><path d="m110.821 78.609a.981.981 0 0 1 -.377-.074 1 1 0 0 1 -.548-1.3 76.172 76.172 0 0 1 7.953-14.535c5.327-7.769 5.3-17.489 5.275-26.064v-1.717c-.003-18.767-13.278-32.919-30.883-32.919a32.556 32.556 0 0 0 -12.76 2.581 27.379 27.379 0 0 1 -21.438 0 32.657 32.657 0 0 0 -12.771-2.581 29.683 29.683 0 0 0 -25.472 13.859 1 1 0 0 1 -1.686-1.078 31.653 31.653 0 0 1 27.158-14.781 34.644 34.644 0 0 1 13.548 2.739 25.4 25.4 0 0 0 19.883 0 34.566 34.566 0 0 1 13.538-2.739c18.744 0 32.88 15.013 32.88 34.92v1.711c.025 8.867.054 18.918-5.628 27.2a74.346 74.346 0 0 0 -7.749 14.151 1 1 0 0 1 -.923.627z"/><path d="m17.349 40.3a1 1 0 0 1 -.881-.526l-4.574-8.5-8.494-4.574a1 1 0 0 1 0-1.762l8.5-4.574 4.574-8.5a1.041 1.041 0 0 1 1.761 0l4.575 8.5 8.5 4.574a1 1 0 0 1 0 1.762l-8.5 4.575-4.575 8.5a1 1 0 0 1 -.886.525zm-11.368-14.48 7.125 3.837a1.013 1.013 0 0 1 .407.406l3.836 7.125 3.836-7.125a1 1 0 0 1 .407-.406l7.131-3.837-7.131-3.836a.986.986 0 0 1 -.407-.407l-3.836-7.13-3.836 7.13a.994.994 0 0 1 -.408.407z"/><path d="m108.892 98.128a1 1 0 0 1 -.881-.526l-3.9-7.243-7.244-3.9a1 1 0 0 1 0-1.762l7.243-3.9 3.9-7.249a1.04 1.04 0 0 1 1.761 0l3.9 7.249 7.249 3.9a1 1 0 0 1 0 1.762l-7.249 3.9-3.9 7.244a1 1 0 0 1 -.879.525zm-9.441-12.55 5.873 3.162a1 1 0 0 1 .406.407l3.162 5.872 3.162-5.873a1 1 0 0 1 .407-.406l5.877-3.162-5.877-3.161a.991.991 0 0 1 -.407-.407l-3.162-5.877-3.162 5.877a.991.991 0 0 1 -.407.407z"/><path d="m40.107 53.512a1 1 0 0 1 -.88-.526l-3.067-5.695-5.695-3.066a1 1 0 0 1 0-1.762l5.695-3.063 3.067-5.7a1.041 1.041 0 0 1 1.761 0l3.067 5.7 5.7 3.067a1 1 0 0 1 0 1.762l-5.7 3.066-3.067 5.7a1 1 0 0 1 -.881.517zm-7.058-10.168 4.324 2.328a1 1 0 0 1 .406.406l2.328 4.322 2.329-4.324a1 1 0 0 1 .407-.406l4.327-2.328-4.327-2.328a.994.994 0 0 1 -.407-.408l-2.329-4.327-2.328 4.327a1 1 0 0 1 -.406.408z"/></svg>