<svg id="Layer_1" enable-background="new 0 0 512 512" height="512" viewBox="0 0 512 512" width="512" xmlns="http://www.w3.org/2000/svg"><path d="m282 239.6-1.9-7.2c7.9-7 12.6-17 12.7-27.7 12-1.4 16.3-18.1 6.2-24.9 22.4-42-25.3-81.4-62.3-50.2-26-1.4-39.5 25.5-25.6 50-10.4 6.8-6.3 23.7 5.9 25.1.2 11.8 5.8 22.7 15 29.6l-1.3 5.3c-44.9 9.3-62.6 33.5-60.1 83.5.1 15.3 12.7 27.8 28 27.9 35.7.2 79.5-.2 115.8-.4 15.2-.1 27.7-12.6 27.9-27.9 2.2-49.9-15.2-73.7-60.3-83.1zm-56.4-66.6c-5.5-9.2-5.3-19-.8-23.7 8.1-7.2 14.8-.4 20.6-6 23.8-22.9 55.3 2.4 38.9 30.1-4.3-3-9.3-5.8-14.6-6.4-5.8-.5-8.1.7-15.2.3-6.5-.1-7.8-1.2-13.4-.9-5.6.5-11 3.1-15.5 6.6zm7.3 24.1c.1-.3 0-8.8 0-9.1 2.3-2.7 5.4-4.9 8.9-5.7 4.3-.2 5.9.8 12.2.9 10.5.4 16.1-2.6 23 4.8v8.9 7.1c0 8-4.4 15.6-11.7 19.4-13.9 8.1-32.9-3.2-32.4-19.4zm15.5 138.1c-7.9 0-15.6 0-23 0v-5.9c0-4.4-3.6-8-8-8s-8 3.6-8 8v5.9c-3.7 0-7.4 0-10.8 0-6.6 0-12.1-5.5-12.1-12.1l-8 .1 8-.7c-1.4-33 4.6-57.9 42.1-65.6 0 0 6.2-1.6 6.2-1.6l13.6 13.6zm8-81-10.3-10.3.6-2.6c6.3 1.3 12.9 1.1 19-.7l.9 3.4zm69.9 68.2c.1 6.7-5.4 12.3-12.1 12.4l-10.9.1v-5.5c0-4.4-3.6-8-8-8s-8 3.6-8 8v5.6l-23 .1v-66.4c.1-.1 12.9-12.9 13.5-13.5 41.9 8.2 50 28.8 48.5 67.2zm-69.9-253.7c-14.5-9.7-29.2-18.4-43.7-26 7.3-37.1-41.9-57.6-63-26.4-151-43-177.5 78.2-95 213.6-14 12.6-13.9 37.4 0 50-128.4 224.6 31.3 279 201.7 161 16.1 10.7 32.1 20.1 47.9 28.2-7.6 37.8 42.9 58 63.5 25.7 157.6 42.5 171.2-99.4 74.7-240 140.1-210.5 24.4-326.1-186.1-186.1zm213.9-27.8c33.7 33.7 18.5 113.1-37.4 199.7-42.2-60.1-102.1-120.1-162.2-162.2 86.6-55.9 166-71.1 199.6-37.5zm-291.8-24c25 .7 25 37.2 0 37.9-25-.8-24.9-37.2 0-37.9zm-34.5 14.2c-4.6 35.1 40.3 53.8 62.1 26 12 6.3 24.1 13.5 36.1 21.3-54.4 38.2-108.6 90.9-149.2 144.6-7.8-3.4-16.7-3.8-24.7-1.3-72.3-121.8-60.8-228.8 75.7-190.6zm-53.8 238.9c-23.3 15.6-43.9-20.5-18.5-32.6 20.4-8.3 36.3 19.2 18.5 32.6zm-47.7 198.7c-31.3-31.3-21.4-100.2 25.8-180.7 8.1 2.5 17 2.1 24.7-1.3 40.6 53.7 94.8 106.4 149.2 144.6-86.6 55.9-166 71.1-199.7 37.4zm213.9-47c-54.9-37.6-109.9-90.6-150.7-144.5 10.8-12.5 10.7-32.3 0-44.8 40.8-53.9 95.8-106.9 150.7-144.5 62.1 42.5 124.4 104.8 166.9 166.9-42.5 62.1-104.8 124.4-166.9 166.9zm82.1 73.5c-25-.7-25-37.2 0-37.9 25.1.7 24.9 37.2 0 37.9zm131.8-26.5c-19.2 19.2-53.5 23.1-97.1 11.1 3.5-34.6-40.7-52.2-62.2-25-13.3-6.9-26.8-14.8-40.4-23.5 60.1-42.2 120.1-102.1 162.2-162.2 56 86.6 71.2 166 37.5 199.6z"/></svg>