<svg id="Layer_1" fill="#877663" enable-background="new 0 0 104 104" height="512" viewBox="0 0 104 104" width="512" xmlns="http://www.w3.org/2000/svg"><path d="m97.94 86.12c-1.47-2.54-5.2-4.38-10.9-5.49-2.04-3.59-4.16-9.65-4.6-12.44-1.97-12.51-5.52-16.25-7.14-17.33 2.1-3.99 3.2-7.96 4.14-11.34 1.13-4.08 2.02-7.31 4.08-8.95 3.46-1.57 5.7-4.92 6.49-9.69.29-1.77.06-3.85-1.15-4.23-.75-.24-1.46.25-2.1 1.44-1.93-.5-5.32-1.08-5.88.79-.11.37-.1.74.02 1.08-.99.99-1.39 3.34-1.64 5.58-.04.39-.41.85-.87 1.44-.83 1.05-1.97 2.5-2.26 4.94-.33 2.83-3.77 9.02-6.97 13.36-2.42-1.94-4.09-3.63-4.43-5.36-.71-3.62-2.19-6.21-4.42-7.7-1.67-1.12-3.48-1.42-4.97-1.42-3.62-1.38-3.23-5.01-2.26-8.74l.06-.24c.29-1.13.44-2.36.44-3.67 0-7.8-5.78-14.15-12.88-14.15-7.09 0-12.85 6.35-12.85 14.15 0 5.04 2.4 9.61 6.3 12.15-.96 1.05-2.33 1.64-4.1 1.73-3.11.16-5.48 1.2-7.05 3.09-2.28 2.75-2.33 6.59-1.97 9.33.63 4.74.37 13.72-1.47 17.57-.92 1.91-1.21 4.22-1.61 7.42-.49 3.88-1.16 9.21-3.37 16.34-.05.11-1.29 2.8-5.39 3.18-.25.03-2.49.3-3.41 1.53-.34.46-.47 1-.37 1.57.2 1.08 1.17 1.91 2.36 2 2.52.2 6.96.22 8.45-1.95.04-.05.07-.09.09-.13.15.25.34.67.48.97.5 1.12 1.23 2.77 2.68 2.77.14 0 .29-.02.45-.05.57-.12.99-.45 1.24-.94.48-.98.2-2.54-.85-4.78-.43-.91-.59-1.87-.48-2.78.09-.68 1.56-4.11 2.99-7.43 2.19-5.08 4.9-11.4 5.76-14.81.25-1.01.45-3.14.57-4.82.01.02.02.03.03.05.01.01.01.02.02.02 0 0 .01.01.01.01 4.05 4.57 4.09 10.51 3.81 14.28v.01c-.05.62-.19 2.07-.19 2.07-.53 5.27-1.39 14.02 6.52 19.01-.21 2.34.12 3.74 1.02 4.25.19.11.43.19.74.19.42 0 .94-.16 1.58-.66.03-.02.06-.05.08-.08.06-.06 1.6-1.57 5.38-.56 2.96.79 4.85.53 7.23.2 1.23-.17 2.62-.36 4.33-.44 1.33.06 32.78 1.3 37.67-6.16 1.81-2.76 1.3-4.89.56-6.18zm-15.63-66.81c.21-.31 1.83-.28 3.71.15-.21.36-.45.74-.72 1.13-.63-.08-1.36-.22-1.98-.45-.21-.29-.5-.5-.87-.62-.05-.01-.1-.02-.14-.03-.02-.06-.02-.11 0-.18zm-19.05 20.9c.43 2.18 2.29 4.11 4.99 6.27-.46.57-.9 1.1-1.32 1.56-.28.31-.26.78.05 1.06.14.13.33.2.51.2.2 0 .4-.08.55-.24.59-.64 1.21-1.4 1.85-2.23 0 0 .01 0 .01-.01 0 0 0-.01.01-.01 3.5-4.56 7.34-11.38 7.72-14.71.23-2.02 1.14-3.17 1.94-4.18.59-.74 1.09-1.38 1.18-2.2.49-4.38 1.19-4.73 1.28-4.75.45.13.47 2.09.05 3.88-.09.4.16.81.56.9s.81-.15.9-.56c.15-.63.43-2.06.33-3.33.18.04.35.08.53.11-.06.27.03.57.27.75.33.25.8.19 1.05-.13.96-1.24 1.7-2.41 2.2-3.47.22-.47.4-.73.52-.87.15.41.27 1.31.09 2.4-.72 4.35-2.64 7.25-5.7 8.6-.06.02-.11.05-.15.09-2.5 1.93-3.51 5.58-4.68 9.79-1.28 4.64-2.88 10.41-7 15.67-.46.58-1.18.84-1.87.66-1.25-.31-2.99-1.03-4.83-2.63s0 0 0 0c-1.88-1.63-3.85-4.19-5.5-8.2-.22-.54-.44-1.11-.65-1.7-.14-.39-.56-.6-.96-.46-.39.14-.6.57-.46.96.16.46.33.88.5 1.3-.07.08-.15.17-.23.28-2.52-4.33-3.41-10.46-3.64-12.49.03-.01.07-.01.1-.01 1.32-.26 3.86-.49 6.04.97 1.86 1.25 3.13 3.51 3.76 6.73zm-33.07 18.75c-2.97-4.23-2.42-8.2-1.98-9.28.29-.71.36-1.67.34-2.6 4.12-3.23 3.15-11.16 2.71-13.7.37-.06.73-.16 1.07-.27.78 6 1.78 12.56 5.83 15.17 1.14.73 2.45 1.1 3.93 1.1 1.04 0 2.17-.18 3.37-.55 1.87-.13 3.32-.91 4.33-2.33 2.73-3.85 1.21-11.37.58-13.94.47.08.95.11 1.46.1.25 2.21 1.23 9.05 4.23 13.72-.29.53-.56 1.15-.74 1.85-.1.38-.19.78-.29 1.19-.44 1.9-.98 4.25-2.79 7.12-.34.53-.57 1.1-.75 1.67-7.72 1.71-19.17.92-21.3.75zm23 5.5c-.49-1.7-1.1-4.86.33-7.12 1.94-3.08 2.52-5.58 2.99-7.58.09-.4.18-.79.28-1.15.25-.96.71-1.75 1.1-2.31 1.48 3.25 3.18 5.54 4.86 7.14-1.35 1.51-5.29 6-9.56 11.02zm-23.84-46.31c0-6.97 5.09-12.65 11.35-12.65 6.27 0 11.37 5.67 11.37 12.65 0 1.18-.13 2.29-.39 3.29l-.06.24c-.57 2.17-1.75 6.8 1.25 9.38-1.12.19-2.13.13-3.02-.18-1.82-.65-3.05-2.09-3.67-4.26 2.01-1.88 3.3-4.75 3.3-7.98 0-.69-.06-1.35-.18-2.03-.04-.25-.21-.46-.44-.56-7.33-3.16-8.22-7.75-8.23-7.81-.07-.41-.45-.69-.86-.62-.41.06-.69.45-.62.86.01.07.13.72.58 1.66-.64.99-3.02 4.12-7.97 5.18-.41.09-.66.48-.58.89.08.35.39.59.73.59.05 0 .1 0 .16-.02.01 0 .02 0 .03-.01-.1.62-.17 1.24-.17 1.85 0 3.44 1.47 6.49 3.71 8.34-.14.77-.35 1.46-.65 2.06-3.48-2.24-5.64-6.33-5.64-10.87zm4.09.49c0-.76.11-1.53.28-2.3 3.72-1.21 5.86-3.44 6.85-4.76 1.19 1.74 3.37 3.91 7.32 5.69.06.46.09.91.09 1.38 0 4.81-3.26 8.73-7.27 8.73-4.01-.01-7.27-3.93-7.27-8.74zm3.55 9.25c1.13.62 2.38.98 3.71.98 1.52 0 2.96-.46 4.21-1.25.73 2.07 2.02 3.57 3.78 4.4 0 .02 0 .05.01.07.03.1 2.71 9.55-.13 13.55-.76 1.06-1.83 1.62-3.28 1.7-.06 0-.12.01-.18.03-2.54.79-4.55.67-6.13-.35-3.57-2.3-4.5-8.99-5.21-14.52 1.61-.94 2.71-2.5 3.22-4.61zm-9.85 36.66c-.83 3.29-3.52 9.55-5.68 14.58-1.91 4.43-2.99 6.98-3.1 7.84-.15 1.2.06 2.44.61 3.61.93 1.98 1.04 3.11.86 3.48-.03.06-.07.11-.21.14-.52.1-.96-.78-1.44-1.86-.46-1.03-.85-1.91-1.71-1.99-.78-.08-1.3.66-1.46.91-.76 1.09-3.48 1.59-7.1 1.3-.43-.03-.92-.31-1-.78-.03-.16 0-.28.09-.4.41-.55 1.77-.87 2.35-.93 5.01-.46 6.56-3.93 6.65-4.15 2.28-7.34 2.96-12.74 3.46-16.68.38-3.06.66-5.26 1.47-6.95 2.04-4.26 2.25-13.59 1.61-18.42-.26-2-.4-5.72 1.63-8.17 1.23-1.48 3.12-2.32 5.62-2.52.35 2.04 1.19 8.45-1.37 11.59-.06-.48-.13-.84-.15-.94-.08-.41-.47-.68-.88-.6s-.67.47-.6.88c.17.9.51 3.49.04 4.63-.69 1.67-.84 5.09.97 8.74-.05.9-.3 5.24-.66 6.69zm4.28-3.99c1.66.11 4.37.25 7.47.25 3.91 0 8.44-.23 12.29-1-.26 2.54.51 5.03.86 6-.74.87-1.48 1.76-2.22 2.64-1.94-.07-10.66-.13-15.2 3.99.07-3.51-.44-7.99-3.2-11.88zm2.91 16.14s.13-1.32.17-1.85c2.91-4.32 10.75-4.87 14.08-4.9-2.48 2.99-4.8 5.87-6.5 8.14-.25.33-.18.8.15 1.05.13.1.29.15.45.15.23 0 .45-.1.6-.3 5.61-7.5 18-21.63 20.58-24.56 1.86 1.47 3.61 2.17 4.89 2.49.26.07.53.1.79.1 1 0 1.98-.47 2.63-1.29.91-1.16 1.69-2.34 2.39-3.52 1.26.94 4.54 4.44 6.4 16.23.43 2.71 2.26 8.08 4.2 11.88-2.25-.35-4.77-.6-7.54-.74-6.67-6.91-7.29-13.34-7.35-14.32.62-1.7 1.27-3.54 1.96-5.57.13-.39-.08-.82-.47-.95s-.82.08-.95.47c-.69 2.05-1.35 3.91-1.97 5.6-.01.02-.02.05-.03.07-4 10.85-6.59 14.63-7.86 15.94-.98 1.01-1.48 2.33-1.42 3.72.08 1.82-.24 4.35-2.16 6.19-1.66.15-3.04.11-3.78-.19-2.38-.99-4.44-.63-6.29 1.12-.28.27-.99-.12-1.2-.24-1.05-.62-2.2-.81-3.24-.54-1.62.41-2.72 1.5-3.22 3.1-6.57-4.58-5.83-12.18-5.31-17.28zm34.87-8.64c.65 2.68 2.27 6.88 6.28 11.4-3.54-.11-7.47-.06-11.74.14 1.4-2.16 3.21-5.73 5.46-11.54zm-14.03 29.36c-2.3.32-3.96.55-6.64-.17-4.34-1.16-6.43.57-6.8.93-.37.28-.58.33-.63.32-.01 0-.55-.47-.23-3.23.19-1.61.98-2.61 2.35-2.96.66-.17 1.41-.03 2.11.38 1.63.96 2.58.43 3 .04.95-.9 2.34-1.8 4.68-.82 1.18.49 3.33.48 5.77.17.78 1.94.92 3.6.43 4.93-1.6.08-2.9.25-4.04.41zm40.95-5.93c-3.53 5.4-25.71 5.83-35.34 5.53.41-1.5.25-3.23-.47-5.17 3.65-.62 7.6-1.77 9.78-2.88 4.44-2.25 9.84-3.15 16.99-2.83.41.03.76-.3.78-.72.02-.41-.3-.76-.72-.78-7.42-.33-13.05.63-17.74 2.99-2.25 1.14-6.34 2.26-9.88 2.81 1.32-1.99 1.57-4.26 1.49-5.99-.05-.97.31-1.9 1-2.6.19-.19.39-.43.6-.69 18.65-1 31.36 1.13 34 5.71.81 1.35.63 2.9-.49 4.62z"/></svg>