<?xml version="1.0" encoding="UTF-8" standalone="no"?>
<!-- Created with Inkscape (http://www.inkscape.org/) -->
<svg fill="#fff" xmlns="http://www.w3.org/2000/svg" xmlns:svg="http://www.w3.org/2000/svg" version="1.1" id="svg3201" width="682.66669" height="682.66669" viewBox="0 0 682.66669 682.66669">
  <defs id="defs3205">
    <clipPath clipPathUnits="userSpaceOnUse" id="clipPath3227">
      <path d="M 0,512 H 512 V 0 H 0 Z" id="path3225"/>
    </clipPath>
  </defs>
  <mask id="custom"><rect id="bg" x="0" y="0" width="100%" height="100%" fill="#fff"/><g transform="matrix(1.3333333,0,0,-1.3333333,0,682.66667)"/></mask><g mask="url(#custom)"><g id="g3207" transform="matrix(1.3333333,0,0,-1.3333333,0,682.66667)">
    <path d="M 100,338.878 H 412 V 259 H 100 Z" style="fill:none;stroke:#fff;stroke-width:40;stroke-linecap:butt;stroke-linejoin:miter;stroke-miterlimit:10;stroke-dasharray:none;stroke-opacity:1" id="path3209"/>
    <g id="g3211" transform="translate(80,415.8779)">
      <path d="M 0,0 H 352" style="fill:none;stroke:#fff;stroke-width:40;stroke-linecap:butt;stroke-linejoin:miter;stroke-miterlimit:10;stroke-dasharray:none;stroke-opacity:1" id="path3213"/>
    </g>
    <g id="g3215" transform="translate(432,142.1221)">
      <path d="M 0,0 H -192" style="fill:none;stroke:#fff;stroke-width:40;stroke-linecap:butt;stroke-linejoin:miter;stroke-miterlimit:10;stroke-dasharray:none;stroke-opacity:1" id="path3217"/>
    </g>
    <path d="m 100,182 h 80 v -79.878 h -80 z" style="fill:none;stroke:#fff;stroke-width:40;stroke-linecap:butt;stroke-linejoin:miter;stroke-miterlimit:10;stroke-dasharray:none;stroke-opacity:1" id="path3219"/>
    <g id="g3221">
      <g id="g3223" clip-path="url(#clipPath3227)">
        <g id="g3229" transform="translate(452,20)">
          <path d="m 0,0 h -392 c -22.092,0 -40,17.908 -40,40 v 392 c 0,22.092 17.908,40 40,40 H 0 c 22.092,0 40,-17.908 40,-40 V 40 C 40,17.908 22.092,0 0,0 Z" style="fill:none;stroke:#fff;stroke-width:40;stroke-linecap:butt;stroke-linejoin:miter;stroke-miterlimit:10;stroke-dasharray:none;stroke-opacity:1" id="path3231"/>
        </g>
      </g>
    </g>
  </g></g>
</svg>
