<svg width="100%" height="4rem" viewBox="0 0 93 184" fill="none" xmlns="http://www.w3.org/2000/svg">
<path d="M92.2204 3.13995C92.2204 2.82995 92.1104 2.51995 91.8904 2.29995C91.6704 2.07995 91.3704 1.94995 91.0604 1.94995H44.0004C43.6904 1.94995 43.3904 2.07995 43.1704 2.29995C42.9504 2.51995 42.8304 2.82995 42.8404 3.13995L43.0604 12.15C43.0404 12.23 43.0104 12.31 43.0104 12.39C43.0104 12.5 43.0404 12.6 43.0704 12.7L46.4804 150.33C46.5404 152.71 48.0004 154.7 50.0704 155.53V174.2C50.0704 178.14 52.7404 181.35 56.0304 181.35H79.0304C82.3104 181.35 84.9904 178.14 84.9904 174.2V155.63C87.2004 154.86 88.8304 152.78 88.8804 150.33L92.0104 12.59C92.0204 12.52 92.0504 12.46 92.0504 12.39C92.0504 12.33 92.0304 12.29 92.0204 12.23L92.2304 3.14995L92.2204 3.13995ZM82.6604 174.19C82.6604 176.85 81.0304 179.02 79.0304 179.02H56.0304C54.0304 179.02 52.4004 176.85 52.4004 174.19V155.94H82.6604V174.19ZM86.5604 150.26C86.5204 152.11 84.9804 153.62 83.1304 153.62H52.2504C50.3704 153.62 48.8604 152.15 48.8204 150.27L45.4304 13.55H89.6704L86.5604 150.26ZM89.7204 11.22H45.3704L45.2004 4.27995H89.8804L89.7204 11.22ZM50.3404 64.1399C50.3404 63.4999 50.8604 62.9799 51.5004 62.9799H83.5504C84.1904 62.9799 84.7104 63.4999 84.7104 64.1399C84.7104 64.7799 84.1904 65.3 83.5504 65.3H51.5004C50.8604 65.3 50.3404 64.7799 50.3404 64.1399ZM50.3404 71.54C50.3404 70.9 50.8604 70.38 51.5004 70.38H83.5504C84.1904 70.38 84.7104 70.9 84.7104 71.54C84.7104 72.18 84.1904 72.7 83.5504 72.7H51.5004C50.8604 72.7 50.3404 72.18 50.3404 71.54ZM50.3404 78.95C50.3404 78.31 50.8604 77.79 51.5004 77.79H83.5504C84.1904 77.79 84.7104 78.31 84.7104 78.95C84.7104 79.59 84.1904 80.11 83.5504 80.11H51.5004C50.8604 80.11 50.3404 79.59 50.3404 78.95ZM50.3404 86.35C50.3404 85.71 50.8604 85.19 51.5004 85.19H83.5504C84.1904 85.19 84.7104 85.71 84.7104 86.35C84.7104 86.99 84.1904 87.51 83.5504 87.51H51.5004C50.8604 87.51 50.3404 86.99 50.3404 86.35ZM50.3404 93.75C50.3404 93.11 50.8604 92.59 51.5004 92.59H83.5504C84.1904 92.59 84.7104 93.11 84.7104 93.75C84.7104 94.39 84.1904 94.91 83.5504 94.91H51.5004C50.8604 94.91 50.3404 94.39 50.3404 93.75Z" fill="currentColor" stroke="currentColor" stroke-miterlimit="10"></path>
<path d="M24.84 4.79C24.82 2.42 22.5 0.5 19.67 0.5C19.45 0.5 19.25 0.53 19.04 0.55H6.4C3.15 0.55 0.5 3.2 0.5 6.45V27.21C0.5 30.46 3.15 33.11 6.4 33.11H14.66L15.53 178.08C15.53 179.23 16.02 180.34 16.9 181.2C17.93 182.22 19.42 182.8 20.99 182.8H21.05C22.46 182.79 23.8 182.31 24.81 181.45C25.88 180.54 26.46 179.32 26.45 178.01L24.84 4.79ZM2.82 15.09H14.55L14.57 18.98H2.82V15.09ZM14.54 12.76H2.82V8.87H14.51L14.53 12.76H14.54ZM2.82 21.31H14.59L14.61 25.2H2.82V21.31ZM6.4 2.88H15.06C14.72 3.45 14.5 4.1 14.49 4.79V6.55H2.82V6.45C2.82 4.48 4.42 2.88 6.39 2.88H6.4ZM6.4 30.78C4.54 30.78 3.02 29.34 2.86 27.52H14.63L14.65 30.78H6.4ZM23.29 179.68C22.7 180.19 21.89 180.47 21.02 180.48H20.98C20.02 180.48 19.13 180.14 18.52 179.55C18.22 179.25 17.85 178.75 17.85 178.07L16.81 4.8C16.83 3.73 18.13 2.82 19.66 2.82C21.19 2.82 22.5 3.73 22.51 4.81L24.11 178.03C24.11 178.64 23.82 179.22 23.29 179.68Z" fill="currentColor" stroke="currentColor" stroke-miterlimit="10"></path>
</svg>