<svg id="Layer_1" enable-background="new 0 0 512 512" height="512" viewBox="0 0 512 512" width="512" xmlns="http://www.w3.org/2000/svg"><g id="Layer_2_1_"><g id="Layer_1-2"><path id="G" d="m314.9 170.5c-3.4-.8-6.8-1.1-10.3-1.1h-32.9c-4 0-7.1 1-9.4 3.1-2.3 2-3.5 4.9-3.5 7.9 0 3.9 1.4 6.7 4.1 8.3s6.9 2.4 12.3 2.4h22.5v23.3c-5.7 3.1-11.7 5.6-17.9 7.5-6.1 1.8-12.5 2.7-18.9 2.6-13.8 0-24.6-4.5-32.3-13.6s-11.6-22-11.6-38.8c-.1-7.2.9-14.3 3-21.2 1.7-5.9 4.7-11.4 8.6-16.2 3.7-4.3 8.3-7.8 13.5-10.1 5.7-2.4 11.8-3.6 18-3.5 6.5 0 11.9 1 16.1 2.9 3.8 1.7 7.2 4.1 10 7.2 3.3 4 6.3 8.3 9.1 12.7 1.3 1.7 2.9 3.1 4.8 4.1s3.9 1.5 6 1.5c3.6.1 7.1-1.3 9.7-3.9 2.6-2.4 4.1-5.8 4.1-9.3 0-3.4-1.2-7.3-3.5-11.6-2.7-4.8-6.2-9-10.5-12.4-4.6-3.9-10.6-7.1-18.1-9.7-8.3-2.7-16.9-4-25.6-3.8-11.7 0-22.2 1.7-31.4 5.1-8.8 3.2-16.9 8.2-23.5 14.8-6.6 6.7-11.6 14.7-14.6 23.5-3.4 9.8-5.1 20.2-5 30.6-.1 10.5 1.6 20.9 5.1 30.8 3.2 8.8 8.2 16.8 14.7 23.4 6.6 6.6 14.5 11.6 23.2 14.8 9.6 3.5 19.8 5.2 30.1 5 8.8.1 17.6-1 26.2-3.2 8.7-2.4 17.1-5.9 25-10.3 2.7-1.4 5.1-3.1 7.4-5.1 1.8-1.6 3.2-3.6 3.9-5.9.8-2.8 1.2-5.8 1.1-8.7v-27.4c0-4.9-.9-8.7-2.6-11.1-1.7-2.2-4.1-3.9-6.9-4.6zm-58.9-170.5c-95.8 0-173.1 77.7-173.5 173.5-.5 117.5 144.8 302.2 169.8 336.6 1.5 2 4.3 2.5 6.3 1 .4-.3.7-.6 1-1 24.9-34.8 170.4-207.1 169.9-336.6-.4-105.5-77.7-173.5-173.5-173.5zm0 321c-81.7 0-148-66.3-148-148s66.3-148 148-148 148 66.3 148 148-66.3 148-148 148z" fill="#fff"/></g></g></svg>