<?xml version="1.0" encoding="UTF-8" standalone="no"?><!DOCTYPE svg PUBLIC "-//W3C//DTD SVG 1.1//EN" "http://www.w3.org/Graphics/SVG/1.1/DTD/svg11.dtd"><svg width="100%" height="100%" viewBox="0 0 1707 537" version="1.1" xmlns="http://www.w3.org/2000/svg" xmlns:xlink="http://www.w3.org/1999/xlink" xml:space="preserve" xmlns:serif="http://www.serif.com/" style="fill-rule:evenodd;clip-rule:evenodd;stroke-linejoin:round;stroke-miterlimit:2;"><path d="M289.781,403.456c0,-73.5 -59.584,-133.085 -133.084,-133.085l-156.697,0l0,266.169l156.697,0c73.5,0 133.084,-59.584 133.084,-133.084" style="fill:#293425;fill-rule:nonzero;"/><path d="M0.002,137.295c-0,73.5 59.584,133.084 133.084,133.084l156.697,0l-0,-266.169l-156.697,0c-73.5,0 -133.084,59.585 -133.084,133.085" style="fill:#293425;fill-rule:nonzero;"/><path d="M390.328,536.538l78.247,-0c73.531,-0 125.473,-48.23 125.473,-116.025c0,-67.795 -51.942,-115.69 -125.473,-115.69l-78.247,0l-0,231.715Zm26.305,-23.948l0,-183.82l51.942,0c58.013,0 98.825,38.112 98.825,91.743c0,53.965 -40.812,92.077 -98.825,92.077l-51.942,0Zm391.93,-182.808l-0,-24.959l-166.285,0l-0,231.715l166.285,-0l-0,-24.959l-139.637,-0l-0,-80.614l125.807,0l0,-24.959l-125.807,0l-0,-76.224l139.637,0Zm50.253,206.756l26.305,-0l0,-188.544l143.685,188.544l26.313,-0l0,-231.715l-26.313,0l-0,188.544l-143.685,-188.544l-26.305,0l-0,231.715Zm321.091,-0l26.306,-0l-0,-206.756l77.912,0l0,-24.959l-182.131,0l0,24.959l77.913,0l0,206.756Zm310.974,-0l28.671,-0l-102.194,-231.715l-28.672,0l-102.195,231.715l28.664,-0l23.278,-52.619l129.178,-0l23.27,52.619Zm-141.653,-77.578l53.965,-121.761l53.623,121.761l-107.588,-0Zm230.36,52.619l0,-206.756l-26.313,0l-0,231.715l152.798,-0l-0,-24.959l-126.485,-0Z" style="fill:#293425;"/><path d="M465.543,239.809c53.965,-0 81.625,-30.018 81.625,-66.784c0,-40.812 -31.707,-56.666 -75.889,-67.118c-39.466,-9.448 -62.402,-17.877 -62.402,-41.824c0,-21.247 20.912,-40.136 49.584,-40.136c24.282,0 47.217,11.13 66.441,29.676l16.196,-20.57c-21.255,-19.566 -46.883,-33.053 -81.291,-33.053c-44.517,0 -77.57,29.006 -77.57,66.106c-0,40.136 29.341,54.643 75.889,65.437c40.47,9.441 62.394,19.224 62.394,43.84c0,20.913 -18.211,40.478 -53.965,40.478c-32.376,0 -56.324,-13.83 -75.889,-33.388l-16.531,20.57c23.278,22.936 53.296,36.766 91.408,36.766m126.477,-3.713l26.305,0l0,-231.714l-26.305,-0l-0,231.714Zm242.509,-231.714l0,101.19l-136.602,0l0,-101.19l-26.306,-0l0,231.714l26.306,0l0,-105.564l136.602,-0l0,105.564l26.306,0l-0,-231.714l-26.306,-0Zm268.138,231.714l28.671,0l-102.194,-231.714l-28.672,-0l-102.202,231.714l28.671,0l23.278,-52.611l129.178,0l23.27,52.611Zm-141.661,-77.57l53.965,-121.76l53.631,121.76l-107.596,0Z" style="fill:#293425;"/></svg>