<svg fill='#fff' version="1.1" id="Capa_1" xmlns="http://www.w3.org/2000/svg" xmlns:xlink="http://www.w3.org/1999/xlink" x="0px" y="0px" viewBox="0 0 512 512" style="enable-background:new 0 0 512 512;" xml:space="preserve">
<g>
	<path style="fill:none;stroke:#fff;stroke-width:15;stroke-linecap:round;stroke-linejoin:round;stroke-miterlimit:10;" d="&#10;&#9;&#9;M92.68,48.29C81.26,64.24,74.54,83.78,74.54,104.9v2.56c0,37.24,13.29,72.22,36.1,99.54c2.51,3,6.25,4.68,10.16,4.68h270.4&#10;&#9;&#9;c3.91,0,7.65-1.68,10.16-4.68c10.35-12.4,18.75-26.39,24.82-41.45"/>
	<path style="fill:none;stroke:#fff;stroke-width:15;stroke-linecap:round;stroke-linejoin:round;stroke-miterlimit:10;" d="&#10;&#9;&#9;M257.21,40.24l34.21-19.72c7.4-4.26,15.29-7.52,23.46-9.71c8.18-2.19,16.64-3.31,25.18-3.31c53.8,0,97.4,43.61,97.4,97.4v2.56&#10;&#9;&#9;c0,8.23-0.65,16.35-1.91,24.3"/>
	<path style="fill:none;stroke:#fff;stroke-width:15;stroke-linecap:round;stroke-linejoin:round;stroke-miterlimit:10;" d="&#10;&#9;&#9;M117.81,23.92c15.48-10.37,34.1-16.42,54.13-16.42c17.07,0,33.85,4.49,48.64,13.02l77.48,44.66"/>
	
		<polyline style="fill:none;stroke:#fff;stroke-width:15;stroke-linecap:round;stroke-linejoin:round;stroke-miterlimit:10;" points="&#10;&#9;&#9;338.76,284.06 338.76,262.36 242.98,262.36 &#9;"/>
	
		<polyline style="fill:none;stroke:#fff;stroke-width:15;stroke-linecap:round;stroke-linejoin:round;stroke-miterlimit:10;" points="&#10;&#9;&#9;207.98,262.36 173.24,262.36 173.24,319.95 &#9;"/>
	<path style="fill:none;stroke:#fff;stroke-width:15;stroke-linecap:round;stroke-linejoin:round;stroke-miterlimit:10;" d="&#10;&#9;&#9;M173.265,379.848c-0.018-0.939-0.027-1.879-0.027-2.82v-23.606"/>
	<path style="fill:none;stroke:#fff;stroke-width:15;stroke-linecap:round;stroke-linejoin:round;stroke-miterlimit:10;" d="&#10;&#9;&#9;M186.22,437.585c-3.586-7.978-6.468-16.284-8.597-24.824"/>
	<path style="fill:none;stroke:#fff;stroke-width:15;stroke-linecap:round;stroke-linejoin:round;stroke-miterlimit:10;" d="&#10;&#9;&#9;M323.8,441.81c-10.969,22.479-27.624,42.136-48.808,56.768l0,0c-11.43,7.895-26.553,7.895-37.983,0l0,0&#10;&#9;&#9;c-12.675-8.755-23.729-19.309-32.913-31.19"/>
	<path style="fill:none;stroke:#fff;stroke-width:15;stroke-linecap:round;stroke-linejoin:round;stroke-miterlimit:10;" d="&#10;&#9;&#9;M338.758,378.085c-0.068,9.549-1.059,18.974-2.913,28.162"/>
	
		<line style="fill:none;stroke:#fff;stroke-width:15;stroke-linecap:round;stroke-linejoin:round;stroke-miterlimit:10;" x1="338.762" y1="318.939" x2="338.762" y2="345.495"/>
	<path style="fill:none;stroke:#fff;stroke-width:15;stroke-linecap:round;stroke-linejoin:round;stroke-miterlimit:10;" d="&#10;&#9;&#9;M341.325,315.83l-163.794,34.687c-7.861,1.665-15.584-3.358-17.249-11.22v0c-1.665-7.861,3.358-15.584,11.22-17.249l163.794-34.687&#10;&#9;&#9;c7.861-1.665,15.584,3.358,17.249,11.22v0C354.21,306.443,349.187,314.165,341.325,315.83z"/>
	<path style="fill:none;stroke:#fff;stroke-width:15;stroke-linecap:round;stroke-linejoin:round;stroke-miterlimit:10;" d="&#10;&#9;&#9;M242.1,396.85l99.23-21.01c6.85-1.45,11.54-7.5,11.54-14.23c0-0.99-0.11-2.01-0.32-3.02c-1.67-7.86-9.39-12.89-17.25-11.22&#10;&#9;&#9;l-163.8,34.68c-6.85,1.45-11.54,7.5-11.54,14.23c0,0.99,0.11,2.01,0.32,3.02c1.67,7.86,9.39,12.89,17.25,11.22l30.33-6.42"/>
	<path style="fill:none;stroke:#fff;stroke-width:15;stroke-linecap:round;stroke-linejoin:round;stroke-miterlimit:10;" d="&#10;&#9;&#9;M337.045,436.749l-142.318,30.139c-7.861,1.665-15.584-3.358-17.249-11.22l0,0c-1.665-7.861,3.358-15.584,11.22-17.249&#10;&#9;&#9;l142.318-30.139c7.861-1.665,15.584,3.358,17.249,11.22l0,0C349.929,427.362,344.906,435.084,337.045,436.749z"/>
	
		<line style="fill:none;stroke:#fff;stroke-width:15;stroke-linecap:round;stroke-linejoin:round;stroke-miterlimit:10;" x1="338.762" y1="262.359" x2="373.811" y2="214.767"/>
	
		<line style="fill:none;stroke:#fff;stroke-width:15;stroke-linecap:round;stroke-linejoin:round;stroke-miterlimit:10;" x1="136.68" y1="212.717" x2="173.238" y2="262.359"/>
</g>
<g>
</g>
<g>
</g>
<g>
</g>
<g>
</g>
<g>
</g>
<g>
</g>
<g>
</g>
<g>
</g>
<g>
</g>
<g>
</g>
<g>
</g>
<g>
</g>
<g>
</g>
<g>
</g>
<g>
</g>
</svg>