<svg width="4rem" height="100%" viewBox="0 0 178 51" fill="none" xmlns="http://www.w3.org/2000/svg">
<g clip-path="url(#clip0_41_391)">
<path d="M96.4101 50.7698C89.7901 50.7698 84.8701 50.6298 83.0601 50.5698C35.2501 48.9598 8.85006 44.1098 2.34006 35.7298C0.120058 32.8898 -0.559942 28.8798 0.470058 24.7198C1.45006 20.7698 3.90006 17.2898 6.79006 15.6498V12.4798C6.79006 7.72976 8.88006 3.31977 11.8801 1.73977C12.6901 1.31977 13.5301 1.09977 14.3801 1.09977C15.4201 1.09977 16.4601 1.43977 17.3901 2.06977C18.7801 3.02977 20.4301 5.08977 21.8001 7.52977C22.8301 5.33977 24.3301 3.59977 26.0901 2.61977C27.1401 2.02977 28.2401 1.73977 29.3501 1.73977C30.5401 1.73977 31.6801 2.07977 32.7501 2.73977C34.6101 3.88977 36.7901 6.41977 38.5401 9.38977C39.6901 6.26977 41.6701 3.70977 44.0901 2.29977C45.4601 1.49977 46.8901 1.09977 48.3401 1.09977C49.7101 1.09977 51.0401 1.45977 52.2901 2.16977C54.8301 3.60977 57.8701 6.98977 60.1401 10.8098C62.3501 4.41977 68.3901 0.00976562 75.3401 0.00976562C81.1501 0.00976562 86.4301 3.10977 89.2801 8.05977C92.1401 3.10977 97.4101 0.00976562 103.22 0.00976562C110.17 0.00976562 116.2 4.41977 118.42 10.8098C120.69 6.98977 123.72 3.61977 126.27 2.16977C127.52 1.45977 128.85 1.09977 130.22 1.09977C131.67 1.09977 133.1 1.49977 134.47 2.29977C136.98 3.75977 139 6.42977 140.13 9.67977C141.87 6.78977 144.01 4.31977 145.82 3.19977C146.89 2.53977 148.04 2.19977 149.22 2.19977C150.33 2.19977 151.43 2.49977 152.48 3.07977C154.18 4.02977 155.65 5.68977 156.67 7.78977C158.05 5.24977 159.73 3.07977 161.16 2.07977C162.09 1.42977 163.13 1.08977 164.18 1.08977C165.01 1.08977 165.84 1.29977 166.63 1.70977C169.65 3.27977 171.76 7.76977 171.76 12.6298V15.1998C173.16 15.8298 174.51 17.2398 175.61 19.2798C178.07 23.8198 178.88 30.6498 175.17 35.6798C165.5 48.7998 121.67 50.7598 96.4101 50.7598V50.7698ZM6.79006 21.3098C5.84006 22.5198 5.08006 24.0798 4.67006 25.7698C3.96006 28.6298 4.35006 31.2898 5.74006 33.0798C11.1001 39.9698 39.3301 44.7698 83.2001 46.2498C87.8101 46.4098 92.5101 46.4798 97.1701 46.4798C136.46 46.4798 165.71 41.2398 171.69 33.1198C174.27 29.6198 173.61 24.6798 171.8 21.3498C171.79 21.3198 171.77 21.2898 171.76 21.2698V22.9498C171.76 26.4198 169.29 29.2498 166.25 29.2498H159.44C158.89 29.2498 158.34 29.1498 157.8 28.9498C156.85 31.5098 154.51 33.2598 151.84 33.2598H143.2C142.17 33.2598 141.16 32.9898 140.26 32.4998C138.98 34.9798 136.42 36.5698 133.55 36.5698H122.57C121.29 36.5698 120.05 36.2398 118.94 35.6298C117.81 39.3998 114.31 42.0898 110.25 42.0898H96.2001C93.4901 42.0898 91.0001 40.9098 89.2801 38.8798C87.5701 40.9098 85.0701 42.0898 82.3601 42.0898H68.3101C64.2501 42.0898 60.7601 39.4098 59.6201 35.6298C58.5101 36.2398 57.2601 36.5698 55.9901 36.5698H45.0101C42.3001 36.5698 39.8201 35.0998 38.4801 32.7998C37.5301 33.3598 36.4601 33.6598 35.3601 33.6598H26.7201C23.7601 33.6598 21.2601 31.5398 20.5301 28.6198C20.0701 28.7598 19.6001 28.8398 19.1201 28.8398H12.3101C9.27006 28.8398 6.80006 26.0498 6.80006 22.6198V21.3198L6.79006 21.3098ZM103.22 4.31977C96.7201 4.31977 91.4401 9.60977 91.4401 16.0998V32.9998C91.4401 35.6198 93.5701 37.7498 96.1901 37.7498H110.24C112.86 37.7498 115 35.6198 115 32.9998V16.0998C115 9.59977 109.71 4.31977 103.22 4.31977ZM75.3301 4.31977C68.8301 4.31977 63.5501 9.60977 63.5501 16.0998V32.9998C63.5501 35.6198 65.6801 37.7498 68.3001 37.7498H82.3501C84.9701 37.7498 87.1001 35.6198 87.1001 32.9998V16.0998C87.1001 9.59977 81.8101 4.31977 75.3201 4.31977H75.3301ZM130.21 5.42977C129.6 5.42977 128.99 5.59977 128.4 5.92977C124.99 7.85977 119.33 15.8998 119.33 21.0398V28.9998C119.33 30.7898 120.78 32.2398 122.57 32.2398H133.55C135.34 32.2398 136.79 30.7898 136.79 28.9998V15.5198C136.79 11.4198 134.98 7.59977 132.29 6.02977C131.6 5.61977 130.9 5.41977 130.21 5.41977V5.42977ZM48.3401 5.42977C47.6601 5.42977 46.9601 5.63977 46.2601 6.03977C43.5701 7.60977 41.7601 11.4198 41.7601 15.5298V29.0098C41.7601 30.7998 43.2101 32.2498 45.0001 32.2498H55.9801C57.7701 32.2498 59.2201 30.7998 59.2201 29.0098V21.0498C59.2201 15.9098 53.5601 7.86977 50.1501 5.93977C49.5601 5.60977 48.9501 5.43977 48.3401 5.43977V5.42977ZM149.21 6.52977C148.83 6.52977 148.46 6.64977 148.08 6.87977C145.46 8.49977 141.11 15.2798 141.11 19.6298V26.4598C141.11 27.8298 142.05 28.9398 143.2 28.9398H151.84C152.99 28.9398 153.93 27.8298 153.93 26.4598V14.8898C153.93 11.3898 152.43 8.01977 150.37 6.85977C149.97 6.63977 149.59 6.52977 149.22 6.52977H149.21ZM29.3401 6.93977C28.9701 6.93977 28.5901 7.04977 28.1901 7.26977C26.1301 8.41977 24.6301 11.7998 24.6301 15.2998V25.9998C24.6301 27.3698 25.5701 28.4798 26.7201 28.4798H35.3601C36.5101 28.4798 37.4501 27.3698 37.4501 25.9998V20.0398C37.4501 15.6898 33.1001 8.91977 30.4801 7.28977C30.1001 7.04977 29.7301 6.93977 29.3501 6.93977H29.3401ZM164.18 5.42977C164.01 5.42977 163.83 5.49977 163.63 5.63977C161.81 6.90977 158.25 12.7798 158.25 16.8698V22.9598C158.25 24.0698 158.89 24.9298 159.44 24.9298H166.25C166.8 24.9298 167.44 24.0698 167.44 22.9598V12.6498C167.44 8.76976 165.8 6.16977 164.63 5.56977C164.46 5.47977 164.32 5.43977 164.18 5.43977V5.42977ZM14.3701 5.42977C14.2201 5.42977 14.0701 5.47977 13.8901 5.56977C12.7401 6.17977 11.1101 8.71976 11.1101 12.4798V22.6098C11.1101 23.6798 11.7501 24.5098 12.3001 24.5098H19.1101C19.6601 24.5098 20.3001 23.6798 20.3001 22.6098V16.6298C20.3001 12.8598 16.9501 7.01977 14.9301 5.63977C14.7301 5.49977 14.5401 5.42977 14.3701 5.42977Z" fill="#877663"></path>
</g>
<defs>
<clipPath id="clip0_41_391">
<rect width="177.7" height="50.77" fill="#877663"></rect>
</clipPath>
</defs>
</svg>