<svg width="auto" height="3rem" viewBox="0 0 176 89" fill="#877663" xmlns="http://www.w3.org/2000/svg">
<path d="M174.41 32.3398L164.24 32.1498C164.69 29.7598 164.99 27.6198 165.1 25.8498C165.4 20.5898 164.27 10.1198 158.11 4.2398C154.64 0.929799 150.12 -0.460201 144.69 0.109799C141.34 0.459799 138.86 1.7698 136.45 3.0398C133.51 4.5898 130.73 6.0498 126.31 5.9698C126.31 5.9698 126.3 5.9698 126.29 5.9698C126.26 5.9698 126.23 5.9898 126.19 5.9898C126.16 5.9898 126.13 5.9698 126.09 5.9698C126.09 5.9698 126.08 5.9698 126.07 5.9698C121.65 6.0498 119.03 4.5998 116.23 3.0598C113.91 1.7798 111.5 0.459799 108.14 0.109799C102.7 -0.460201 98.1904 0.929799 94.7204 4.2398C91.6804 7.1398 89.8704 11.1598 88.8404 15.1198C87.8204 11.1598 86.0004 7.1398 82.9604 4.2398C79.4904 0.929799 74.9704 -0.460201 69.5404 0.109799C66.1904 0.459799 63.7104 1.7698 61.3004 3.0398C58.3604 4.5898 55.5804 6.0398 51.1604 5.9698C51.1604 5.9698 51.1504 5.9698 51.1404 5.9698C51.1104 5.9698 51.0804 5.9898 51.0404 5.9898C51.0104 5.9898 50.9804 5.9698 50.9404 5.9698C50.9404 5.9698 50.9304 5.9698 50.9204 5.9698C46.5104 6.0498 43.8804 4.5998 41.0804 3.0598C38.7604 1.7798 36.3504 0.459799 32.9904 0.109799C27.5504 -0.460201 23.0404 0.929799 19.5704 4.2398C13.4104 10.1198 12.2704 20.5898 12.5804 25.8498C12.6404 26.8998 12.7704 28.0898 12.9704 29.3798L1.21042 29.1598C0.580418 29.1498 0.040418 29.6598 0.030418 30.2998C0.020418 30.9398 0.530418 31.4698 1.17042 31.4798L13.3604 31.6998C15.4904 43.3298 21.3004 61.2898 24.6704 71.7098C25.6404 74.6998 26.4004 77.0598 26.8704 78.5998C28.7204 84.7398 31.7804 88.0698 35.5304 88.0698C35.7404 88.0698 35.9504 88.0598 36.1704 88.0398C41.4304 87.5298 42.3004 83.2298 42.8804 80.3898C42.9304 80.1398 42.9804 79.9098 43.0304 79.6698C43.1504 79.1198 43.2604 78.0898 43.4304 76.5298C44.0304 70.9598 45.8404 54.0298 51.1804 53.9298C51.2204 53.9298 51.2504 53.9098 51.2904 53.9098C51.3304 53.9098 51.3604 53.9298 51.4004 53.9298C56.7504 54.0298 58.5604 70.9698 59.1504 76.5398C59.3204 78.0998 59.4304 79.1298 59.5504 79.6798C59.6004 79.9098 59.6504 80.1498 59.7004 80.3898C60.2804 83.2298 61.1504 87.5298 66.4104 88.0398C66.6204 88.0598 66.8404 88.0698 67.0504 88.0698C70.8004 88.0698 73.8604 84.7398 75.7104 78.5998C76.1704 77.0598 76.9404 74.6998 77.9104 71.7098C81.1204 61.8098 86.5304 45.0998 88.8804 33.4798C91.2304 45.0998 96.6404 61.8098 99.8504 71.7098C100.82 74.6998 101.58 77.0598 102.05 78.5998C103.9 84.7398 106.96 88.0698 110.71 88.0698C110.92 88.0698 111.13 88.0598 111.35 88.0398C116.61 87.5298 117.48 83.2298 118.06 80.3898C118.11 80.1398 118.16 79.9098 118.21 79.6698C118.33 79.1198 118.44 78.0898 118.61 76.5298C119.21 70.9598 121.02 54.0298 126.36 53.9298C126.4 53.9298 126.43 53.9098 126.47 53.9098C126.51 53.9098 126.54 53.9298 126.58 53.9298C131.93 54.0298 133.74 70.9698 134.33 76.5298C134.5 78.0898 134.61 79.1198 134.72 79.6698C134.77 79.8998 134.82 80.1398 134.87 80.3798C135.45 83.2198 136.32 87.5198 141.58 88.0298C141.79 88.0498 142.01 88.0598 142.22 88.0598C145.97 88.0598 149.03 84.7298 150.88 78.5898C151.34 77.0498 152.11 74.6898 153.08 71.6998C156.2 62.0698 161.4 46.0098 163.85 34.4498L174.44 34.6398C174.44 34.6398 174.45 34.6398 174.46 34.6398C175.09 34.6398 175.61 34.1298 175.62 33.4998C175.63 32.8598 175.12 32.3298 174.48 32.3198L174.41 32.3398ZM96.3104 5.9298C99.2604 3.1098 103.16 1.9398 107.89 2.4298C110.79 2.7398 112.89 3.8898 115.11 5.1098C118.05 6.7298 121.09 8.3898 126.11 8.3098C126.14 8.3098 126.16 8.2998 126.19 8.2898C126.22 8.2898 126.24 8.3098 126.27 8.3098C131.28 8.3998 134.47 6.7298 137.54 5.1098C139.85 3.8898 142.04 2.7398 144.94 2.4398C149.67 1.9398 153.56 3.1198 156.52 5.9398C162.07 11.2298 163.08 20.8698 162.8 25.7298C162.7 27.4998 162.38 29.6798 161.91 32.1198L138.86 31.6998V26.9798C138.86 24.1998 136.6 21.9398 133.82 21.9398H122.62C119.84 21.9398 117.58 24.1998 117.58 26.9798V31.3098L90.7004 30.8198C90.3604 28.9098 90.1404 27.1898 90.0504 25.7398C89.7704 20.8798 90.7804 11.2398 96.3304 5.9498L96.3104 5.9298ZM136.52 26.9698V36.2798C136.52 37.7798 135.3 38.9898 133.81 38.9898H122.61C121.11 38.9898 119.9 37.7698 119.9 36.2798V26.9698C119.9 25.4698 121.12 24.2598 122.61 24.2598H133.81C135.31 24.2598 136.52 25.4798 136.52 26.9698ZM14.8804 25.7198C14.6004 20.8598 15.6104 11.2198 21.1604 5.9298C24.1204 3.1098 28.0104 1.9398 32.7404 2.4298C35.6404 2.7398 37.7404 3.8898 39.9604 5.1098C42.9004 6.7298 45.9204 8.3898 50.9604 8.3098C50.9904 8.3098 51.0104 8.2998 51.0404 8.2898C51.0704 8.2898 51.0904 8.3098 51.1204 8.3098C56.1304 8.3998 59.3104 6.7298 62.3904 5.1098C64.7004 3.8898 66.8904 2.7398 69.7904 2.4398C74.5204 1.9398 78.4104 3.1198 81.3704 5.9398C86.9204 11.2298 87.9304 20.8698 87.6504 25.7298C87.5704 27.1598 87.3404 28.8598 87.0104 30.7398L60.0904 30.2498V26.9698C60.0904 24.1898 57.8304 21.9298 55.0504 21.9298H43.8504C41.0704 21.9298 38.8104 24.1898 38.8104 26.9698V29.8598L15.3204 29.4298C15.1104 28.0698 14.9604 26.8198 14.9004 25.7298L14.8804 25.7198ZM57.7504 26.9698V36.2798C57.7504 37.7798 56.5304 38.9898 55.0404 38.9898H43.8404C42.3404 38.9898 41.1304 37.7698 41.1304 36.2798V26.9698C41.1304 25.4698 42.3504 24.2598 43.8404 24.2598H55.0404C56.5404 24.2598 57.7504 25.4798 57.7504 26.9698ZM75.6504 71.0098C74.6804 74.0098 73.9104 76.3798 73.4404 77.9498C72.7004 80.4198 70.5504 86.1298 66.5904 85.7398C63.2904 85.4198 62.6004 83.2298 61.9304 79.9398C61.8804 79.6898 61.8304 79.4398 61.7804 79.1998C61.6904 78.7798 61.5704 77.6298 61.4204 76.3098C60.5704 68.3398 58.8004 51.7698 51.4004 51.6298C51.3504 51.6298 51.3004 51.6498 51.2504 51.6598C51.2004 51.6598 51.1504 51.6298 51.1004 51.6298C43.7004 51.7698 41.9304 68.3398 41.0804 76.3098C40.9404 77.6398 40.8204 78.7798 40.7204 79.2098C40.6704 79.4498 40.6204 79.6998 40.5704 79.9498C39.9004 83.2398 39.2104 85.4298 35.9104 85.7498C31.9804 86.1398 29.8104 80.4298 29.0604 77.9598C28.5904 76.3898 27.8204 74.0198 26.8504 71.0198C23.5304 60.7798 17.8404 43.1898 15.6904 31.7698L38.7804 32.1898V36.2898C38.7804 39.0698 41.0404 41.3298 43.8204 41.3298H55.0204C57.8004 41.3298 60.0604 39.0698 60.0604 36.2898V32.5798L86.5404 33.0598C84.2304 44.4798 78.8304 61.1498 75.6404 71.0098H75.6504ZM150.8 71.0098C149.83 74.0098 149.06 76.3798 148.59 77.9498C147.85 80.4198 145.71 86.1298 141.74 85.7398C138.44 85.4198 137.75 83.2298 137.08 79.9398C137.03 79.6898 136.98 79.4398 136.93 79.1998C136.84 78.7798 136.72 77.6298 136.57 76.3098C135.72 68.3398 133.95 51.7698 126.55 51.6298C126.5 51.6298 126.45 51.6498 126.4 51.6598C126.35 51.6598 126.3 51.6298 126.25 51.6298C118.85 51.7698 117.08 68.3398 116.23 76.3098C116.09 77.6398 115.97 78.7798 115.87 79.2098C115.82 79.4498 115.77 79.6998 115.72 79.9498C115.05 83.2398 114.36 85.4298 111.06 85.7498C107.13 86.1398 104.96 80.4298 104.21 77.9598C103.74 76.3898 102.97 74.0198 102 71.0198C98.8104 61.1798 93.4404 44.5698 91.1104 33.1498L117.55 33.6298V36.2798C117.55 39.0598 119.81 41.3198 122.59 41.3198H133.79C136.57 41.3198 138.83 39.0598 138.83 36.2798V34.0198L161.4 34.4298C158.95 45.7798 153.85 61.5398 150.78 71.0098H150.8Z" fill="#877663" stroke="currentColor"></path>
</svg>