<svg width="100%" height="100%" viewBox="0 0 2067 867" version="1.1" xmlns="http://www.w3.org/2000/svg" xmlns:xlink="http://www.w3.org/1999/xlink" xml:space="preserve" xmlns:serif="http://www.serif.com/" style="fill-rule:evenodd;clip-rule:evenodd;stroke-linejoin:round;stroke-miterlimit:2;">
<path fill="currentColor" d="M1066.67,741.375c-0,34.042 -0,58.625 133.333,58.625c100,0 100,-26.542 100,-66.667c0,-200 -100.375,-200 -133.333,-200c-72.75,0 -100,110.708 -100,133.334c-0,18.417 -14.917,33.333 -33.334,33.333c-18.416,0 -33.333,-14.916 -33.333,-33.333c0,-22.626 -27.25,-133.334 -100,-133.334c-32.958,0 -133.333,0 -133.333,200c-0,40.125 -0,66.667 100,66.667c133.333,0 133.333,-24.583 133.333,-58.625c0,-18.417 14.917,-33.333 33.333,-33.333c18.417,-0 33.334,14.916 33.334,33.333Zm133.333,125.292c-76.459,-0 -133.458,-7.459 -166.667,-36.417c-33.208,28.958 -90.208,36.417 -166.666,36.417c-65.333,-0 -108.125,-11.834 -134.584,-37.25c-28.25,-27.167 -32.083,-63.792 -32.083,-96.084c-0,-232.041 125.292,-266.666 200,-266.666c65.416,-0 107.709,41.541 133.333,87.833c25.625,-46.292 67.917,-87.833 133.334,-87.833c74.708,-0 200,34.625 200,266.666c-0,32.292 -3.833,68.917 -32.083,96.084c-26.459,25.416 -69.251,37.25 -134.584,37.25Z"  fill-rule="nonzero"/>
<path fill="currentColor" d="M1466.67,833.333c-54.75,0 -111.334,0 -154.084,-18.833c-16.875,-7.417 -24.5,-27.083 -17.083,-43.917c7.416,-16.875 27.083,-24.499 43.917,-17.083c29.916,13.167 79.416,13.167 127.25,13.167c63.458,-0 66.666,-25.709 66.666,-100c0,-52.209 -25.166,-166.667 -100,-166.667c-31.833,0 -64.166,43.417 -86.458,116.125c-5.417,17.583 -24.042,27.458 -41.667,22.084c-17.583,-5.417 -27.458,-24.042 -22.083,-41.667c32.75,-106.75 84.708,-163.209 150.208,-163.209c56.292,0 103.875,33.167 134,93.417c24.083,48.208 32.667,103.875 32.667,139.917c0,36.625 0,74.541 -16,106.583c-19.958,39.875 -59.417,60.083 -117.333,60.083Z"  fill-rule="nonzero"/>
<path fill="currentColor" d="M600,833.333c-57.916,0 -97.375,-20.208 -117.333,-60.083c-16,-32.042 -16,-69.958 -16,-106.583c-0,-36.042 8.583,-91.709 32.667,-139.917c30.125,-60.25 77.708,-93.417 133.999,-93.417c65.5,0 117.458,56.459 150.209,163.209c5.375,17.625 -4.5,36.25 -22.084,41.667c-17.625,5.374 -36.249,-4.501 -41.666,-22.084c-22.292,-72.708 -54.626,-116.125 -86.459,-116.125c-74.833,0 -100,114.458 -100,166.667c0,74.291 3.209,100 66.667,100c47.833,-0 97.334,-0 127.25,-13.167c16.834,-7.416 36.5,0.208 43.917,17.083c7.417,16.834 -0.209,36.5 -17.084,43.917c-42.75,18.833 -99.333,18.833 -154.083,18.833Z"  fill-rule="nonzero"/>
<path fill="currentColor" d="M1633.33,766.667c-27.166,-0 -37.708,-0.625 -78.958,-13.542c-17.583,-5.5 -27.333,-24.167 -21.833,-41.75c5.499,-17.583 24.167,-27.333 41.75,-21.833c33.458,10.458 37.375,10.458 59.041,10.458c63.459,0 66.667,-25.709 66.667,-100c0,-60.375 -29.75,-133.333 -66.667,-133.333c-9.208,-0 -35.958,17.125 -71.416,82c-8.834,16.125 -29.084,22.083 -45.25,13.25c-16.126,-8.834 -22.084,-29.084 -13.25,-45.25c42.333,-77.417 86.041,-116.667 129.916,-116.667c90.959,0 133.334,119.333 133.334,200c-0,36.625 -0,74.542 -16.001,106.583c-19.957,39.875 -59.416,60.084 -117.333,60.084Z"  fill-rule="nonzero"/>
<path fill="currentColor" d="M433.333,766.667c-57.916,-0 -97.379,-20.209 -117.333,-60.084c-16,-32.041 -16,-69.958 -16,-106.583c0,-80.667 42.371,-200 133.333,-200c43.875,-0 87.584,39.25 129.917,116.667c8.834,16.166 2.875,36.416 -13.25,45.25c-16.166,8.833 -36.417,2.875 -45.25,-13.25c-35.459,-64.875 -62.208,-82 -71.417,-82c-36.921,-0 -66.666,72.958 -66.666,133.333c-0,74.291 3.208,100 66.666,100c21.667,-0 25.583,-0 59.042,-10.458c17.583,-5.5 36.291,4.25 41.75,21.833c5.5,17.583 -4.25,36.25 -21.834,41.75c-41.249,12.917 -51.791,13.542 -78.958,13.542Z"  fill-rule="nonzero"/>
<path fill="currentColor" d="M1800,700c-38.25,0 -66.166,-9.333 -82.833,-17.167c-16.667,-7.833 -23.834,-27.666 -16,-44.333c7.833,-16.667 27.666,-23.833 44.333,-16c10.541,4.916 28.542,10.833 54.5,10.833c16.042,0 33.333,-31.291 33.333,-100c0,-68.708 -17.291,-100 -33.333,-100c-17.084,0 -40.208,30.709 -57.5,76.459c-6.5,17.208 -25.75,25.875 -42.959,19.375c-17.208,-6.501 -25.916,-25.751 -19.374,-42.959c29.542,-78.208 71,-119.541 119.833,-119.541c23.458,-0 100,12 100,166.666c0,154.667 -76.542,166.667 -100,166.667Z"  fill-rule="nonzero"/>
<path fill="currentColor" d="M266.667,700c-23.458,0 -100,-12 -100,-166.667c-0,-154.666 76.542,-166.666 100,-166.666c48.833,-0 90.287,41.333 119.833,119.541c6.542,17.208 -2.167,36.458 -19.375,42.959c-17.208,6.5 -36.458,-2.167 -42.958,-19.375c-17.296,-45.75 -40.417,-76.459 -57.5,-76.459c-16.046,0 -33.334,31.292 -33.334,100c0,68.709 17.288,100 33.334,100c25.958,0 43.958,-5.917 54.5,-10.833c16.667,-7.833 36.5,-0.667 44.333,16c7.834,16.667 0.662,36.5 -16.005,44.333c-16.666,7.834 -44.583,17.167 -82.828,17.167Z"  fill-rule="nonzero"/>
<path fill="currentColor" d="M1933.33,633.333c-28.208,0 -54.667,-2.583 -78.666,-7.75c-18,-3.833 -29.458,-21.583 -25.584,-39.583c3.833,-18 21.583,-29.459 39.584,-25.583c19,4.083 40.291,6.166 63.291,6.25c11.084,-5.625 34.709,-47.417 34.709,-100c-0,-41.334 -15.667,-64.5 -31.125,-66.542c-4.542,2.458 -22.167,14 -57.25,60.583c-11.084,14.709 -31.958,17.667 -46.667,6.584c-14.708,-11.084 -17.666,-31.959 -6.583,-46.667c57.874,-76.917 87.249,-87.292 108.291,-87.292c49.708,0 100,45.792 100,133.334c0,78.833 -41.083,166.666 -100,166.666Z"  fill-rule="nonzero"/>
<path fill="currentColor" d="M133.333,633.333c-58.916,0 -100,-87.833 -100,-166.666c0,-87.542 50.292,-133.334 100,-133.334c21.042,0 50.417,10.375 108.292,87.292c11.079,14.708 8.125,35.583 -6.588,46.667c-14.708,11.083 -35.579,8.125 -46.662,-6.584c-35.083,-46.583 -52.708,-58.125 -57.25,-60.583c-15.458,2.042 -31.125,25.208 -31.125,66.542c0,52.583 23.625,94.375 34.708,100c23,-0.084 44.292,-2.167 63.292,-6.25c18.042,-3.876 35.75,7.583 39.583,25.583c3.875,18 -7.583,35.75 -25.588,39.583c-23.953,5.167 -50.453,7.75 -78.662,7.75Z"  fill-rule="nonzero"/>
<path fill="currentColor" d="M1973.62,418.667c-4.708,-0 -9.542,-1 -14.125,-3.167c-16.667,-7.833 -23.833,-27.667 -16,-44.334c17,-36.166 56.5,-131.749 56.5,-237.833c0,-66.666 -32.375,-66.666 -66.667,-66.666c-21.416,-0 -56.791,19.458 -91,38.333c-52.499,28.875 -112.041,61.667 -175.666,61.667c-65.167,-0 -121.667,-7.583 -181.501,-15.584c-65.249,-8.708 -132.749,-17.75 -218.499,-17.75c-44.875,0 -83.958,26.375 -121.792,51.875c-36.708,24.75 -71.375,48.125 -111.542,48.125c-40.166,0 -74.833,-23.375 -111.541,-48.125c-37.834,-25.5 -76.917,-51.875 -121.792,-51.875c-85.75,0 -153.25,9.042 -218.5,17.75c-59.834,8.001 -116.334,15.584 -181.5,15.584c-63.625,-0 -123.167,-32.792 -175.666,-61.667c-34.209,-18.875 -69.584,-38.333 -91.001,-38.333c-34.291,-0 -66.666,-0 -66.666,66.666c-0,106.084 39.5,201.667 56.5,237.833c7.833,16.667 0.666,36.501 -16,44.334c-16.667,7.833 -36.5,0.667 -44.334,-16c-18.916,-40.208 -62.833,-146.666 -62.833,-266.167c-0,-55.666 18.041,-94.708 53.667,-116.083c28.75,-17.25 60.625,-17.25 79.666,-17.25c38.542,-0 79.626,22.625 123.167,46.584c45.458,25.041 97,53.416 143.5,53.416c60.75,-0 115.084,-7.292 172.666,-15c67.418,-9 137.126,-18.333 227.334,-18.333c65.25,-0 117.25,35.083 159.041,63.25c28.042,18.875 54.501,36.75 74.292,36.75c19.792,-0 46.251,-17.875 74.292,-36.75c41.792,-28.167 93.792,-63.25 159.042,-63.25c90.208,-0 159.916,9.333 227.333,18.333c57.583,7.708 111.916,15 172.667,15c46.499,-0 98.041,-28.375 143.499,-53.416c43.542,-23.959 84.626,-46.584 123.167,-46.584c19.042,-0 50.917,-0 79.667,17.25c35.625,21.375 53.667,60.417 53.667,116.083c-0,119.501 -43.917,225.959 -62.834,266.167c-5.666,12.083 -17.667,19.167 -30.208,19.167Z"  fill-rule="nonzero"/>
<path fill="currentColor" d="M1033.33,774.709c-18.416,-0 -33.333,-14.917 -33.333,-33.334l-0,-74.708c-0,-18.417 14.917,-33.334 33.333,-33.334c18.417,0 33.334,14.917 33.334,33.334l-0,74.708c-0,18.417 -14.917,33.334 -33.334,33.334Z"  fill-rule="nonzero"></path>
</svg>