<svg enable-background="new 0 0 512 512" viewBox="0 0 512 512" xmlns="http://www.w3.org/2000/svg"><g id="Braces"><g id="XMLID_773_"><g id="XMLID_781_"><g id="XMLID_783_"><path id="XMLID_394_" d="m180.519 336.14c-7.491 0-12.483-5.677-14.838-16.873-1.461-6.95-2.098-16.179-2.771-25.692-1.073-15.158-3.067-43.574-10.8-43.574-.025 0-.05 0-.075 0-7.405 1-8.574 29.363-9.136 43.273-.385 9.532-.748 18.656-2.009 25.629-2.054 11.357-6.972 17.177-14.617 17.177-21.157 0-39.476-31.875-51.118-58.64-12.734-29.274-21.977-62.703-21.977-79.506 0-34.323 27.923-62.239 62.246-62.239 12.63 0 24.929 3.86 35.26 10.967 10.331-7.107 22.63-10.961 35.26-10.961 34.323 0 62.246 27.924 62.246 62.247 0 17.032-8.229 51.091-19.142 79.224-15.178 39.127-31.506 58.968-48.529 58.968zm-28.358-101.657c7.47 0 17.173 3.953 22.084 22.226 2.822 10.498 3.738 23.451 4.625 35.977.644 9.093 1.583 22.357 3.483 27.177 7.116-2.03 18.991-15.512 31.778-48.478 11.304-29.142 18.059-60.223 18.059-73.437 0-25.5-20.746-46.246-46.246-46.246-11.013 0-21.687 3.948-30.056 11.116-2.995 2.565-7.413 2.566-10.408 0-8.37-7.169-19.043-11.117-30.056-11.117-25.5 0-46.246 20.746-46.246 46.246 0 12.618 7.724 43.425 20.649 73.139 13.546 31.143 26.626 46.475 34.493 48.752 1.703-4.938 2.23-17.997 2.593-26.97.499-12.345 1.014-25.109 3.438-35.535 4.317-18.569 13.97-22.672 21.308-22.845.165-.002.333-.005.502-.005z"/></g><g id="XMLID_782_"><path id="XMLID_391_" d="m390.361 336.14c-7.491 0-12.483-5.677-14.839-16.874-1.461-6.949-2.098-16.178-2.771-25.691-1.073-15.159-3.067-43.574-10.8-43.574-.025 0-.05 0-.075 0-7.405 1-8.574 29.363-9.136 43.274-.385 9.531-.749 18.656-2.01 25.628-2.054 11.357-6.972 17.177-14.616 17.177-21.156 0-39.476-31.874-51.118-58.64-12.734-29.275-21.978-62.703-21.978-79.506 0-34.323 27.924-62.239 62.246-62.239 12.63 0 24.929 3.86 35.261 10.968 10.331-7.107 22.63-10.962 35.26-10.962 34.322 0 62.246 27.924 62.246 62.247 0 17.032-8.229 51.091-19.143 79.224-15.176 39.127-31.503 58.968-48.527 58.968zm-28.358-101.657c7.47 0 17.173 3.953 22.084 22.226 2.821 10.497 3.738 23.451 4.625 35.978.644 9.092 1.582 22.357 3.482 27.177 7.116-2.03 18.991-15.512 31.778-48.478 11.305-29.142 18.06-60.223 18.06-73.437 0-25.5-20.746-46.246-46.246-46.246-11.013 0-21.687 3.948-30.056 11.116-2.994 2.565-7.412 2.566-10.408 0-8.37-7.169-19.044-11.117-30.057-11.117-25.5 0-46.246 20.746-46.246 46.246 0 12.618 7.724 43.425 20.649 73.139 13.547 31.143 26.626 46.475 34.492 48.752 1.703-4.938 2.23-17.997 2.593-26.969.499-12.345 1.014-25.109 3.438-35.535 4.317-18.57 13.971-22.673 21.309-22.846.167-.003.334-.006.503-.006z"/></g></g><g id="XMLID_780_"><path id="XMLID_390_" d="m288 272h-63c-4.418 0-8-3.582-8-8s3.582-8 8-8h63c4.418 0 8 3.582 8 8s-3.582 8-8 8z"/></g><g id="XMLID_779_"><path id="XMLID_389_" d="m451.017 377h-391.818c-15.68 0-30.52-6.261-41.787-17.629-11.228-11.329-17.412-26.21-17.412-41.903v-36.29c0-13.883 11.611-25.178 25.883-25.178h51.117c4.418 0 8 3.582 8 8s-3.582 8-8 8h-51.117c-5.357 0-9.883 4.203-9.883 9.178v36.29c0 23.596 19.783 43.532 43.199 43.532h391.818c23.962 0 44.983-20.342 44.983-43.532v-36.29c0-4.546-5.888-9.178-11.667-9.178h-48.333c-4.418 0-8-3.582-8-8s3.582-8 8-8h48.333c13.086 0 27.667 10.34 27.667 25.178v36.29c0 15.659-6.548 30.588-18.438 42.035-11.549 11.119-27.056 17.497-42.545 17.497z"/></g><g id="XMLID_778_"><path id="XMLID_386_" d="m176.541 223.366h-47.736c-4.418 0-8-3.582-8-8v-31.824c0-4.418 3.582-8 8-8h47.736c4.418 0 8 3.582 8 8v31.824c0 4.418-3.582 8-8 8zm-39.736-16h31.736v-15.824h-31.736z"/></g><g id="XMLID_777_"><path id="XMLID_383_" d="m390.361 223.366h-47.736c-4.418 0-8-3.582-8-8v-31.824c0-4.418 3.582-8 8-8h47.736c4.418 0 8 3.582 8 8v31.824c0 4.418-3.582 8-8 8zm-39.736-16h31.736v-15.824h-31.736z"/></g><g id="XMLID_776_"><path id="XMLID_382_" d="m343 208h-167c-4.418 0-8-3.582-8-8s3.582-8 8-8h167c4.418 0 8 3.582 8 8s-3.582 8-8 8z"/></g><g id="XMLID_775_"><path id="XMLID_381_" d="m447 208h-56c-4.418 0-8-3.582-8-8s3.582-8 8-8h56c4.418 0 8 3.582 8 8s-3.582 8-8 8z"/></g><g id="XMLID_774_"><path id="XMLID_380_" d="m128 208h-68c-4.418 0-8-3.582-8-8s3.582-8 8-8h68c4.418 0 8 3.582 8 8s-3.582 8-8 8z"/></g></g></g><g id="Layer_1"/></svg>