<svg id="Layer_1" enable-background="new 0 0 104 104" height="512" viewBox="0 0 104 104" width="512" xmlns="http://www.w3.org/2000/svg"><path d="m94.33 92.71c.32-.49.72-1.34.45-2.21-.25-.78-.95-1.33-2.1-1.61-2.79-.68-4.41.21-4.89.55-2.45.72-8.86 2.25-11.08 1.27-.42-.2-1.48-.89-1.59-.92-2.12-1.39-4.53-3.56-7.06-5.84-1.46-1.32-3-2.71-4.59-4.05-.69-2.3-1.64-4.97-2.97-8.37-3.12-7.93.16-16.43 2.55-22.64 1.26-3.28 2.26-5.87 2.09-7.7-.34-3.84-2.36-4.97-4.49-5.57-3.86-2.35-3.18-7.6-2.42-10.54.23-.88.34-1.84.34-2.86 0-4.85-2.88-9.08-7.07-10.52 0-.23-.01-.45-.04-.66.01-.83-.22-1.8-.85-2.27-.02-.53-.14-1.32-.65-1.79 0-.66-.1-1.8-.72-2.46-.32-.35-.73-.52-1.22-.51-.33 0-.61.22-.7.53-.01.03-.84 2.82-1.79 7.14-4.23 1.41-7.15 5.67-7.15 10.54 0 1.02.44 3.22.5 3.43.64 2.24 1.81 6.38-2 8.73-1.04.13-1.93.36-2.62.59-2.31.76-3.93 2.88-4.03 5.27-.14 3.25 1.38 7.36 3 11.7 2.61 7.01 5.57 14.95 2.05 20.82-5.36 8.92-3.74 14.1-2.49 16.24-.08 0-.16.01-.24.04-.07 0-.15.01-.21.01-.01 0-.01 0-.01 0-.44 0-.85-.23-1.07-.59-.66-1.08-1.81-1.81-3.08-1.97-1.24-.14-2.42.28-3.34 1.2-1.69 1.69-3.48 1.67-4.59 1.1-3.57-1.86-5.88-1.14-6.95-.55-.07.04-.17.05-.29.03-.94-.16-1.99.4-2.46.75-.96.72-1.44 1.52-1.42 2.38.01.74.4 1.32.73 1.69-.19.5-.15.92-.06 1.21.18.56.6.91.92 1.11.07.21.2.42.4.61.98.92 3.21.99 6.84.22 5.39-1.15 22.45 2.24 27.55 3.3 1.47.31 2.94.46 4.39.46 1.81 0 3.58-.24 5.24-.72 2.01-.57 3.89-1.43 5.61-2.56 1.19-.78 2.48-1.77 3.29-3.23.6.25 1.22.5 1.83.73.8.29 5.78 3.69 11.7 4.07.23.01 13.57-.02 13.57-.02.05 0 .1 0 .14-.01.25-.05 1.53-.34 1.99-1.26.08-.17.16-.4.15-.67.2-.14.41-.33.55-.6.15-.28.27-.71.13-1.29.31-.43.49-1.05.23-1.73zm-32.98-14.51c-1.71-1.33-3.48-2.55-5.28-3.53 1.23-.24 2.47-.52 3.7-.85.62 1.62 1.14 3.06 1.58 4.38zm-2.12-5.79c-1.76.47-3.52.84-5.25 1.09-.28-.17-.55-.35-.82-.54-1.69-1.22-6.03-3.75-9.63-.82-.56.46-1.08.9-1.58 1.33-1.69-.26-3.33-.61-4.82-1.03 1.66-3.5 1.5-7.47.59-11.48 6.72-1.07 13.52-1.07 20.24.01-.48 3.61-.32 7.39 1.14 11.11.05.11.09.22.13.33zm1.96-22.86c-.18-.15-.34-.31-.49-.48.3-.18.6-.37.89-.57-.13.35-.27.69-.4 1.05zm-9.82-36.3c3.4 1.34 5.7 4.9 5.7 8.97 0 .89-.1 1.73-.29 2.48-1.11 4.29-.78 7.78.89 10.15-.3-.09-.6-.18-.87-.3-2.58-1.13-3.59-3.46-3.75-3.89-.12-.55-.25-1.1-.39-1.65 1.74-1.51 2.77-3.86 2.77-6.41 0-.53-.05-1.05-.14-1.58-.04-.25-.21-.46-.44-.56-1.15-.5-2.16-1.07-3.03-1.71-.29-1.52-.72-2.65-.92-3.12.19-.82.36-1.62.47-2.38zm7.39 23.45c-.11 1.21-3.36 2.7-3.8 3.72-.09.21-.31.52-.57.85-.08-1.63-.26-4.15-.69-7.03.64.63 1.46 1.23 2.5 1.69.83.36 1.71.57 2.56.77zm-6.68-15.98c.56.34 1.16.65 1.79.94.04.32.06.62.06.94 0 1.83-.63 3.52-1.71 4.74-.19-.65-.4-1.31-.62-1.96.48-1.63.58-3.23.48-4.66zm-1.51 2.02c-.11-.25-.22-.49-.33-.73-.27-.57-.38-1.17-.32-1.75.06-.54.17-1.14.31-1.76.26 1.17.47 2.65.34 4.24zm-4.04-8.53c.73-3.61 1.45-6.44 1.87-7.97.06.36.07.77.04 1.08-.02.34.17.65.5.76.11.09.21.61.17 1.09-.04.39.21.73.6.8.13.09.25.63.26 1.15.15 1.36-.32 3.33-.79 5.24-.32 1.34-.63 2.61-.75 3.74-.09.85.07 1.73.45 2.55 3.65 7.71 4.02 18.3 4.06 20.24-.45.43-1.53 1.41-2.51 1.86-.2.1-.45.02-.55-.17-3.23-5.94-3.19-11.06-3.16-14.45.01-1.4.02-2.41-.21-3.13-.63-1.99-.9-8.24.02-12.79zm2.03 31.09c.35.63 1 1 1.69 1 .27 0 .55-.06.82-.19 1.51-.71 3.1-2.32 3.16-2.39.09-.09.51-.52.96-1.06.46-.53.94-1.16 1.14-1.64.23-.52 3.65-2.14 3.89-3.97 1.82.51 3.17 1.34 3.43 4.28.09 1.03-.37 2.6-1.04 4.46-.05.03-.1.05-.14.09-5.09 4.84-13.7 5.29-17.17 5.23-.92-.01-1.74-.56-2.09-1.41-.58-1.39-1.22-4.02-1-8.58.27-5.55 1.83-10.73 2.87-13.64.16.5.15 1.49.14 2.64-.03 3.33-.07 8.89 3.34 15.18zm-3.97-20.71c-.11.26-.33.78-.61 1.52-.55-1.04-.86-2.24-.86-3.51 0-.54.07-1.09.19-1.63.39-.13.76-.28 1.13-.45-.02 1.46.04 2.86.15 4.07zm-4.27.65c-.06-.2-.44-2.13-.44-3.02 0-3.89 2.12-7.32 5.28-8.79-.04.16-.07.32-.1.48-.3 1.49-.49 3.2-.57 4.91-.87.48-1.83.85-2.87 1.07-.4.08-.66.48-.57.89.07.32.34.55.66.58-.06.41-.09.83-.09 1.24 0 1.97.61 3.83 1.72 5.3-.57 1.69-1.22 3.89-1.74 6.41-.35.11-1.92 0-2.27-.02 2.71-2.99 1.54-7.12.99-9.05zm.98 10.64c-.08.45-.15.91-.21 1.37-.63-.41-1.05-.95-1.31-1.42.14.01.28.02.43.04.38.05.74.05 1.09.01zm-9.58 4.43c.08-1.77 1.29-3.35 3.01-3.92.83-.27 1.99-.55 3.36-.61.33.83 1.12 2.3 2.8 3.09-.07.71-.14 1.44-.17 2.17-.1 2.02-.03 3.67.13 5.05-5.35-.06-7.95-1.46-8.62-1.89-.35-1.42-.55-2.74-.51-3.89zm1.07 5.86c.72.31 1.67.63 2.9.9-.23.64-.72 1.61-1.74 2.5-.42-1.17-.82-2.31-1.16-3.4zm1.85 5.25c-.05-.12-.09-.24-.14-.37 1.68-1.27 2.39-2.83 2.69-3.73 1.11.16 2.4.27 3.88.27.22 1.15.49 2.04.76 2.68.58 1.41 1.93 2.32 3.45 2.34h.41c2.97 0 8.73-.36 13.64-2.79.38.45.81.86 1.29 1.23-.95 2.58-1.88 5.44-2.43 8.43-6.92-1.1-13.92-1.1-20.84.01-.73-2.73-1.74-5.46-2.71-8.07zm-16.99 43.35c-4.5.96-5.41.24-5.51.14-.01-.3-.19-.58-.48-.69-.13-.05-.38-.21-.42-.37-.04-.1.03-.29.17-.49.24-.34.16-.81-.18-1.05-.01 0-.6-.43-.6-.94-.01-.44.44-.87.82-1.15.35-.27.99-.53 1.3-.47.47.08.91.01 1.28-.2.65-.36 2.47-1.02 5.53.57 1.58.82 4.08.89 6.34-1.37.75-.75 1.56-.83 2.1-.77.81.1 1.56.58 1.98 1.26.29.48.74.85 1.25 1.08-.77 1-1.7 2.62-1.93 4.86-4.79-.62-9.23-.93-11.65-.41zm42.27.7c-1.58 1.04-3.33 1.84-5.19 2.37-2.76.79-5.85.88-8.91.23-3.42-.71-9.33-1.88-15.01-2.68.26-2.71 1.71-4.36 2.25-4.87 1.39-.1 3.12-.49 4.56-1.66 2.14-1.76 6.33-.55 7.82 1.13.28.31.75.34 1.06.07.28-.25.32-.64.14-.94 1.51-1.28 2.41-2.94 2.94-4.25 1.92 1.5 6.94 5.22 13.08 8.01-.53.89-1.39 1.7-2.74 2.59zm6.48-2.66c-7.81-2.89-14.68-8.15-16.32-9.46.1-.39.15-.65.15-.69.07-.41-.2-.8-.61-.87-.41-.06-.8.21-.87.62 0 .03-.64 3.6-3.23 5.69-2.33-1.61-6.39-2.42-8.85-.4-.68.55-1.47.89-2.23 1.09-.89-1.15-3.49-5.73 1.97-14.99 1.28.36 2.67.69 4.12.95-2.55 2.38-4.21 4.4-5.82 6.37-.26.32-.22.79.1 1.05.32.27.8.22 1.06-.1 2.22-2.72 4.33-5.28 8.6-8.76 2.7-2.2 6.06-.4 7.82.87.71.51 1.47.97 2.25 1.36 4.42 2.21 8.72 6.09 12.52 9.52 2.48 2.25 4.86 4.39 7.03 5.85-.09.76-.53 2.53-2.52 4.53-.87-.4-4.27-2.3-5.17-2.63zm26.49-.66c-.23.26-.25.65-.05.93.07.1.24.34-.04.58-.28.21-.38.58-.24.9.12.27.11.42.09.46-.03.06-.16.12-.23.14-.23.04-.43.19-.54.4-.1.21-.1.46 0 .67.04.07.04.11.04.11-.04.12-.45.34-.86.43h-12.81c-2.05.09-3.73-.23-5.18-.73 1.53-1.69 2.15-3.26 2.39-4.3.21.11.42.23.62.33 3.19 1.42 11.34-.95 12.26-1.23.1-.02.2-.08.27-.14.05-.04 1.21-.96 3.71-.35.58.14.95.36 1.03.6.12.36-.27.98-.46 1.2z"/></svg>