<svg fill='#9E7F61' id="b" xmlns="http://www.w3.org/2000/svg" viewBox="0 0 461.38 184.15"><defs><style>.c{fill:#9E7F61;}</style></defs><path class="c" d="m225.29,120.15c-.03.33-3.19,32.75,2.31,47.63,4.94,13.37,20,14.64,25.54,14.64.91,0,1.57-.04,1.88-.06.29-.02.63-.03,1-.05,5.92-.26,19.78-.88,24.11-25.34,1.52-8.57,3.86-22.71,3.34-25.58,1.22-.01,2.41-.03,3.58-.05-.57,2.64-5.82,28.79,5.34,42.74,5.64,7.05,13.24,8.79,19.35,8.79.88,0,1.74-.04,2.55-.1,8.18-.62,14.97-3.86,17.7-5.67,3.51-2.34,7.26-7.53,10.32-14.24.54,1.9,2.32,5.4,8.11,8.41,3.32,1.73,6.46,3.93,9.49,6.06,4.3,3.02,8.36,5.88,12.08,6.66.5.11,1.04.16,1.62.16,3.07,0,7.09-1.46,10.75-3.96,2.88-1.98,7.43-5.93,10.11-12.41.94.56,6.29,3.87,9.48,7.93,2.09,2.66,4.95,4.19,7.75,4.19.2,0,.4,0,.6-.02,2.16-.17,5.3-1.38,7.96-6.17,1.07-1.92,1.92-4.58,2.55-7.69.28.32.67.65,1.23.84.33.11.69.17,1.06.17,1.17,0,2.55-.55,4.14-1.64,5.54-3.81,7.99-6.71,8.31-18.55.3-11.21-5.9-25.36-6.77-27.29,2.33-1.1,4.96-2.69,7.4-4.77.48.31,1.61.89,3.35.89,1.57,0,3.62-.47,6.14-2.05,10.11-6.32,13.7-19.77,13.7-29.36,0-7.21-1.15-11.92-2.27-16.47-.59-2.4-1.14-4.66-1.49-7.17-.41-2.99-1.27-4.68-2.63-5.17-1.11-.4-2.47.08-3.91,1.41-2.21,2.03-3.66,2.7-4.21,2.9-.1-1.66-.18-3.28-.27-4.83-.61-11.37-.98-16.87-2.7-17.8-2.71-1.46-5.62,1.21-8.19,3.57-1.08.99-2.09,1.93-2.97,2.44-2.36,1.38-4.56,2.62-5.66,2.89-1.98-10.08-4.39-18.78-6.22-24.16-4.09-12.02-8.64-15.48-16.79-12.77-8.31,2.77-22.72,22.8-25.51,26.75,0-.03-.02-.06-.03-.09-.03-.09-.06-.17-.09-.26,0,0,0,0,0,0,.02.04.03.09.05.13-2.96-8.32-11.89-28.42-28.6-25.81-18.27,2.86-27.95,26.05-30.09,31.8-2.71-9.5-6-18.54-9.71-26.32-3.06-6.41-8.02-10.43-15.61-12.67-11.13-3.27-23.78-2.83-30.34-2.27-9.67.82-18.33,2.88-22.05,5.25-8.66,5.51-13.41,22.25-15.23,37.92-.31-6.4-.69-11.8-1.06-15.42-2.17-21.42-19.51-24.96-29.65-25.17-.58-.01-1.29-.04-2.11-.07-8.88-.31-29.67-1.05-46.21,8.91-10.81,6.51-14.54,15.69-16.24,26.34-7.05-9.97-14.28-9.92-20.69-9.87-6.79.05-10.89,4.32-13.73,14.26-.73,2.56-2.28,9.81-3.25,18.5-1.25-6.2-3.67-10.11-8.91-16.6-9.74-12.07-28.54-19.07-39.77-23.25-2.78-1.04-4.66-2.24-6.17-3.2-1.88-1.2-3.23-2.07-5.11-1.89-1.62.16-3.62,1.24-4.41,3.79-.9,2.9-.82,7.42-.76,11.41.02,1.02.03,2.02.03,2.96,0,1.42-.35,3.97-.79,7.2-.27,1.94-.57,4.17-.86,6.61-.44-.35-1.05-.95-1.68-1.57-2.56-2.51-6.43-6.31-9.39-5.02-2.51,1.09-3.67,6.74-4.74,13.13-5.32.29-11.35,7.27-11.35,26.21,0,21.06,10.59,33.14,16.52,33.99.52.07,1,.11,1.43.11.44,0,.83-.03,1.18-.09-1.75,2.68-6.59,10.97-6.86,20.62-.35,12.77,2.3,24.34,6.92,30.2,1.12,1.42,2.51,2.15,4.13,2.17.02,0,.04,0,.06,0,3.86,0,7.87-4.04,9.19-5.5,2.07,10.97,6.22,15.75,6.44,16,.08.11,2.06,2.75,5.32,3.18.29.04.59.06.89.06,1.82,0,3.65-.73,5.46-2.18,1.5-1.2,2.85-2.32,4.08-3.33,4.02-3.33,6.68-5.53,9.08-6.01.07-.01.13-.05.19-.1.33.64.66,1.24.98,1.84,3.19,5.86,8.5,9.32,13.58,9.32,1.56,0,3.09-.33,4.54-1.01,3.81-1.81,7.58-4.07,10.6-5.89,1.83-1.1,3.4-2.04,4.41-2.53,2.56-1.24,4.84-2.16,6.85-2.97,3.85-1.55,6.68-2.72,8.52-4.91,1.82,2.95,3.97,5.78,6.54,8.4,5.18,5.3,10.89,6.96,16,6.96,8.47,0,15.32-4.54,15.41-4.61.36-.2,8.79-5.1,10.94-13.6,2.08-8.22.35-29.73.05-33.2.47.02.93.04,1.41.06-.02,1.73-.24,36.58,7.23,45.35,3.84,4.51,11.78,6.03,19.72,6.03,7.76,0,15.52-1.45,19.46-2.99,5.78-2.25,10.99-5.51,11.33-20.55.35-15.89-.16-29.04-1.32-33.76,1.34-1.09,2.41-2.34,3.16-3.8.08-.16.17-.34.25-.52.4.87.95,1.7,1.64,2.49,0,0,0,.01,0,.02h0s-.02.03-.01.04c.2.04,0-.02.01-.04m228.64-63.85c.06,0,.12,0,.18-.01-.06,0-.12,0-.18.01,0,0,0,0,0,0Zm-11.7-18.61s.03,0,.04,0c-.01,0-.03,0-.04,0h0Zm-33.5-28.52s.02,0,.03,0c-.02,0-.03,0-.05,0,0,0,.01,0,.02,0Zm-29.62,28.38v.02s.1-.13.1-.13h0s.19-.27.19-.27v-.02c1.77-2.5,16.97-23.9,25.07-26.6,1.7-.57,3.07-.83,4.31-.83,4.48,0,7.68,3.8,10.71,12.72,2.35,6.9,7.26,24.97,9.06,43.92,2.27,23.92-1.29,41.06-10.31,49.55-8.22,7.75-14.15,11.52-18.11,11.52-.19,0-.37,0-.54-.03-2.36-.23-3.83-2.03-5.13-3.85-4.42-6.19-10.11-11.35-11.6-12.65h0s-.18-.16-.18-.16l-.02-.02-.18-.15h0s-.03,0-.04-.01c.99-1.29,1.67-3.23,2.15-6.37,4.13-27.28-4.92-64.54-5.01-64.92-.01-.04-.18-.66-.5-1.66l.04-.05Zm-25.89-26.96h0c-.14,0-.29,0-.43,0,.14,0,.29,0,.43,0Zm-32.82,33.28l.04.16.19-.54s0,0,0,0l.07-.22h0c.47-1.38,3.04-8.56,7.89-15.84,6.28-9.43,13.51-14.84,21.47-16.09.91-.14,1.83-.22,2.71-.22,17.74,0,25.37,28.21,25.44,28.49.09.37,9.08,37.3,4.98,64.36-1.04,6.89-2.65,7.19-7.96,8.16l-.17.03c-.43.08-.88.16-1.34.25-2.84.55-11.15.91-20.69.91-10.68,0-19.26-.45-21.88-1.15-2.8-.75-4.29-2.51-4.68-3.03h0c-.07-.09-.12-.16-.13-.17,0,0-.01,0-.02-.02l-.17-.23v.04s-.06-.05-.06-.05c.79-3.21,1.31-6.88,1.48-11.08.61-15.59-2.2-35.38-7.22-53.72l.04-.05Zm33.11,70.01s-.04,0-.05,0c-.13,0-.25,0-.38,0,.14,0,.29,0,.43,0Zm-6.84.83h0s-.02-.04-.02-.05c0,.01.01.03.02.05ZM112.23,29.12h.01s.04,0,.06,0c-.03,0-.05,0-.08,0h.01Zm-17.68,41.71c.44-11.8,2.66-23.38,3.96-27.91,2.68-9.36,6.27-13.2,12.4-13.25.46,0,.92,0,1.37,0,6.26,0,12.4.76,18.6,9.91l.36.54.02-.16.05.03c-.35,2.54-.6,5.16-.83,7.84-.41,4.93-.98,10.43-1.59,16.25-1.35,12.95-2.8,26.92-2.7,37.42v.12s-.04,0-.07,0v-.25s-.13,0-.13,0v.25c-1.14,0-4.79.05-9.32.46-4.85.44-8.3.9-9.82,2.71-.01-.01-.03-.02-.04-.03l.02-.03-.24-.14h0s0,0,0,0c-1.63-.92-4-2.86-5.39-4.22-6.18-6.02-7.02-19.39-6.64-29.54Zm31.65,30.79h0v-.05s0,.03,0,.05Zm-32.03-13.41c1.04,5.45,2.92,10.14,6.04,13.17,1.51,1.47,4.06,3.55,5.8,4.5.06.03.12.04.18.05-.14.32-.38.91-.68,1.8-.94-1.57-3.96-5.77-9.96-7.13-2.9-.66-5.21-.56-6.97-.2l-.02-.12c2.05-1.51,3.26-3.15,4.44-6.99.25-.81.76-3.16,1.18-5.08Zm-2.46,12.77c-.13,0-.26,0-.39,0,0,0,0,0,0,0,.13,0,.25,0,.38,0ZM29.42,41.65c.47-3.41.8-5.88.8-7.39,0-.95-.02-1.96-.03-2.99-.06-3.88-.13-8.28.7-10.97.58-1.89,2.04-2.69,3.21-2.81.12-.01.23-.02.35-.02,1.22,0,2.27.67,3.86,1.69,1.56,1,3.51,2.25,6.43,3.34,11.09,4.13,29.66,11.04,39.17,22.82,5.8,7.19,8.05,11.09,9.08,18.7.01.08.04.14.06.2v.02s.03.06.03.06l.39.83.03-.39.04.03c-.58,6.75-.72,14.05.16,20.56l-.04.03-.06-.43-.34.94s-.03.07-.04.11l-.31,1.43c-.4,1.85-1,4.63-1.25,5.46-1.52,4.92-2.97,5.81-6.87,8.16-2.25,1.36-5.34,3.23-9.59,6.56-8.39,6.57-9.53,9.65-10.54,12.37-.41,1.09-.79,2.13-1.68,3.34-.19.26-1.99,2.59-5.52,2.59-.08,0-.15,0-.23,0-3.92-.11-10.5-3.16-19.57-17.11-14.39-22.14-10.24-52.53-8.25-67.13Zm58.9,58.81s0,0-.01,0c0,0,0,0,0,0h0Zm-30.61,25.98s0,0,0,0c-.16,0-.32.01-.49,0,.17,0,.33,0,.5,0ZM17.39,42.06h0c-.06,0-.11,0-.16.02.05,0,.11-.02.16-.02Zm-5,14.87c.97-5.91,2.17-13.27,4.26-14.17.22-.1.47-.15.74-.15,2.14,0,5.13,2.94,7.12,4.88.8.79,1.44,1.41,1.97,1.8h0s.12.09.12.09c0,0,0,0,0,0l.34.24v-.04s.05.03.05.03c-1.72,15.14-2.7,37.79,7.29,56.2l-.03.05-.19-.34-.03.87h0s0,.05,0,.05c0,.05-.11,4.7-2.9,7.21-.73.66-1.55.98-2.49.98-.35,0-.72-.04-1.11-.13-5.94-1.33-14.17-12.43-17.02-19.19-3.16-7.51-2.19-20.21.05-28.83.73-2.82,1.29-6.25,1.84-9.56Zm5.57,57.13s-.02,0-.03,0c0,0,.02,0,.03,0h0Zm-.02-.55c-.38,0-.79-.03-1.22-.09-5.34-.76-15.31-12.63-15.31-32.6,0-5.74.82-11.75,2.19-16.05,1.7-5.35,4.16-8.28,7.3-8.71h0c.08-.01.16-.02.23-.03-.04.22-.07.45-.11.67-.54,3.29-1.1,6.69-1.81,9.44-2.29,8.84-3.26,21.91.02,29.72,1.82,4.33,6.55,11.7,11.61,16.23l-.03.08v.02s-.03.06-.03.06c0,0-.03.07-.08.16-.19.33-.85,1.1-2.74,1.1Zm14.4,47.78h0s.04-.04.04-.04c0,0-.02.03-.04.04Zm-.88-14.8c-.16,5.66.22,10.47.89,14.51,0-.03-.01-.06-.02-.09-.02.01-.03.03-.05.04l-.06-.36-.35.4c-.48.55-4.83,5.42-8.49,5.42-1.22-.01-2.25-.57-3.1-1.64-4.43-5.61-6.97-16.83-6.62-29.29.3-10.77,6.46-19.69,7.16-20.68l.59-.83-.36.18v-.13c.46-.34.73-.71.88-.99,1.78,1.43,3.58,2.46,5.28,2.84.49.11.95.16,1.4.16,1.3,0,2.45-.45,3.44-1.34,2.34-2.11,3.05-5.3,3.27-7.03.37.63.76,1.26,1.16,1.88,1.78,2.74,3.53,5.15,5.24,7.26-1.7,1.43-9.68,9.24-10.28,29.68Zm31.82,22.23l-.11.03-.29.08v.02c-2.55.77-5.28,3.02-9,6.1l-.07.06c-1.18.98-2.52,2.08-3.99,3.26-1.55,1.24-3.1,1.87-4.6,1.87-.23,0-.46-.01-.68-.04-2.56-.33-4.23-2.42-4.41-2.65-.09-.1-7.89-9.36-7.26-30.91.54-18.6,7.46-26.48,9.56-28.45.08-.08.15-.14.21-.19,5.21,6.12,10.09,9.28,14.56,9.4.09,0,.17,0,.26,0,4.22,0,6.42-2.83,6.66-3.16,1-1.37,1.42-2.49,1.86-3.68.95-2.54,2.02-5.43,10.1-11.76.78-.61,1.5-1.15,2.2-1.67-5.69,5.29-13.61,14.99-16.23,29.64-3.32,18.54-1.21,26.56,1.38,32.01-.05.01-.09.02-.14.04Zm49.43-6.18h0s-.23.28-.23.28c-1.63,1.99-4.45,3.13-8.01,4.57-2.03.82-4.33,1.74-6.94,3.01-1.06.51-2.59,1.43-4.52,2.59-3,1.8-6.74,4.05-10.49,5.82-1.23.58-2.56.88-3.94.88-4.65,0-9.5-3.37-12.35-8.6-3-5.5-6.73-12.34-2.82-34.16,4.03-22.5,21.12-33.16,21.84-33.6h0s.08-.06.08-.06c.02-.02,2.14-1.73,6.17-1.73,1.19,0,2.45.15,3.73.44,6.54,1.49,9.31,6.92,9.34,6.98v.02s.05.06.05.06h0s.3.4.3.4l.03-.08s0,0,0,0l.06.03c-.85,3.22-1.74,8.53-1.36,16,.57,11.44,2.23,25.23,9.08,37.11l-.03.05Zm23.37,15.74s-.02,0-.02,0h0s.09,0,.13,0c-.04,0-.07,0-.11,0Zm24.96-17.7c-1.97,7.79-9.96,12.55-10.3,12.75-.28.19-6.69,4.4-14.66,4.4-5.74,0-10.79-2.2-15.03-6.53-6.72-6.88-14.61-18.31-15.99-45.88-.62-12.49,2.48-18.99,2.51-19.05.82-1.88,4.18-2.32,9.22-2.78,4.33-.39,7.83-.45,9.13-.46h.27s.03,0,.03,0c.16,6.29.95,11.16,2.76,13.51l.07.09c3,3.9,7.49,9.72,31.98,11.02v.04s.02.23.02.23v.08s0,0,0,0c.34,4.1,1.93,24.86-.02,32.58Zm29.98,17.77c-.11,0-.21,0-.32,0h0c.26,0,.52,0,.78,0-.15,0-.3,0-.45,0Zm29.19-22.76c-.32,14.2-4.91,17.13-10.44,19.28-3.63,1.41-11.15,2.93-19.06,2.93-11.4,0-16.38-3.04-18.55-5.58-6.78-7.96-6.91-40.42-6.9-44.09h0s0-.29,0-.29l1.07.04c6.75.24,13.56.48,20.03.48,13.73,0,25.91-1.09,32.69-5.58l.04.21c1.01,5.23,1.44,17.72,1.1,32.61Zm-34.59-28.11c.24,0,.47,0,.71,0h0c-.21,0-.42,0-.63,0-.02,0-.05,0-.07,0Zm36.59-10.06c-4.33,8.43-21.67,9.51-36.3,9.51-6.41,0-13.06-.24-19.5-.46l-2.2-.08c-26.58-.93-31.06-6.76-34.03-10.61l-.07-.09c-4.55-5.91-2.03-30.1.19-51.45.61-5.83,1.18-11.33,1.59-16.28,1.19-14.34,3.26-26.88,16.67-34.94,9.77-5.88,22.71-8.86,38.48-8.86,2.74,0,5.08.08,6.96.15.83.03,1.54.05,2.13.07,9.68.19,26.23,3.56,28.29,23.91,1.79,17.63,3.85,77.33-2.21,89.14Zm56.57,39.32c-4.14,23.36-17.21,23.94-22.8,24.19h-.06c-.36.02-.68.03-.97.05-.36.02-.97.05-1.78.05-17.29,0-22.71-9.6-24.23-13.73-4.81-13.02-2.79-40.45-2.34-45.82l.02-.18c5.04,4.44,15.1,7.46,30.06,9,7.86.81,16.39,1.11,24.11,1.11.42,0,.83,0,1.25,0l.02.07c.02.09.06.17.1.24v.03s0,0,0,0c.11.8.17,4.94-3.38,24.99Zm1.51-26.13c.1,0,.19,0,.29,0h-.03c-.08,0-.17,0-.25,0Zm.11-.55c-9.62,0-23.56-.5-35.35-2.87-11.74-2.37-18.59-6.02-20.35-10.86l-.24-.66-.05.15-.04-.05c3.57-11.26,3.67-41.88,2.83-64.84l.08-.51.04-.03c.21-.16.34-.39.38-.65h0v-.03s.01-.02.01-.02c1.2-16.82,5.81-36.92,15.16-42.86,4.19-2.67,16.76-5.42,30.55-5.42,7.73,0,14.89.9,20.69,2.61,7.18,2.11,11.87,5.9,14.74,11.93,3.7,7.75,7.14,17.14,9.94,27.16l.1.37c5.28,19.02,7.96,38.7,7.36,54-.17,4.43-.65,8.16-1.47,11.42l-.12.46s-.01.06-.02.09c-3.34,12.55-12.33,19.12-27.48,20.1-5.23.34-11.03.52-16.76.52Zm30.24,51.95s-.04,0-.07,0c.31.01.62.02.93.02-.28,0-.57,0-.86-.02Zm30.99-20.94h0s0,.02,0,.02v.02c-3.05,7.06-6.83,12.46-10.38,14.83-3.39,2.26-10.16,4.92-17.03,5.44-.82.06-1.64.09-2.45.09-5.31,0-12.79-1.43-18.25-8.26-10.71-13.38-5.68-38.68-5.07-41.53h0s.05-.24.05-.24v-.04s0,0,0,0v-.03s0,0,0,0v-.03s0-.02,0-.02c3.26-.09,6.23-.22,8.75-.38,10.33-.67,23.54-3.75,28.48-20.68.75.88,2.39,2.43,5.14,3.17,2.31.62,8.49.98,15.53,1.12,0,.02.01.03.02.05h-.26s.13.34.13.34c.33.88,1.38,4.89,1.11,19.84-.16,8.67-2.2,18.01-5.76,26.29Zm32.83,22.19c-.34.03-.68.05-1,.04h0c.32,0,.66-.01,1-.04,0,0,0,0,0,0Zm9.14-4.22c-3.35,2.29-7.17,3.72-9.97,3.72-.48,0-.92-.04-1.31-.13-3.44-.73-7.39-3.5-11.57-6.44-3.07-2.16-6.25-4.39-9.65-6.16-6.97-3.63-7.56-8.04-7.6-8.53h0s0-.06,0-.06c0,0,0,0,0-.01l-.08-.92-.14.34-.03-.05c3.15-7.58,5.39-16.8,5.56-26,.26-14.27-.73-18.9-1.17-20.24,1.83.03,3.69.04,5.56.04,8.94,0,17.75-.33,20.87-.93.53-.1,1.02-.19,1.5-.28,2.65-.48,4.59-.85,6.03-2,.02.07.06.14.12.19.05.04,3.42,2.94,7.13,7.06l-.02.06-.8-.9.84,1.69s.03.09.06.13c3.64,5.16,8.56,25.83,5.97,41.68-1.6,9.78-7.76,15.31-11.29,17.73Zm27.89,0h0c.26.01.53.02.78,0-.26.02-.52.01-.78,0Zm7.59-6.01c-1.87,3.36-4.24,5.25-6.85,5.46-.16.01-.32.02-.48.02-2.38,0-4.87-1.37-6.67-3.65-3.11-3.96-7.93-7.09-9.58-8.1h0s-.18-.11-.18-.11l-.26-.16h0s0,0,0,0l-.04-.03c.54-1.51.98-3.15,1.27-4.92,2.2-13.46-.83-30.81-4.39-39.27.51.65,1.02,1.32,1.5,2,1.49,2.08,3.19,4.14,6.14,4.43.23.02.46.03.7.03,3.57,0,8.27-2.53,14.52-7.83l.04.03h0s-.03.03-.03.03l.39.15c.1.04,2.59,1.1,4.84,8.13,4.16,13,3.7,35.51-.9,43.79Zm5.83-6.86s0,0,0,0c.04,0,.08,0,.12,0-.04,0-.08,0-.12,0Zm11.29-19.36c-.32,11.82-2.86,14.1-7.71,17.44-1.32.91-2.48,1.39-3.35,1.39-.22,0-.41-.03-.59-.09-.64-.22-.88-.78-.92-.89l-.32-.88-.06.36-.04-.04c1.77-10.67,1.21-25.58-1.89-35.28-2.11-6.6-4.49-8.42-5.43-8.9.88-.77,1.79-1.59,2.73-2.47,0,.01,0,.03.02.04.1.17,2.52,3.96,6.04,3.96.12,0,.23,0,.35-.01,1-.07,2.62-.51,4.53-1.31h0s.11.26.11.26h0c1.14,2.57,6.81,15.86,6.52,26.42Zm-11.28-26.76c-.08,0-.17,0-.25,0-2.66,0-4.75-3.15-4.84-3.29l-.16-.25-.04.03s-.03-.03-.05-.04c14.2-13.86,12.35-45.11,7.8-69.11h0s.02,0,.04-.01h0s.26-.07.26-.07h0s.22-.06.22-.06h0c1.19-.41,2.91-1.35,5.58-2.9,1.01-.59,2.08-1.57,3.21-2.61,1.84-1.69,3.93-3.61,5.63-3.61.34,0,.66.08.96.24,1.1.59,1.58,9.49,1.96,16.64l.02.44c.1,1.9.21,3.89.33,5.95.19,3.07.41,5.96.6,8.51.89,11.68,1.6,20.9-1.41,32.52-3.15,12.19-17.12,17.41-19.88,17.6Zm22.05-7.6c-1.95,1.22-3.77,1.83-5.4,1.83-.75,0-1.44-.13-2.05-.39h0c-.07-.03-.13-.06-.19-.09,3.05-2.86,5.66-6.52,6.82-11,3.06-11.85,2.35-21.17,1.45-32.97-.21-2.71-.42-5.5-.6-8.5,0-.04,0-.08,0-.12h.05s0-.01,0-.01h0s.31-.1.31-.1c0,0,0,0,0,0l.18-.06h0c.81-.32,2.34-1.12,4.53-3.13.82-.75,1.61-1.18,2.17-1.18.11,0,.22.02.32.05.78.28,1.4,1.75,1.72,4.04.36,2.58.92,4.88,1.51,7.31,1.09,4.47,2.23,9.09,2.23,16.14,0,9.24-3.42,22.16-13.04,28.17Z"></path></svg>