<svg xmlns="http://www.w3.org/2000/svg" viewBox="0 0 477.01 280.34"><defs><style>.c{fill:none;stroke:#9E7F61;stroke-linecap:round;stroke-linejoin:round;stroke-width:2.5px;}</style></defs><g id="a"><path class="c" d="m25.54,211.1c-5.34-.62-15.82,3.9-22.19,39.44s4.52,27.94,5.14,27.73c.36-.12,4.51-3.18,8.22-5.34,2.71-1.58,5.34-2.46,5.34-2.46"></path><path class="c" d="m54.92,256.5c-5.55.21-9.66,4.73-15,10.68-5.34,5.96-8.83,7.39-14.17,6.16-7.47-1.72-9.24-20.34-4.31-46.84,4.93-26.5,15.36-32.93,20.34-33.89,0,0,3.49-.97,6.58,1.23,4.32,3.08,6.37,6.57,9.45,11.09"></path><path class="c" d="m105.86,189.33c-7.19-8.22-15.23-14.13-23.42-12.53-9.45,1.85-24.68,21.87-29.37,42.52-3.08,13.56-3.2,34.83,4.52,39.65,8.22,5.14,15.2,2.88,21.37-.82,6.16-3.7,10.07-10.89,21.16-10.89s16.43-4.72,16.43-4.72"></path><path class="c" d="m117.16,173.72c-5.34,1.64-10.31,3.32-11.09,12.74-1.03,12.32.39,46.75,12.74,58.34,4.16,3.91,8.84,5.96,21.16,4.73,14.6-1.46,23.87-10.22,26.7-12.74,4.17-3.7,6.69-5.23,7.92-9.95,1.01-3.87-.72-37.98-8.44-50.99-1.71-2.89-4.19-4.76-7.85-5.26-13.31-1.81-29.43.26-41.13,3.14Z"></path><path class="c" d="m187.41,166.73c-5.34,1.64-12.12,2.88-11.09,15.82,1.03,12.94,2.26,43.19,6.57,51.36,3.9,7.39,14.17,17.05,29.58,15.61,15.41-1.44,23.17-8.46,26.5-12.53,3.7-4.52,5.14-12.33,4.72-19.72-.41-7.4-1.85-44.16-1.85-44.16,0,0,1.03-12.53-13.15-11.91-14.17.62-31.63,3.49-41.29,5.55Z"></path><path class="c" d="m263.32,165.89c-5.96,0-8.83,4.11-9.45,13.35-.62,9.24-.41,29.99,1.64,44.37,2.05,14.38,14.58,27.11,24.44,28.96,9.86,1.85,22.7.43,29.47-10.04,6.78-10.48,14.58-39.44,16.64-52.59,2.05-13.15-2.46-20.34-11.09-21.36-8.63-1.03-41.59-2.69-51.66-2.69Z"></path><path class="c" d="m436.59,201.86s4.52-6.37,11.91-2.26c5.98,3.32,20.13,16.64,23.21,44.78,3.08,28.14-7.19,29.58-10.89,29.58s-11.78-2.02-16.02-9.45c-2.46-4.31-3.9-5.14-3.9-5.14"></path><path class="c" d="m395.71,191.59s10.48-10.68,24.03-6.37c13.56,4.31,23.01,25.88,26.71,47.66,3.7,21.77-10.68,37.18-23.62,34.92-13.51-2.36-19.63-16.18-28.14-18.08-5.55-1.23-10.89-.82-10.89-.82"></path><path class="c" d="m348.96,174.08c-11.09-1.03-12.86,1.49-14.5,9.5-1.64,8.01-4.5,23.5-10,37.5-2.62,6.67-2.48,11.89,2.84,14.27,4.7,2.1,6.57,4.31,10.07,9.65,5.09,7.79,20.75,17.67,35.95,11.3,15.2-6.37,20.13-22.18,21.77-38.21,1.64-16.02,4.25-30.66-7.32-34.98-11.04-4.13-29.98-8.41-38.82-9.03Z"></path></g><g id="b"><path class="c" d="m86.91,134.3s1.33,7.29-4.74,15.22c-6.06,7.93-13.99,12.6-20.99,13.06s-10.73-8.4-20.06-8.4c-5.13,0-9.41,2.64-15.41,3.64-4.69.78-19.87-1.81-23.78-21.37-2.02-10.11,1-21.34,1.87-25.66.93-4.66,5.13-17.26,5.13-17.26,0,0,1.87-5.6,5.13-5.13"></path><path class="c" d="m4.27,121.07c.12.04,3.92-6.11,4.66,8.86.53,10.65,9.8,19.59,20.06,17.26s19.01-5.85,23.32-1.4c4.31,4.45,6.95,7.19,10.4,7.79,3.44.6,6.99.4,11.32-2.95,5.14-3.97,6.3-5.31,6.3-5.31"></path><path class="c" d="m417.46,127.58c-2.33.67-9.33,6.33-7.67,12.33"></path><path class="c" d="m397.13,136.91s6,15.33,12.67,21,14,6,19.67,3.33,8.67-7.33,18-5.33,16.33,6.33,22-5,7-16.67,6-29.33-4.67-20.33-6.67-25"></path><path class="c" d="m382.79,113.58s.33,13,14.33,23.33c8.84,6.53,14.29,8.72,18.33,4,2-2.33,4-5,11.33-5.67"></path><path class="c" d="m443.79,127.24s4.13,1.77,5.33,9c0,0,.84,5.99,2.84,7.66"></path><path class="c" d="m406.13,150.24c4.67,4.33,11.93,6.91,17.67,2.67,6.54-4.83,10.96-8.11,15.67-7.33,6.06,1,13.5,8.5,19.83,6.07,0,0,2.84-.82,4.55-3.82,1.78-3.13,5.08-5.67,4.75-4"></path><path class="c" d="m448.71,67.95c5.33,1.33,6.42-3.71,12.42-2.71,2.98.5,5.33,4.67,5.67,8.67,0,0,4.57,33.5.67,53-1.33,6.67-3,17.33-8.67,20s-10-.67-15-6.67-9-5-9-5"></path><path class="c" d="m403.79,49.58s9.33-16.33,16-20.33,15-3.67,21,13.33,20.89,59.96,3,84.67c-14,19.33-26.33.33-26.33.33,0,0-7.59-9.2-18-8.67-13,.67-18.67-7.67-18.67-7.67"></path><path class="c" d="m343.79,57.58s8.67-37.33,27.33-40.67c0,0,14-3.33,21.67,8.67s16.58,35.11,19,60.33c2.33,24.33-4.33,25-12,25.33-9.71.42-38,1-46-7-3.17-3.17-5.13-7.45-5.13-7.45"></path><path class="c" d="m275.76,2.11c-8.4.93-18.66,5.6-22.39,20.06s-9.15,66.13-8.41,75.15c.77,9.4,2.36,13.42,17.75,15.75,15.39,2.33,58.37,5.38,74.16-.87,14.74-5.84,11.66-22.39,11.66-22.39,0,0-6.48-51.91-13.01-66.37-6.53-14.46-25.39-20.95-35.97-21.79-11.66-.93-20.06,0-23.79.47Z"></path><path class="c" d="m37.33,74.08s-5.88-1.38-11-5c-3.43-2.43-7.61,3.01-9.47,9.54-1.87,6.53-5.6,20.06-3.27,33.59,2.33,13.53,13.99,27.52,21.46,27.52s15.86-7.46,25.66,0,13.53,5.13,20.06,0c10.6-8.33,20.31-18.3,22.02-29.1"></path><path class="c" d="m20.13,118.73s5.13,11.2,12.6,13.53c7.46,2.33,20-3.99,24.2-.72"></path><path class="c" d="m86.19,112.45s-.72,1.91-5.89,4.89c-5.07,2.92-4.56,12.84-11.84,16.24-5.23,2.44-9.75,2-23.61-14.38-15.73-18.59-3.27-73.7-3.27-73.7,0,0,2-12.92,13.38-9.67,0,0,7.54,1.69,22.93,10.09"></path><path class="c" d="m144.12,53.4c-1.43-8.53-5.14-16.03-12.09-20.9-10.8-7.58-17.57-12.61-27.23-13.06-9.65-.46-18.33,5.6-24.08,20.06-5.76,14.46-9.95,46.65-5.76,59.24,4.19,12.59,17.73,16,21.47,15.39,4.51-.73,10.47-8.86,19.9-9.33,9.42-.47,19.37,0,22.51-7.46.54-1.29,1.54-3.77,2.36-6.83"></path><path class="c" d="m188.06,3.51c-19.29,2.15-29.09,10.05-34.99,16.79-7.37,8.42-7.46,18.66-7.46,18.66,0,0-4.66,44.78-4.66,59.24s11.23,16.31,20.06,16.79c8.83.49,52.5,2.66,65.09-4.8,0,0,7.93-2.8,8.86-19.13,1.07-18.68-1.57-48.07-2.5-63-.93-14.93-8.04-18.92-14.5-21.5-5.23-2.09-17.77-4-29.9-3.06Z"></path></g></svg>