<svg id="a" xmlns="http://www.w3.org/2000/svg" viewBox="0 0 461.75 218.9"><defs><style>.b{fill:#9E7F61;stroke:#9E7F61;stroke-miterlimit:10;}</style></defs><path class="b" d="m433.98,139.94c.24-.04.48-.07.68-.07-.21,0-.45.03-.7.07,0,0,0,0,.01,0Z"></path><path class="b" d="m416.67,143.67c.11-.05.23-.1.34-.14-.12.05-.23.09-.35.14,0,0,0,0,0,0Z"></path><path class="b" d="m24.19,140.24s-.04.04-.07.06h0s.04-.04.07-.06Z"></path><path class="b" d="m452.38,83.3c-1.53-.19-4.05,1.45-5.5,2.52.02-.01.03-.02.05-.03h0s-.04.03-.06.05c-.15.11-.28.21-.4.3,0,0-.01.01-.02.02,0,0,0,0,0,0,0-.2-.01-.4-.02-.61h0c-.17-3.38-.54-6.93-1.17-10.64-2.75-16.31-3.99-21.46-4-21.46,0-.12-.24-2.92-1.93-3.5-1.17-.4-2.57.34-4.31,2.25-3.37,3.71-5.89,4.55-7.08,4.72-.03,0-.07.01-.11.02-.02,0-.05,0-.07,0,0,0,0,0,0,0-.12.01-.22.02-.31.02h0s-.04,0-.06,0c-.01,0-.03,0-.04,0-.02,0-.03,0-.04,0-1.38-6.25-2.92-11.57-4.01-15.34l-.5-1.72c-4.35-15.01-7.47-25.84-17.51-25.35-9.6.48-24.8,21.03-26.85,23.87-.05-.14-.11-.29-.16-.43-.02-.06-.04-.12-.07-.18-4.7-11.54-12.66-26.77-27.41-26.26-5.72.21-12.28,4.7-19.5,13.34-4.21,5.04-7.41,10.09-8.6,12.03-.05-.18-.1-.36-.15-.55-2.91-10.59-6.08-21.38-14.99-27.74-10.26-7.33-33.78-11.23-55.36-5.06,0,0-.01,0-.02,0-8.5,2.9-13.83,9.87-16.28,21.31-.59,2.75-1.27,7.3-1.99,12.63,0,0,0,0,0,0-.03-.27-.07-.56-.11-.85,0-.02,0-.03,0-.05-.35-2.66-1.02-6.33-2.3-10.93-2.51-9.01-6.3-14.91-11.94-18.56-9.15-5.93-22.5-7.59-40.79-5.06-14.72,2.03-30.35,11.79-34.83,21.75-1.31,2.9-2.64,8.06-3.92,14.38-6.44-8.92-20.31-22.69-29.06-25.6-9.14-3.05-14.88,2.55-14.92,2.59-4.99,4.66-9.17,14.17-11.93,22.5-.03-.03-.07-.06-.11-.08-.01,0-.12-.05-.28-.12-2.78-1.21-26.58-11.54-31.72-13.88-5.32-2.42-9.27-.88-12.06,4.7-2.16,4.32-3.89,18.39-4.1,31.66-.13-.02-.3-.05-.5-.1-.74-.16-1.84-.5-2.76-1.21-.89-.68-1.73-1.64-2.55-2.57-1.93-2.2-3.93-4.47-6.85-3.5-4.75,1.58-5.64,6.21-7.26,14.6-.54,2.81-1.16,6-2.02,9.71-.69,2.95-1.18,5.81-1.53,8.58h0c-.1-.08-.2-.15-.31-.24-.03-.02-.07-.05-.1-.07-.01,0-.02-.02-.03-.02-.12-.09-.26-.18-.4-.27-1.66-1.05-4.52-2.17-7.01.32C.37,89.33-.69,115.41,1.91,127.56c2.54,11.88,11.94,16.02,14.91,17.04,0,0,0,0,0,0,.19.07.36.12.49.16-.01.02-.03.04-.04.06-9.85,14.74-6.64,25.94-5.32,29.21h0s0,0,0,0c.08.21.16.38.22.52,0,.01.01.03.02.04.06.14.11.24.15.31h0c-.66,5.45-.53,10.82,1.67,13.84,1.34,1.85,2.79,2.82,4.32,2.88.06,0,.12,0,.17,0,.92,0,1.68-.33,2.24-.68.04.17.07.35.11.52.16-.09.31-.19.44-.28.65,3.02,1.63,5.11,2.94,6.4,1.11,1.08,2.49,1.63,4.13,1.63.17,0,.34,0,.51-.02,5.35-.36,7.8-2.81,8.74-4.11h0c.18,1.24.37,2.49.62,3.77,1.92,9.96,5.12,15.69,9.51,17.04.69.21,1.37.3,2.03.3,3.76,0,6.78-2.97,6.93-3.12.09-.09,8.96-9.32,13.86-9.32,0,0,0,0,0,0,1.81,3.92,3.87,5.38,4.24,5.62.52.54,5.9,5.79,14.65,5.79.65,0,1.33-.03,2.02-.09.24-.03,5.84-.68,10.98-5.24,5.89-5.24,13.01-8.63,18.2-8.7,1.87,3.03,3.77,5.05,5.54,6.38,5.95,4.46,11.8,5.91,16.9,5.91,9.37,0,16.19-4.89,16.29-4.96.09-.06,8.93-6.4,11.38-16.59.37-1.53.69-3.2.95-4.78h0c.12-.69.22-1.36.32-2h0c.69,9.2,3.74,16.99,8.85,22.54,4.43,4.81,10.29,7.69,16.07,7.91.54.02,1.09.03,1.64.03,11.19,0,23.84-4.18,28.19-13.82,1.84-4.09,2.61-13.55,2.74-23.44h0c.01-1.08.02-2.15.02-3.23.69,4.75,1.81,11.77,3.44,20.04,3.07,15.61,9.95,22.34,23.74,23.23.54.04,1.11.06,1.71.06,7.72,0,19.83-3.39,25.8-22.8,1.91-6.19,3.56-11.63,5.07-16.61,0,0,0,0,0-.01-.42,4.65-.63,12.4,1.11,21.28.97,4.9,4.96,9.88,10.44,12.98,4.06,2.3,8.66,3.46,13.51,3.46,3.77,0,7.7-.7,11.64-2.11,9.5-3.41,14.1-10.11,16.72-17.51h0c.07-.2.14-.4.21-.6.68,1.07,2.18,3.19,4.35,4.93,1.69,1.35,3.29,2.37,5.14,3.54,1.63,1.04,3.49,2.22,5.79,3.87l.67.49c4.07,2.93,9.13,6.58,13.11,7.63.95.25,1.86.36,2.73.36,6.1,0,10.24-5.59,12.84-9.1.64-.86,1.18-1.6,1.73-2.21.82-.93,1.8-2.03,2.75-3.51,0,0,0,0,0,0,.1-.16.21-.33.31-.5.09-.01.27-.03.5-.04.03,0,.07,0,.11,0,0,0,0,0,0,0,1.35-.03,4.42.28,7.32,3.21,3.61,3.65,8.34,6.2,11.51,6.2,3.74,0,7.62-1.51,10.68-12.45.05-.18.09-.37.14-.55.04-.16.08-.32.12-.48.38.09.77.15,1.17.15,2.19,0,4.42-1.32,5.44-2.18,5.47-4.56,6.63-11.96,7.05-18.58,1.39-22.23-8.71-31.76-15-33.94.22-.02.44-.05.65-.07.14-.02.28-.03.42-.05,2.94-.42,5.58-1.36,7.73-2.12,2.04-.73,3.81-1.35,4.87-1.18.02,0,.05,0,.07,0,0,0,0,0,0,0,1.87.78,3.6,1.32,5.66,1.32,2.27,0,4.96-.65,8.7-2.35,11.75-5.34,11.75-21.26,11.75-32.89,0-13.92-6.66-22.4-8.87-22.67Zm-5.42,3.52c.07-.05.15-.11.23-.17-.08.06-.16.12-.23.17h0Zm-12.45-32.89h0s-.08.08-.13.12c.04-.04.08-.08.13-.12Zm-2.38,2.01h0c-.24.17-.47.32-.69.46.22-.14.45-.29.69-.46Zm-.86.56s0,0,0,0c-.17.1-.33.2-.49.28h0c.16-.09.32-.18.49-.28Zm-.71.4h0c-.06.03-.11.05-.16.08.05-.03.11-.05.16-.08Zm-1.37.58c-.09.03-.18.06-.26.09h0c.08-.02.18-.06.26-.09Zm-.28.09h0s-.03,0-.04.01c.02,0,.03,0,.04-.01Zm-.56.14s0,0,0,0c-.09.02-.18.03-.26.05h0c.08-.01.17-.03.26-.05Zm-.26.55c1.49-.21,4.3-1.2,7.9-5.16,1.56-1.72,2.4-1.91,2.69-1.91.07,0,.13,0,.19.03.59.2.96,1.52,1.03,2.4v.04s.01.04.01.04c.01.05,1.25,5.22,3.99,21.43,6.24,37-12.41,54.44-13.21,55.16-2.32,2.1-4.64,3.26-6.55,3.26-.36,0-.71-.04-1.03-.13-.95-.25-1.63-.87-1.92-1.74-.81-2.44-2.32-6.62-2.83-8.04-.11-.3-.17-.48-.18-.49,0-.02-.02-.04-.03-.05,15.59-19.13,13.45-45.89,9.45-64.8.14,0,.31-.02.5-.05Zm16.48,44.25c-.35,1.99-.78,3.87-1.26,5.65.48-1.77.91-3.66,1.26-5.65Zm-9.84,23.87c-.51.69-.98,1.29-1.41,1.81.43-.52.91-1.12,1.41-1.81Zm-7.76,7.02h0s0,0,0,0c0,0,0,0,0,0Zm-9.49-10.81c.96-1.18,1.85-2.38,2.67-3.61-.83,1.23-1.72,2.44-2.67,3.61Zm.52,1.54s-.01-.03-.02-.04c0,0,0,.02,0,.03,0,0,0,.01,0,.01Zm3.48-7.24c1.09-1.81,2.05-3.67,2.89-5.57-.84,1.9-1.8,3.76-2.89,5.57Zm-41.89-78.58c-.18.24-.33.44-.44.59.11-.15.26-.35.44-.59Zm-.27,1.22s.02-.03.03-.05c.69-.95,16.79-23.11,26.01-23.57.19,0,.37-.01.55-.01,8.53,0,11.49,10.23,15.59,24.39l.5,1.72c4.4,15.16,16.09,55.42-5.39,80.89-5.78,6.85-10.35,10.18-13.99,10.18-3.38-.01-5.88-3.02-8.09-5.67-5.34-6.41-13.54-10.05-25.08-11.13-5.96-.56-8.62-2.09-9.77-3.14-.22-.2-.38-.38-.51-.53,2.72.2,5.19.32,7.15.32,1.18,0,2.3.02,3.37.04.98.02,1.91.03,2.8.03,6.92,0,11.21-.95,13.25-9.9,2.44-10.72-1.74-48.39-6.79-63.26.15-.07.28-.16.38-.3Zm37.14,84.31h0c-.79.91-1.55,1.76-2.3,2.55.74-.78,1.51-1.63,2.3-2.55Zm1.21,19.49h0c-2.14.65-4.01,2.16-4.99,3.08h0s-.07.07-.11.1c.02-.02.05-.05.08-.07-.12.12-.24.23-.33.32.04-.04.08-.08.13-.12-.05.04-.09.08-.13.12-.09-.13-.18-.27-.28-.4,0,0,0-.01-.01-.02h0c-5.83-7.91-14.54-4.72-16.28-3.98-3.07,1.32-9.65,7.84-10.83,9.03l.05-.76c-.14.14-.26.26-.36.35-2.7-3.48-5.1-5.74-6.17-6.69-5.8-5.12-13.89-4.81-23.38.89-3.79,2.27-6.62,6.55-7.66,8.29-.06-.13-.12-.25-.18-.37-1.36-2.78-3.72-3.45-8.26-3.77-2.02-.14-5.46-.33-9.44-.55-8.75-.48-20.72-1.14-25.56-1.78-6.5-.86-8.3,1.71-9.72,5.05h0c-.06.13-.11.27-.17.41-.02.05-.04.09-.06.14,0,0,0,0,0,0-.99-1.57-2.67-2.86-5.4-3.72-6.17-1.93-36.51-2.4-49.46-2.6-2.85-.04-4.9-.08-5.58-.11-3.19-.14-4.93,1.57-5.7,2.62,0-.01.02-.02.02-.03,0,.01-.02.02-.02.03-.05-.22-.11-.41-.16-.57,0,0,0-.02-.01-.03-.6-1.77-2.58-3.83-5.07-4.18-6.62-.92-14.61-.7-18.02-.61l-.68.02c-1.42.04-2.98.05-4.63.07-7.54.08-16.92.19-23.48,2.12-4.35,1.28-5.94,3.56-6.47,5.44-.06-.14-.11-.29-.18-.43-.04-.09-.09-.18-.13-.27h0s-.05-.08-.07-.12c-2.38-4.62-7.98-7.41-14.54-6.97-6.91.46-36.11.47-36.44.47-2.64.26-4.75.89-6.12,2.53-.06-.07-.14-.15-.24-.27,0,0,0,0,0,0h0s-.06-.06-.08-.09c0,0,0,0,0,0-2.25-2.4-12.77-12.48-24.56-4.9-5.09,3.27-8.9,7.61-11.73,12.5-.08-.11-.18-.26-.32-.46-.65-.96-2-3.03-4.17-6.76-2.6-4.45-5.55-6.98-8.77-7.51-.21-.03-.41-.06-.62-.07-.2-.02-.4-.02-.6-.02-3.05-.02-5.74,1.72-7.53,3.29-1.58,1.38-3.86,3.99-6.23,7.67-.4-.35-.77-.69-1.13-1.01-2.78-2.5-4.45-4.01-8.61-4.43-.93-.09-2.13.02-3.45.42,0,0,0,0,0,0-.05.02-.1.04-.15.05-.11.04-.22.07-.33.1h0c-.76-1.35-1.5-2.46-2.22-3.34.02,0,.04-.01.07-.02.04-.01.08-.02.12-.03.05-.01.11-.03.16-.04,0,0,.01,0,.02,0,.05-.01.09-.02.14-.04h0c1.52-.38,4.76-1.06,7.66-.87l.48.03c2.62.2,9.6.72,13.59-3.12,1.95-1.88,2.9-4.55,2.88-7.92,0,0,0,0,0,0,.17.11.34.22.5.33h0c2.76,1.75,4.79,2.43,6.51,2.43,2.28,0,4.01-1.21,6.13-2.7l.18-.12c1.71-1.19,3.69-3.52,6-6.2,4.19-4.89,9.35-10.9,14.56-11.78h0c.28-.05.56-.09.84-.11.02,0,.04-.01.06-.01,1.96.9,3.92,1.17,5.81,1.17,1.46,0,2.88-.16,4.22-.31.62-.07,1.22-.14,1.81-.19.49-.04,1.07-.08,1.74-.13,7.29-.55,23.95-1.81,29.44-7.32.02-.02.04-.04.06-.05,4.11,13.7,16.66,16.47,21.23,17.01.15,0,4.89.06,11.79.06,15.29,0,41.17-.28,51.29-2.07,7.29-1.29,12.33-6.09,13.8-7.65h0c1.17,1.85,2.61,3.41,4.39,4.58,6.36,4.2,31.57,7.54,52.66,7.54,4.46,0,8.74-.15,12.61-.47.83-.07,1.67-.13,2.53-.2,10.3-.78,22.88-1.74,26.16-13.36.04-.15.08-.32.12-.48.03.01.06.03.1.03.19.03,15.01,2.09,26.57,3.04.07,0,.15.01.22.02.17.53,1.69,4.2,11.77,5.15,11.17,1.05,19.07,4.53,24.17,10.65,2.4,2.88,5.12,6.15,9.11,6.16h.02c1.92,0,3.99-.75,6.27-2.28h0c.17,2.26,1.23,9.74,7.7,11.03.22.04.45.08.68.11.13.02.26.02.39.04-.12.04-.24.07-.35.11.12-.04.24-.08.36-.11Zm-6.22,3.67s0,0,0,0c0-.01-.02-.02-.03-.04,0,.01.02.02.03.04Zm-27.32,4.76c-2.03-2.65-3.9-4.6-5.17-5.82,1.27,1.22,3.14,3.17,5.17,5.82Zm-89.28,1.05s-.04.09-.06.14h0s.04-.09.06-.14Zm-125.3,4.01c-.07-.61-.13-1.12-.17-1.53.05.41.11.92.17,1.53Zm-.87-5.15s0,0,0,0c-.01-.03-.02-.06-.03-.08.01.03.02.05.03.08Zm-52.35-6.86c-1.59.31-2.85.87-3.76,1.91.91-1.03,2.17-1.6,3.76-1.91Zm-4.32,2.69c-.29.49-.52,1.08-.69,1.75.17-.67.4-1.26.69-1.75Zm-.99-.92h0s-.01-.01-.02-.02c0,0,.01.01.02.02Zm-35.51,8.16c-.69,1.26-1.32,2.56-1.89,3.89.57-1.33,1.2-2.63,1.89-3.89Zm-23.51-10.2c-.53.62-1.15,1.38-1.83,2.28.68-.9,1.3-1.66,1.83-2.28Zm-1.88,2.35c-.48.64-1,1.35-1.53,2.13.53-.78,1.04-1.49,1.53-2.13Zm-17.43-.96s-.05.02-.08.03c.02-.01.05-.03.07-.04,0,0,0,0,0,0Zm-.56-.68s0,0-.01,0c0,0,0,0,.01,0h0Zm-1-4.72s0,0,0,0c.06-.02.13-.03.2-.05,0,0,0,0,0,0-.07.02-.14.04-.21.05Zm.79-.19s0,0,0,0c.08-.02.17-.04.26-.06,0,0,0,0,0,0-.09.02-.18.04-.26.06Zm1.12-.24c.08-.02.16-.03.25-.05,0,0,0,0,0,0-.09.02-.17.03-.25.05Zm.49-.09s0,0,0,0c.12-.02.25-.04.38-.07-.13.02-.26.04-.38.07Zm2.15-.32s0,0,0,0c.16-.02.33-.04.49-.05-.17.02-.33.03-.5.05Zm1.57-.13s0,0,0,0c.15,0,.29-.01.44-.02h0c-.15,0-.3.01-.44.02Zm.76-.02c.09,0,.18,0,.27,0,.04,0,.07,0,.11,0h0c-.13,0-.25,0-.38,0Zm17.39-10.66c.02.59,0,1.15-.04,1.7.03-.37.04-.75.04-1.14,0-.19,0-.37,0-.56Zm.2-.94s.03.02.04.03c0,0,0,0,0,0-.01,0-.03-.02-.04-.03Zm1.12.77s.05.03.08.05c-.03-.02-.05-.03-.08-.05,0,0,0,0,0,0Zm35.1-18.1c.2.08.41.17.61.24-.2-.07-.41-.15-.61-.23,0,0,0,0,0,0Zm29.99-1.85c4.87-1.04,9.31-2.58,11.59-4.88h0c-2.29,2.31-6.72,3.84-11.59,4.88Zm13.79-2.81c.59,1.54,1.31,2.97,2.16,4.3-.85-1.32-1.57-2.76-2.16-4.3Zm3.32,5.95c.55.7,1.14,1.36,1.76,1.99-.63-.62-1.22-1.28-1.76-1.99Zm16.61,8.68c.08,0,.19,0,.34,0,.03,0,.06,0,.1,0,.17,0,.38,0,.62,0-.5,0-.87,0-1.06-.01Zm3.99.03h0c.24,0,.49,0,.74,0-.26,0-.5,0-.74,0Zm2.86.01s.02,0,.03,0c.14,0,.28,0,.42,0-.15,0-.3,0-.44,0Zm70.67-9.07c.53.8,1.12,1.54,1.77,2.21-.65-.67-1.24-1.41-1.77-2.21Zm81.46,9.69c7.21-1.33,13.48-4.29,15.4-12.31-1.91,8.03-8.18,10.99-15.4,12.31Zm16.44-12.65c.08.01.22.03.41.06.22.03.53.07.9.12-.7-.09-1.16-.16-1.31-.18Zm10.51,1.35c4.87.59,10.72,1.24,15.9,1.67-5.18-.43-11.02-1.08-15.9-1.67Zm17.18,1.77c1.44.11,2.8.2,4.08.26-1.27-.06-2.64-.15-4.08-.26Zm23.7-53.15c-1.24-7.53-2.74-14.32-4.32-18.83,1.58,4.51,3.08,11.29,4.32,18.83Zm-58.97-20.1s.07-.13.19-.32c1.74-2.9,15.26-24.78,27.3-25.22.25-.01.5-.01.75-.01,13.44,0,20.91,14.52,25.36,25.44,5.3,13.02,9.97,53.37,7.45,64.45-1.88,8.25-5.76,8.85-11.92,8.85-.88,0-1.81-.02-2.79-.03-1.07-.02-2.2-.04-3.39-.04-9.45,0-31.34-2.94-34.87-3.42-.29-.04-.48-.07-.5-.07.12-.65.22-1.33.29-2.04,1.48-15.79-3.86-52.85-7.01-63.66-.35-1.21-.69-2.46-1.04-3.7.07-.06.13-.13.18-.22Zm-87.69-7.33c-.17,1.1-.34,2.28-.52,3.53.18-1.24.35-2.42.52-3.53Zm-1.7,16.06l.02-.15c1.19-9.07,2.31-17.63,3.22-21.85,2.34-10.94,7.38-17.58,15.38-20.31,6.98-1.99,14.42-3.01,22.09-3.01,12.99,0,25.28,3.02,32.09,7.88,8.8,6.28,11.82,17.32,14.74,27.98l.03.1c.45,1.63.91,3.31,1.38,4.92,3.13,10.72,8.44,47.5,6.97,63.15-1.32,14.12-14.23,15.1-25.62,15.97-.86.07-1.71.13-2.54.2-3.76.31-8,.47-12.61.47-21.69,0-45.9-3.42-51.8-7.32-1.65-1.09-2.99-2.56-4.09-4.3-.14-.23-.29-.45-.42-.69-6.46-11.39-3.1-33.45-1.34-44.97l.25-1.63c.73-4.83,1.5-10.74,2.25-16.45Zm-4.59,54.31c-.27-1.5-.48-3.05-.61-4.64.14,1.59.34,3.14.61,4.64Zm-.67-17.1c.12-1.98.28-3.94.48-5.84-.19,1.9-.36,3.86-.48,5.84ZM193.22,1.77s0,0,0,0c0,0,0,0,0,0,0,0,0,0,0,0Zm-48.05,22.58c4.31-9.58,19.47-18.99,33.78-20.96,5.43-.75,10.48-1.13,15.01-1.13,10.51,0,18.64,1.96,24.86,5.99,5.34,3.46,8.96,9.12,11.38,17.79,2.71,9.73,2.64,15.48,2.64,15.54,0,.03.01.05.01.07.02.3.18.55.41.7-.19,1.47-.39,2.97-.59,4.48-.76,5.76-1.54,11.71-2.27,16.57l-.25,1.62c-1.77,11.56-5.12,33.54,1.33,45.49-.08.09-.2.22-.36.38-1.49,1.53-6.31,5.98-12.96,7.16-10.09,1.78-36.32,2.05-51.06,2.05-6.01,0-10.44-.04-11.66-.06h-.04c-14.51-1.75-22.42-12.6-21.16-29.01,1.6-20.86,6.66-57.22,10.92-66.69Zm-5.77,14.41c-.79-1.1-1.7-2.27-2.69-3.49,1,1.22,1.9,2.4,2.69,3.49Zm-42.43-22.63s3.26-3.13,8.62-3.13c1.62,0,3.28.28,4.95.84,8.65,2.88,22.56,16.84,28.73,25.59,0,0,0,0,0,0,.11.15.27.25.44.32-3.13,16.09-5.85,38.7-6.81,51.18-.36,4.64-.03,8.56.77,11.9-.02.03-.06.04-.08.07-.1.13-.22.26-.34.39-4.83,5.31-21.53,6.57-28.76,7.12h-.13c-.62.06-1.16.1-1.62.14-.6.05-1.21.12-1.85.19-1.28.14-2.6.29-3.96.29-4.05,0-9.28-1.24-13.78-10.95-7.55-16.25-1.2-49.04-.93-50.43,1.5-7.59,7.28-26.56,14.73-33.51Zm-55.81,12.75c1.73-3.47,3.74-5.08,6.32-5.08,1.18,0,2.48.33,3.97,1.01,5.15,2.34,29.31,12.83,31.79,13.91.12.05.21.09.22.1.08.03.17.04.25.05-1.33,4.14-2.29,7.9-2.8,10.52-.28,1.41-6.7,34.61,1.03,51.26,2.28,4.9,4.74,7.82,7.24,9.52,0,0,0,0,0,0-.21.05-.42.1-.63.17-5.2,1.64-10.03,7.26-14,11.9-2.25,2.62-4.18,4.88-5.75,5.98l-.18.12c-1.94,1.36-3.47,2.43-5.41,2.43-2.96,0-6.95-2.46-13.77-8.49-11.26-9.96-11.74-33.68-12.06-49.38-.04-1.94-.08-3.78-.13-5.45-.49-14.55,1.45-33.65,3.9-38.56Zm1.04,83.37c-.64-1.58-1.21-3.25-1.7-4.97.49,1.72,1.05,3.39,1.7,4.97Zm-26.96-35.07c.87-3.73,1.49-6.92,2.03-9.74,1.57-8.16,2.36-12.26,6.36-13.59.31-.1.61-.15.91-.15,1.63,0,3.02,1.59,4.5,3.26.86.97,1.74,1.98,2.74,2.75,1.25.96,2.71,1.35,3.57,1.52.21.04.37.07.5.08-.02,2.1,0,4.18.07,6.18.06,1.66.09,3.48.13,5.44.27,13.36.66,32.44,7.67,44.36-.06.05-.19.15-.39.32-1.67,1.4-7.61,6.65-9.84,12.01-1.64,3.93-3.46,6.12-5.26,6.33-.1.01-.2.02-.3.02-1.7,0-3.66-1.52-5.83-4.53-10.74-14.87-9.9-41.17-6.85-54.25Zm-2.27,12.51c-.12,1.75-.2,3.56-.22,5.42.03-1.85.1-3.66.22-5.42Zm-.7-3.24h0s0,0,0,0c0,0,0,0,0,0Zm-.46-.39s0,0,0,0c-.08-.07-.16-.13-.26-.2.1.07.18.14.26.2Zm4.3,57.37c.47.19.88.34,1.18.44-.3-.1-.71-.24-1.18-.44Zm-12.88-16.15c-1.32-6.17-1.76-15.34-1.16-24.52.55-8.47,1.92-15.15,3.41-16.64.74-.74,1.59-1.11,2.51-1.11,1.66,0,3.16,1.15,3.74,1.64.14.12.24.21.26.23.06.06.14.1.21.14-1,9.38-.28,17.44.68,23.1,1.53,9.04,4.48,17.09,8.1,22.1,2.47,3.42,4.73,5.09,6.9,5.09.16,0,.32,0,.48-.03,2.39-.28,4.46-2.61,6.35-7.15,2.04-4.91,7.58-9.88,9.32-11.37.16-.14.29-.25.38-.32,1.19,1.83,2.55,3.46,4.12,4.85,2.49,2.2,4.6,3.91,6.43,5.21-.05.12-.07.24-.07.38,0,.07,0,.13,0,.19.08,3.15-.74,5.59-2.47,7.26-1.98,1.91-5.18,2.88-9.5,2.88-1.24,0-2.33-.08-3.04-.14l-.5-.04c-.36-.02-.73-.03-1.11-.03-3.3,0-6.66.85-7.62,1.12-.15.04-.25.07-.28.08-.09.03-.16.08-.23.12-.91-.88-1.8-1.38-2.66-1.49-1.21-.16-2.21.43-3,1.13,0,0,0,0,.01-.01,0,0,0,0,0,0-.01.01-.03.03-.04.04,0,0,0,0-.01.01-.05.04-.09.09-.14.13.03-.02.05-.05.08-.07-.09.08-.18.16-.26.24h0s0,0,0,0c-.07-.05-.14-.1-.2-.14h0c-.06-.03-.11-.06-.17-.09,0,0,0,0,0,0-.02-.01-.05-.03-.07-.04,0,0,0,0,0,0-.5-.24-1.01-.34-1.53-.26-1.66.26-2.98,2.13-4.06,3.8-.01,0-.02-.01-.03-.01-.01,0-.18-.05-.46-.14-2.22-.71-11.84-4.44-14.35-16.16Zm20.76,14.48c-.16.23-.33.5-.51.8.18-.31.35-.58.51-.8Zm-.91-1.05s0,0,0,0c-.03-.01-.07-.02-.1-.03.03.01.07.01.1.03Zm-10.88,31.55c-.11-.34-.21-.72-.32-1.14.1.41.21.79.32,1.14h0Zm.2-1.15c-.32-1.25-.6-2.83-.68-4.7-.21-4.64.77-12.02,6.67-20.84.17-.25.35-.53.53-.82.94-1.46,2.22-3.46,3.42-3.64.06,0,.11-.01.17-.01.09,0,.18.01.27.04.15.04.3.11.46.2h0c-2.1,3.04-5.76,11.73-8.37,21.21-.74,2.67-1.57,6.11-2.16,9.67-.11-.33-.21-.7-.31-1.11Zm11.02-28.46c-.27.46-.57,1.01-.88,1.63.31-.62.61-1.16.88-1.63Zm-4.7,48.11h0c.08,0,.17,0,.25-.02-.08.01-.17.02-.25.02Zm1.77-.68s.04-.03.06-.04c0,0,0,0,0,0-.02.01-.04.03-.06.04Zm.41-.97c-.09.05-.18.1-.24.18,0,0-.08.08-.2.18-.33.29-1.06.81-1.99.81h-.09c-1.09-.05-2.19-.83-3.28-2.33-1.12-1.55-2.44-5.05-1.52-12.75.09-.18.12-.38.07-.59.42-3.22,1.22-7.14,2.56-11.91,2.97-10.56,7.08-19.61,8.61-21.2.88-.91,1.6-1.34,2.26-1.34.07,0,.14,0,.22.01.89.11,2.38,1.03,4.52,4.64.08.14.17.29.25.44,0,0,0,0,0,0-1.09.51-2.22,1.22-3.33,2.18-3.46,2.99-7.71,9.22-8.29,21.89-.4,8.69-.26,15.13.44,19.78Zm1.37,2.58c.24.99.52,1.86.84,2.62-.32-.76-.6-1.63-.84-2.62Zm14.27,3.36c.19-.22.35-.43.46-.6-.12.17-.27.37-.46.6Zm.88-1.26c-.02-.17-.05-.35-.07-.53-.19.08-.35.21-.45.4-.01.02-.03.04-.05.07-.07.15-1.76,3.71-8.09,4.13-.14,0-.28.01-.42.01-1.29,0-2.33-.41-3.18-1.24-3.04-2.98-4.07-11.37-3.35-27.23.55-12.19,4.56-18.11,7.82-20.93,2.15-1.86,4.76-2.97,6.97-2.97.19,0,.37,0,.54.03,3.72.37,5.09,1.61,7.84,4.09.29.26.61.54.93.83.12.11.25.22.38.33.09-.15.18-.29.27-.43-5.64,9.08-11.49,24.21-9.13,43.45Zm4.91-33c-1.24,3.08-2.34,6.54-3.16,10.35.82-3.81,1.92-7.26,3.16-10.35Zm27.67,41.67c-.17.02-.33.02-.51.05-5.37.98-12.88,8.69-13.77,9.62-.02.02-2.77,2.7-5.99,2.7-.55,0-1.09-.08-1.61-.24-3.87-1.19-6.76-6.57-8.58-16-6.75-34.95,14.37-55.45,14.59-55.65,1.54-1.35,3.94-2.96,6.59-2.96.35,0,.71.03,1.05.09,2.8.46,5.43,2.76,7.82,6.85,2.78,4.76,4.2,6.82,4.6,7.39.07.1.12.16.13.18.06.08.15.14.24.2-5.49,10.24-6.93,22.66-6.93,32.87,0,6.78,1.06,11.57,2.37,14.9,0,0,0,0,0,0Zm3.6-43.79c-.85,1.98-1.57,4.02-2.18,6.09.61-2.07,1.33-4.11,2.18-6.09Zm-3.98,39.63c.25,1.05.54,2.01.84,2.88-.3-.87-.59-1.82-.84-2.88Zm49.71,1.57c-5.34.54-12.14,3.93-17.8,8.96-4.73,4.2-10,4.88-10.22,4.91-.61.05-1.24.08-1.86.08-8.52,0-13.66-5.35-13.71-5.4-.06-.06-.13-.12-.2-.16-.05-.03-6.55-4.36-6.55-20.69,0-15.25,3.25-35.51,18.72-45.46,2.63-1.69,5.4-2.55,8.24-2.55,7.73,0,13.75,6.28,14.82,7.47.1.12.18.2.18.21.05.06.12.1.18.14.08-.15.16-.29.24-.43-.99,1.61-1.44,3.97-1.24,7.49v.19c1.41,23.79,5.4,37.41,9.73,45.2-.18.01-.36.03-.54.05Zm50.11-8.31c-2.32,9.67-10.76,15.75-10.85,15.81-.07.05-6.59,4.71-15.49,4.71-5.7,0-11.12-1.89-16.1-5.63-5.94-4.46-13.45-17.08-15.5-51.9v-.19c-.44-7.27,1.87-8.84,6.59-9.3.01,0,.12,0,.32,0,3.2,0,29.56-.03,36.12-.47.42-.03.84-.04,1.26-.04,6.47,0,11.62,3.41,12.81,8.47,0,.02.01.03.02.04.02.52.1.92.14,1.08.09.71,1.23,10.13,2.46,26.8-.13,1.15-.77,6.46-1.77,10.61Zm.57-30.42c.17,1.72.37,3.74.58,6.05-.21-2.31-.4-4.34-.58-6.05Zm.97,25.13c.16-1.02.3-1.97.42-2.79-.11.82-.25,1.77-.42,2.79Zm54.56,14.94c-4.33,9.62-17.24,13.03-26.99,13.03-.52,0-1.04,0-1.55-.03-14.22-.53-22.66-15.21-23.65-29.44-.09-1.3-.18-2.55-.27-3.77,0-.04,0-.07,0-.07.01-.13,0-.26-.04-.38-1.24-16.77-2.41-26.23-2.46-26.66,0-.06-.02-.11-.03-.15-.06-.2-1.31-4.78,5.66-6.83,6.38-1.88,15.66-1.98,23.12-2.06h.1c1.62-.02,3.15-.04,4.55-.07l.68-.02c1.31-.04,3.29-.09,5.63-.09,4.79,0,8.88.23,12.17.69,2.21.31,3.62,2.18,3.99,3.29,1.76,5.29,3.3,43.23-.9,52.57Zm4.24-30.5c.06.47.13,1,.21,1.6-.08-.6-.15-1.13-.21-1.6Zm29.5,46.84h0s0,0,0,0c0,0,0,0,0,0Zm29.73-40.52c-.19.62-.38,1.25-.57,1.89.19-.64.38-1.26.57-1.89h0Zm-.26-.86c-1.67,5.51-3.56,11.75-5.81,19.05-2.51,8.16-9.02,21.85-24.41,21.85-.57,0-1.15-.02-1.73-.06-13.05-.84-19.57-7.26-22.5-22.14-3.03-15.4-4.29-26.38-4.3-26.49,0-.09-.04-.16-.07-.24-.09-.23-.27-.42-.5-.51-.2-7.14-.67-13.52-1.21-17.08.18-.1.33-.24.42-.44,0,0,0-.01,0-.02.1-.21,1.29-2.6,4.6-2.6.09,0,.19,0,.28,0,.7.03,2.76.06,5.61.11,12.91.2,43.11.68,49.08,2.54,2.18.68,3.62,1.65,4.51,2.86.17.23.32.47.45.72,1.2,2.32.76,5.43-.43,9.27-1.28,4.15-2.58,8.44-4,13.14Zm1.98-1.53c-.04.21-.18.96-.33,2.15.16-1.2.29-1.95.33-2.15Zm-.58,4.46c.06-.65.12-1.24.18-1.76-.06.52-.13,1.11-.18,1.76Zm35.4,34.24c-3.77,1.35-7.53,2.03-11.18,2.03-4.68,0-9-1.11-12.85-3.29-5.14-2.92-8.89-7.54-9.78-12.07-2.77-14.07-.53-25.22-.51-25.33.02-.11.02-.22,0-.33-.02-.13-.06-.25-.14-.36-.06-.09-.13-.15-.21-.22,1.1-3.63,2.14-7.04,3.16-10.35.97-3.14,1.62-6.41.76-9.15h0s.17-.43.17-.43c.04-.1.08-.19.11-.28,1.31-3.26,2.28-5.4,6.52-5.4.66,0,1.4.05,2.2.16,4.88.65,16.88,1.31,25.64,1.79,3.82.21,7.4.41,9.43.55,4.78.34,6.63,1.13,7.58,3.89,0,.04,0,.08.01.12.01.04.04.07.06.1.38,1.22.61,2.8.84,4.87.41,3.71-1.34,15.91-3.26,26.35-2.51,13.66-6.49,22.99-18.55,27.32Zm17.02-18.6c.4-1.32.76-2.7,1.09-4.14-.33,1.44-.7,2.81-1.09,4.14Zm45.65,10.45c-.51.58-1.07,1.32-1.71,2.19-2.7,3.65-6.37,8.59-11.76,8.59-.79,0-1.6-.11-2.42-.32-3.74-.98-8.69-4.55-12.66-7.41l-.68-.49c-2.34-1.69-4.21-2.87-5.85-3.91-1.82-1.15-3.39-2.15-5.02-3.46-2.34-1.87-3.88-4.3-4.3-5.01-.07-.12-.12-.2-.12-.21-.06-.12-.15-.21-.26-.29.85-2.85,1.46-5.77,1.98-8.61,1.79-9.77,3.73-22.64,3.27-26.74-.2-1.77-.44-3.2-.75-4.4.08-.07.16-.15.21-.25,0,0,.06-.11.16-.28.69-1.19,3.62-5.95,7.45-8.24,4.77-2.86,9.15-4.31,13.02-4.31,3.36,0,6.31,1.1,8.78,3.28,3.28,2.9,19.53,18.64,17.1,44.22-.9,9.41-4.23,13.17-6.44,15.65Zm-2.25-50.89c.68,1,1.37,2.07,2.05,3.22-.67-1.15-1.36-2.22-2.05-3.22Zm7.45,46.81h0s0,0,0,0c0,0,0,0,0,0Zm.01,0h0c.13,0,.27,0,.42.02,0,0,0,0,0,0-.15-.01-.29-.02-.42-.02Zm.61.04c.1,0,.19.02.3.03,0,0,0,0,0,0-.1-.01-.2-.02-.3-.03Zm.66.09c.07.01.14.02.21.03h0c-.07-.01-.14-.02-.21-.03Zm3.31,1.16c.14.08.28.15.42.24,0,0,0,0,0,0-.14-.08-.28-.16-.42-.24Zm1.41.91h0c.19.14.37.29.56.44h0c-.19-.16-.37-.31-.56-.44Zm12.37,6.72c-2.39,0-6.78-1.99-10.55-5.8-2.83-2.86-5.79-3.51-7.56-3.6-.18,0-.35-.02-.5-.02-.02,0-.03,0-.05,0,1.28-2.54,2.39-5.99,2.86-10.94,1.6-16.8-4.67-29.46-10.26-37.18.11-.11.22-.23.36-.36,2.25-2.25,7.77-7.48,10.19-8.52,1.04-.45,3.17-1.2,5.66-1.2,3.96,0,7.17,1.86,9.54,5.52,4.9,7.58,14.65,32.9,9.69,50.62-3.21,11.47-7.23,11.47-9.38,11.47Zm5.76-50.23c.63,1.73,1.24,3.58,1.82,5.49-.58-1.91-1.19-3.76-1.82-5.49Zm4.62,36.77c1.02-4.83,1.07-10.11.51-15.4.56,5.28.51,10.57-.51,15.4Zm1.23.59s0,0,0,0c0,0,.01,0,.02,0,0,0-.01,0-.02,0Zm.03,0s0,0,0,0c.06,0,.13.01.2.01-.07,0-.13,0-.2-.01Zm11.62-19.96c-.4,6.34-1.49,13.4-6.57,17.63-1.08.9-2.97,1.86-4.59,1.86-.13,0-.25-.01-.37-.03-.17-.02-.33-.05-.49-.09,3.57-17.4-5.07-40.51-9.97-48.65.08-.08.21-.21.37-.36,1.05-1,3.65-3.19,6.18-3.19.43,0,.84.07,1.23.19,5.91,1.97,15.56,11.06,14.21,32.62Zm-3.94-37.31s0,0,0,0c.04-.02.09-.03.13-.05-.05.02-.09.03-.14.05Zm1-.85c-.72.22-1.5.49-2.37.8-2.83,1.01-6.35,2.26-10.18,2.26-.71,0-1.43-.04-2.12-.13-6.34-.79-7.12-8.52-7.22-10.15-.01-.18-.01-.31-.01-.32,0-.09-.03-.17-.05-.25,2.13-1.64,4.45-3.94,7.01-6.91.56,1.56,1.97,5.47,2.75,7.81.44,1.31,1.48,2.26,2.86,2.62.43.11.88.17,1.35.17.92,0,1.91-.22,2.93-.64.15-.06.31-.13.47-.2.36.57,2.01,2.98,5.26,4.75-.22.06-.45.12-.69.19Zm-.77-2.15c.5.38,1.06.76,1.69,1.11-.63-.35-1.19-.73-1.69-1.11Zm4.84,2.54s0,0,0,0c.16.06.33.13.49.19-.16-.06-.33-.12-.49-.19Zm4.94.96s0,0,0,0h0s0,0,0,0Zm7.83-2.73c-3.41,1.55-5.91,2.24-8.13,2.24s-4.14-.75-6.36-1.74c-2.91-1.3-4.68-3.3-5.42-4.29-.13-.17-.22-.31-.29-.4.95-.56,1.91-1.28,2.87-2.15,6.33-5.75,15.39-20.69,14.88-43.5.06-.03.12-.05.17-.1.1-.08.21-.17.32-.25,1.49-1.18,3.95-2.8,5.12-2.8.04,0,.08,0,.12,0,1.25.16,7.69,8.05,7.69,21.33,0,14.6-.82,27.05-10.96,31.66Z"></path></svg>