<svg xmlns="http://www.w3.org/2000/svg" viewBox="0 0 469.15 189.71"><defs><style>.c{fill:none;stroke:#9E7F61;stroke-linecap:round;stroke-linejoin:round;stroke-width:3px;}</style></defs><g id="a"><path class="c" d="m445.25,114.5s14.5,1,19.5-14.5,2-41.5,2-41.5c0,0-.5-8.5-7-5s-10.83,5.83-10.83,5.83"></path><path class="c" d="m440.59,113.67s10.67-9.17,10.17-30.67-4-37.33-4.33-40.17-1-7.33-7-4.33-10.67,4-10.67,4"></path><path class="c" d="m423.25,107.67s10-17.67,7-49.67-10.5-44-10.5-44c0,0-4.54-9.32-14-3.5-13,8-26.5,26.5-26.5,26.5"></path><path class="c" d="m322.52,38.12s17.84-23.34,27.41-26.62c11.67-4,22.48,3.25,30.33,30.5,8.5,29.5,4,49,4,49"></path><path class="c" d="m33.47,49.15s-4.21-1.82-6.81-5.72c-2.18-3.27-6.27-1.91-7.63,2.18-1.36,4.09-3.27,6.27-7.08,6.54-3.81.27-6.81-4.63-8.45,8.99-1.63,13.62-6.81,42.5,10.63,52.04"></path><path class="c" d="m82.78,35.25s-29.15-15.26-35.15-16.35c-5.99-1.09-9.54-.27-11.72,6.81s-6.81,62.39,8.99,82.56"></path><path class="c" d="m11.94,65.77c2.45.27,2.18,7.63,2.18,16.89s3.27,24.25,10.63,28.61"></path><path class="c" d="m137.75,38s-16.55-24.27-33-25.5c-13.97-1.04-19,5.5-25,36s-.75,48.25,2.38,54.88"></path><path class="c" d="m232.92,47.83s-4.61-9.88-4.17-21.33c.39-10-6.11-19.58-21.5-21.5-12-1.5-29.5-2-47,5-15.11,6.05-19,15.5-21,23-2.13,8-13.91,42.36-4.95,71.56"></path><path class="c" d="m231.25,109.67s-1.65-10.07-1-19.67c.67-9.83,3-45,3.5-57s5.5-24.5,19.5-27.5c9.23-1.98,24.48-4,32-4,14,0,27.5,6,34,25,8.55,24.98,10.5,66,10.5,66l.5,9"></path></g><g id="b"><path class="c" d="m432.59,118.33s3.44-3.66,8-4.67c12.25-2.72,14.52,38.64,14,41.33-.58,3-3.01,2.01-6,6-2.79,3.72-3.33,6.67-5.33,8s-5.25-1-5.25-1"></path><path class="c" d="m405.27,114.05s11.32-9.05,17.99-6.38,10,13.33,12.67,21.33c2.67,8,5.33,34,0,45.33-5.33,11.33-10,8-18,1.33s-12.67-7.47-18-8.13"></path><path class="c" d="m355.38,116.75s5.88-23.08,19.88-25.08,20,2.67,24.67,10.67c4.67,8,9.87,26.68,11.33,40.67,1.62,15.5-11.37,24.27-14.71,26.78-2.25,1.69-11.95,5.22-19.29-.78s-15.5-12.31-19.38-13.62c-.81-.28-2.39-.34-2.91-.43"></path><path class="c" d="m295.92,134.67c.61,9.35,2.14,18.92,2.82,22.34,1.33,6.67,4.01,13.3,14,18.67,9.22,4.96,20.34,4.41,27.92-.57,7.17-4.71,10.99-9.22,13.66-17.89,2.67-8.67,2.28-35.36-.25-48.21-2.21-11.21-14.67-8.67-14.67-8.67,0,0-28.5,3.17-31.17,3.71-2.54.52-9.74.74-11.49,8.28"></path><path class="c" d="m36.05,117.88s-6.8-5.88-12.13-6.88-15.67,0-20,24c-4.33,24,3.82,24.78,7,26.33,2.45,1.2,4.01,2.64,6.28,4.38,2.46,1.88,8.17,3.4,12.05-1.04"></path><path class="c" d="m67.58,117s-10.33-10.67-17-10.33-13,6.67-16.33,15.67c-3.33,9-11.3,31.99-1,54,7.33,15.67,15.67,4,15.67,4,0,0,6.59-10.08,15.59-11.08"></path><path class="c" d="m111.79,167.16s-6.87,2.17-16.2,8.51c-6.07,4.12-17.33,14.33-25,4.67-7.67-9.67-14.67-33.67-8.67-50.33s13.83-23.43,20.21-26.62c6-3,16.23-2.86,22.46,1.29,2,1.33,4.14,3.3,5.76,4.75"></path><path class="c" d="m167.13,142.38c-.61,9.35-1.77,14.54-2.46,17.97-1.33,6.67-4.01,13.3-14,18.67-9.22,4.96-20.34,4.41-27.92-.57-7.17-4.71-10.99-9.22-13.66-17.89s-2.28-35.36.25-48.21c2.21-11.21,14.67-8.67,14.67-8.67,0,0,28.5,3.17,31.17,3.71,2.22.45,8.01.68,10.6,5.78"></path><path class="c" d="m228.09,111.67c-2.55-4.59-6.82-3.58-11.89-4.07-5.07-.49-40.81.18-40.81.18-7.66.51-10.09,4.61-9.91,10.93.18,6.32,3.09,42.37,4.54,49.44,1.77,8.68,13.87,20.92,29.13,19.96,15.26-.95,24.48-7.22,27.28-16.47,2.8-9.25,3.76-10.83,3.76-10.83l1.36-3"></path><path class="c" d="m226.98,118.65c-.09-6.41,3.95-9.57,7.61-10.31,4.86-.99,15.52-.62,29.33-.67,12.88-.04,24.47-.37,28.1.15,3.63.52,4.85,3.73,4.85,6.08,0,2.36-.64,54.04-13.68,66.01-10.47,9.61-20.84,9.14-27.96,7.11-7.12-2.03-16.07-5.33-21.77-24.33-5.7-19-6.49-44.03-6.49-44.03Z"></path></g></svg>