<svg xmlns="http://www.w3.org/2000/svg" id="grid" fill="#fff" enable-background="new 0 0 64 64" viewBox="0 0 64 64"><g><path d="m59.3 26.8v-5.5c0-.6-.4-1-1-1h-52.6c-.6 0-1 .4-1 1v5.5c0 9.6 5.3 18 13.2 22.3v1.9c-12.7.9-12.7 2.6-12.7 3.5 0 1.1.7 2.2 8.4 3.1 4.9.6 11.4.9 18.4.9s13.4-.3 18.4-.9c7.8-.9 8.4-2 8.4-3.1 0-.9 0-2.5-12.7-3.4v-1.9c7.8-4.4 13.2-12.8 13.2-22.4zm-52.6 0v-4.5h50.5v4.5c0 13-10.6 23.5-23.5 23.5h-3.5c-12.9.1-23.5-10.5-23.5-23.5zm25.3 29.6c-12.8 0-21.5-1-24.1-1.9 1.3-.4 4.3-1 10-1.4v.9c0 .3.1.5.3.7s.4.3.7.3h26.1c.4 0 .8-.3.9-.7.1-.1.1-.3.1-.5v-.8c5.7.4 8.8 1 10.1 1.5-2.6.9-11.3 1.9-24.1 1.9zm12.1-4.5v.9h-24.2v-.8c0-.1 0-.1 0-.1v-1.7c3.2 1.4 6.7 2.2 10.3 2.2h3.5c3.7 0 7.2-.8 10.3-2.2z"/><path d="m32.6 47.1c19.1-1.4 20.9-18.5 20.9-18.7.1-.5-.4-1-.9-1.1-.6-.1-1 .4-1.1.9 0 .2-1.7 15.6-19 16.9-.6 0-1 .5-.9 1.1 0 .5.4.9 1 .9z"/></g></svg>