<svg id="Layer_1" enable-background="new 0 0 68 68" viewBox="0 0 68 68" xmlns="http://www.w3.org/2000/svg" fill="#fff"><g><g><g><g><g><path d="m23.3365479 49.571167h-.0004883c-.1992188-.0002441-.3901367-.0793457-.5302734-.2202148l-4.1601563-4.1699219c-.2924805-.2929688-.2919922-.7675781.0004883-1.0600586l10.6601563-10.6601563c.28125-.28125.7792969-.28125 1.0605469 0l4.1699219 4.170166c.140625.140625.2197266.331543.2197266.5305176s-.0791016.3896484-.2197266.5302734l-10.669922 10.6599122c-.140625.140625-.331543.2194824-.5302734.2194824zm-3.1000977-4.9191895 3.1010742 3.1081543 9.6079102-9.5991211-3.1088867-3.1091309z"/></g></g></g><g><g><g><path d="m38.1661377 34.7410889c-.1987305 0-.3896484-.0791016-.5302734-.2197266l-4.159668-4.1599121c-.2929688-.2929688-.2929688-.7678223 0-1.0605469l10.6499023-10.6499023c.2929688-.2929688.7675781-.2929688 1.0605469 0l4.1601563 4.1599121c.140625.140625.2197266.3312988.2197266.5302734s-.0791016.3896484-.2197266.5302734l-10.6503907 10.6499024c-.140625.140625-.3315429.2197266-.5302734.2197266zm-3.0991211-4.9099121 3.0991211 3.0993652 9.5898438-9.5893555-3.0996094-3.0993652z"/></g></g></g><g><g><g><g><path d="m27.2462158 62.9674072c-1.1977539 0-2.3935547-.4555664-3.3041992-1.3664551l-17.5405273-17.5407714c-.8833008-.8833008-1.3701172-2.0576172-1.3701172-3.3066406 0-1.2492676.4868164-2.423584 1.3701172-3.3068848.8911133-.8911133 2.0654297-1.3776855 3.3144531-1.3776855s2.4233398.4865723 3.3066406 1.369873l17.5410156 17.5410156c1.8232422 1.822998 1.8232422 4.7897949 0 6.6132813-.9165039.9165039-2.1176757 1.3742675-3.3173828 1.3742675zm-17.5302734-25.3984375c-.8486328 0-1.6459961.3305664-2.2460938.9304199-.6079102.6081543-.9384766 1.4057617-.9384766 2.2541504s.3305664 1.6459961.9306641 2.2460938l17.5405273 17.5407715c1.2392578 1.2392578 3.2543945 1.237793 4.4926758 0 1.2460938-1.2463379 1.2460938-3.2614746.0078125-4.5l-17.5410156-17.5410157c-.6000976-.5998535-1.3974609-.9304199-2.2460937-.9304199z"/></g></g></g><g><g><g><path d="m19.9044189 66.7476807c-1.1967773.0002441-2.3925781-.4555664-3.3032227-1.3662109l-13.9799804-13.9799805c-.8833008-.8833008-1.3701172-2.0576172-1.3701172-3.3066406 0-1.2492676.4868164-2.423584 1.3701172-3.3068848.8911133-.8911133 2.0654297-1.3776855 3.3144531-1.3776855s2.4233398.4865723 3.3066406 1.369873l13.9799805 13.9799804c1.8232422 1.822998 1.8232422 4.7897949 0 6.6132813-.9165039.9165039-2.1176757 1.3742676-3.3178711 1.3742676zm-13.96875-21.8374024c-.8486328 0-1.6459961.3305664-2.2460938.9304199-.6079101.6081543-.9384765 1.4057618-.9384765 2.2541504s.3305664 1.6459961.9306641 2.2460938l13.9799805 13.9799805c1.2387695 1.2380371 3.253418 1.2387695 4.4921875-.0002441 1.2460938-1.2463379 1.2460938-3.2614746.0078125-4.5l-13.9799805-13.9799806c-.6000977-.5998535-1.3974609-.9304199-2.2460938-.9304199z"/></g></g></g></g><g><g><g><path d="m59.9122314 12.9422607c-.1987305 0-.3896484-.0791016-.5302734-.2197266l-4.1098633-4.1101074c-.2929688-.2929688-.2929688-.7678223 0-1.0605469l1.9555664-1.9555664c1.3759766-1.3759766 3.7841797-1.3759766 5.1601563 0 .7026367.7026367 1.0830078 1.6206055 1.0810547 2.5957031-.0019531.9716797-.3818359 1.8859863-1.0708008 2.574707l-1.9555664 1.9558105c-.140625.1406252-.331543.2197267-.5302735.2197267zm-3.0493164-4.8601074 3.0493164 3.0493164 1.425293-1.425293c.40625-.40625.6303711-.9448242.6313477-1.5168457.0009766-.5732422-.2231445-1.1137695-.6313477-1.5219727-.8300781-.8300781-2.2397461-.8195801-3.0493164-.010498zm.8950196-1.9555664h.0097656z"/></g></g></g><g><g><g><path d="m8.1856689 63.4688721c-.9726563 0-1.8881836-.380127-2.5786133-1.0708008-1.4331054-1.4328613-1.4335937-3.7478027-.0107421-5.1706543l1.9555664-1.9555664c.2929688-.2929688.7675781-.2929688 1.0605469 0l4.1103516 4.1098633c.140625.140625.2197266.3312988.2197266.5302734s-.0791016.3896484-.2197266.5302734l-1.9560547 1.9558105c-.6884766.6887207-1.6030273 1.0690918-2.574707 1.0708008-.0019532.0000001-.0043946.0000001-.0063478.0000001zm-1.5288085-5.1809082c-.8378906.8378906-.8378906 2.2011719 0 3.0390625.4179688.4177246.9570313.6418457 1.5288086.6418457h.0039063c.5717773-.0012207 1.1103516-.2253418 1.5166016-.6313477l1.4257813-1.4255371-3.0498047-3.0493164z"/></g></g></g><g><g><g><path d="m58.2867432 31.9332275c-1.2490234 0-2.4233398-.4865723-3.3066406-1.369873l-17.5410157-17.5407715c-1.8232422-1.8234863-1.8232422-4.7902832 0-6.6132813.8911133-.8913574 2.0654297-1.3779297 3.3144531-1.3779297s2.4233398.4865723 3.3066406 1.369873l17.5410156 17.5407715c1.8232422 1.8234863 1.8232422 4.7902832 0 6.6132813-.8911132.8913575-2.0654296 1.3779297-3.314453 1.3779297zm-17.5332032-25.4018554c-.8481445 0-1.6459961.3305664-2.2460938.9304199-1.2460938 1.246582-1.2460938 3.2617188-.0078125 4.5002441l17.5410156 17.5407715c1.199707 1.1994629 3.2915039 1.1999512 4.4921875 0 1.2460938-1.246582 1.2460938-3.2617188.0078125-4.5002441l-17.5410155-17.5407715c-.6000977-.5998535-1.3974609-.9304199-2.2460938-.9304199z"/></g></g></g><g><g><g><path d="m62.0635986 24.588501c-1.1967773.0002441-2.3925781-.4555664-3.3032227-1.3662109l-13.9799804-13.9799805c-.8833008-.8833008-1.3701172-2.0576172-1.3701172-3.3066406 0-1.2492676.4868164-2.423584 1.3701172-3.3068848.8911133-.8911133 2.0654297-1.3776855 3.3144531-1.3776855s2.4233398.4865723 3.3066406 1.369873l13.9799805 13.9799805c1.8232422 1.822998 1.8232422 4.7897949 0 6.6132813-.9165039.9165038-2.1176758 1.3742675-3.3178711 1.3742675zm-13.96875-21.8374024c-.8486328 0-1.6459961.3305664-2.2460938.9304199-.6079102.6081543-.9384766 1.4057617-.9384766 2.2541504s.3305664 1.6459961.9306641 2.2460938l13.9799805 13.9799805c1.2387695 1.2380371 3.253418 1.2387695 4.4921875-.0002441 1.2460938-1.2463379 1.2460938-3.2614746.0078125-4.5l-13.9799804-13.9799805c-.6000977-.5998536-1.397461-.93042-2.2460938-.93042z"/></g></g></g></g><g><g><g><g><path d="m44.6661377 49.571167c-.1987305 0-.3896484-.0791016-.5302734-.2197266l-25.4799805-25.4799804c-.140625-.140625-.2197266-.3312988-.2197266-.5302734s.0791016-.3896484.2197266-.5302734l4.1601562-4.1599122c.2929688-.2929688.7675781-.2927246 1.0605469-.0002441l25.4799805 25.4702148c.2924805.2924805.2929688.7670898.0004883 1.0600586l-4.1601563 4.1699219c-.140625.1408691-.3310547.2202148-.5302734.2202148zm-24.4194336-26.2299805 24.4189453 24.4187012 3.1005859-3.1079102-24.4199218-24.4104004z"/></g></g></g><g><g><g><g><path d="m40.75354 62.9708252c-1.2490234 0-2.4233398-.4865723-3.3066406-1.369873-1.8310547-1.8312988-1.8310547-4.7980957-.0078125-6.6210938l17.5410156-17.5410156c.8833008-.8833008 2.0576172-1.369873 3.3066406-1.369873s2.4233398.4865723 3.3066406 1.369873c1.8310547 1.8310547 1.8310547 4.7978516.0078125 6.6213379l-17.5410155 17.5407714c-.8833008.8833008-2.0576172 1.3698731-3.3066407 1.3698731zm17.5332032-25.4018555c-.8486328 0-1.6459961.3305664-2.2460938.9304199l-17.5410156 17.5410157c-1.2382813 1.2385254-1.2382813 3.2536621 0 4.4921875 1.2163086 1.2158203 3.300293 1.2070313 4.5.0078125l17.5410156-17.5407715c1.2382813-1.2385254 1.2382813-3.2536621 0-4.4921875-.6079101-.6079102-1.4057617-.9384766-2.2539062-.9384766zm2.7841797 5.9609375h.0097656z"/></g></g></g><g><g><g><path d="m48.0948486 66.7489014c-1.1977539 0-2.3950195-.4558105-3.3066406-1.3674316-.8911133-.8913574-1.3779297-2.0656738-1.3779297-3.3146973 0-1.2492676.4868164-2.423584 1.3701172-3.3068848l13.9799805-13.9797363c.8833008-.8833008 2.0576172-1.369873 3.3066406-1.369873s2.4233398.4865723 3.3066406 1.369873c1.8310547 1.8312988 1.8310547 4.7978516.0078125 6.6213379l-13.9799804 13.9799804c-.9116211.9116211-2.1088868 1.3674317-3.3066407 1.3674317zm13.972168-21.8386231c-.8486328 0-1.6459961.3305664-2.2460938.9304199l-13.9799804 13.9799805c-.6000977.6000977-.9306641 1.3977051-.9306641 2.2460938s.3305664 1.6459961.9306641 2.2460938c1.2456055 1.2463379 3.2612305 1.2460938 4.5.0080566l13.9799805-13.9799805c1.2382813-1.2385254 1.2382813-3.2536621 0-4.4921875-.6079102-.6079102-1.4057618-.9384766-2.2539063-.9384766zm2.7841797 5.9609375h.0097656z"/></g></g></g></g><g><g><g><path d="m8.0904541 12.9422607c-.1987305 0-.3896484-.0791016-.5302734-.2197266l-1.9555664-1.9558105c-.6889648-.6884766-1.0693359-1.6030273-1.0708008-2.574707-.0019531-.9748535.3779297-1.8930664 1.0703125-2.5852051 1.3974609-1.3969727 3.7949219-1.3864746 5.1708984-.010498l1.9555664 1.9555664c.2929688.2927246.2929688.7675781 0 1.0605469l-4.1098633 4.1101074c-.140625.140625-.3315429.2197265-.5302734.2197265zm.1044922-6.9128418c-.5751953 0-1.1147461.2229004-1.5195313.6274414-.4189453.4187012-.6430664.9592286-.6416015 1.5324708.0009765.5720214.2250976 1.1105957.6313476 1.5166015l1.425293 1.4255371 3.0493164-3.0493164-1.425293-1.425293c-.4047851-.404541-.9443359-.6274414-1.5195312-.6274414z"/></g></g></g><g><g><g><path d="m59.8121338 63.4637451c-.934082 0-1.8662109-.3554688-2.5766602-1.0654297l-1.9555664-1.9560547c-.2929688-.2929688-.2929688-.7678223 0-1.0605469l4.1103516-4.1098633c.2929688-.2929688.7675781-.2929688 1.0605469 0l1.9555664 1.9555664c1.4228516 1.4228516 1.4223633 3.737793 0 5.1601563-.7177735.7177735-1.6567383 1.0761719-2.5942383 1.0761719zm-2.9414063-3.5517578 1.425293 1.4255371c.8388672.8378906 2.2021484.8378906 3.0390625 0 .8486328-.8483887.8486328-2.2116699.0107422-3.0495605l-1.425293-1.425293z"/></g></g></g><g><g><g><path d="m9.7159424 31.9332275c-1.2490234 0-2.4233398-.4865723-3.3066406-1.369873-.8911133-.8911133-1.3779297-2.0654297-1.3779297-3.3146973 0-1.2490234.4868164-2.4233398 1.3701172-3.3066406l17.5405273-17.5407715c1.8232422-1.8234863 4.7905273-1.822998 6.6137695 0 1.8310547 1.8310547 1.8310547 4.7978516.0078125 6.6213379l-17.5410156 17.5407715c-.8833008.8833008-2.0576172 1.369873-3.3066406 1.369873zm15.2866211-24.4714355-17.5405274 17.5407715c-.6000977.6000977-.9306641 1.3977051-.9306641 2.2460938s.3305664 1.6459961.9306641 2.2458496c1.2158203 1.2163086 3.2998047 1.2080078 4.5.0083008l17.5410156-17.5407715c1.2382813-1.2385254 1.2382813-3.2536621 0-4.4921875-1.2451171-1.2460938-3.2612304-1.246338-4.5004882-.0080567z"/></g></g></g><g><g><g><path d="m5.9356689 24.5897217c-1.1977539 0-2.3950195-.4558105-3.3066406-1.3674316-.8911133-.8913574-1.3779297-2.0656738-1.3779297-3.3146973 0-1.2492676.4868164-2.423584 1.3701172-3.3068848l13.9799805-13.9797363c.8833008-.8833008 2.0576172-1.369873 3.3066406-1.369873s2.4233398.4865723 3.3066406 1.369873c1.8310547 1.8312988 1.8310547 4.7978516.0078125 6.6213379l-13.9799804 13.9799804c-.9116211.9116211-2.1088867 1.3674317-3.3066407 1.3674317zm13.972168-21.8386231c-.8486328 0-1.6459961.3305664-2.2460938.9304199l-13.9799804 13.9799805c-.6000977.6000977-.9306641 1.3977051-.9306641 2.2460938s.3305664 1.6459961.9306641 2.2460938c1.2460938 1.2463379 3.2617188 1.2460938 4.5.0080566l13.9799805-13.9799805c1.2382813-1.2385254 1.2382813-3.2536621 0-4.4921875-.6079102-.6079102-1.4057618-.9384766-2.2539063-.9384766zm-2.7763672.4001465h.0097656z"/></g></g></g></g></g></svg>