<svg id="grid" enable-background="new 0 0 64 64" viewBox="0 0 64 64" xmlns="http://www.w3.org/2000/svg" fill="#fff"><g><path d="m30.6 15.5c0 .6.4 1 1 1s1-.4 1-1c0-.7.2-1 .4-1.5s.6-1.2.6-2.3c0-1.2-.3-1.8-.6-2.3-.2-.4-.4-.8-.4-1.5s.2-1 .4-1.5.6-1.2.6-2.3c0-.6-.4-1-1-1s-1 .4-1 1c0 .7-.2 1-.4 1.5-.2.4-.6 1-.6 2.2s.3 1.8.6 2.3c.2.4.4.8.4 1.5s-.2 1-.4 1.5-.6 1.2-.6 2.4z"/><path d="m16.8 15.5c0 .6.4 1 1 1s1-.4 1-1c0-.7.2-1 .4-1.5s.6-1.2.6-2.3c0-1.2-.3-1.8-.6-2.3-.2-.4-.4-.8-.4-1.5s.2-1 .4-1.5.6-1.2.6-2.3c0-.6-.4-1-1-1s-1 .4-1 1c0 .7-.2 1-.4 1.5s-.6 1.2-.6 2.3.3 1.8.6 2.3c.2.4.4.8.4 1.5s-.2 1-.4 1.5c-.3.4-.6 1.1-.6 2.3z"/><path d="m44.3 15.5c0 .6.4 1 1 1s1-.4 1-1c0-.7.2-1 .4-1.5s.6-1.2.6-2.3c0-1.2-.3-1.8-.6-2.3-.2-.4-.4-.8-.4-1.5s.2-1 .4-1.5.6-1.2.6-2.3c0-.6-.4-1-1-1s-1 .4-1 1c0 .7-.2 1-.4 1.5s-.6 1.2-.6 2.3.3 1.8.6 2.3c.2.4.4.8.4 1.5s-.2 1-.4 1.5c-.3.4-.6 1.1-.6 2.3z"/></g></svg>